<svg xmlns="http://www.w3.org/2000/svg" width="225" height="225" viewBox="0 0 225 225">
  <g id="Grupo_13693" data-name="Grupo 13693" transform="translate(-0.5 0.5)">
    <circle id="Elipse_371" data-name="Elipse 371" cx="112.5" cy="112.5" r="112.5" transform="translate(0.5 -0.5)" fill="#071c46"/>
    <g id="Polígono_3" data-name="Polígono 3" transform="translate(174.15 58.95) rotate(90)" fill="#fff">
      <path d="M 96.7547607421875 93.09999847412109 L 10.34525299072266 93.09999847412109 C 8.36141300201416 93.09999847412109 6.582826137542725 92.07546234130859 5.587532520294189 90.35935974121094 C 4.592226028442383 88.64326477050781 4.586172580718994 86.59070587158203 5.571319103240967 84.86875915527344 L 48.77606582641602 9.351210594177246 C 49.76795959472656 7.617503643035889 51.5526008605957 6.582450389862061 53.54999923706055 6.582450389862061 C 55.54738616943359 6.582450389862061 57.33203887939453 7.617503643035889 58.32390594482422 9.351210594177246 L 101.528678894043 84.86875915527344 C 102.5138244628906 86.59070587158203 102.5077743530273 88.64326477050781 101.5124664306641 90.35936737060547 C 100.5171737670898 92.07546234130859 98.73858642578125 93.09999847412109 96.7547607421875 93.09999847412109 Z" stroke="none"/>
      <path d="M 53.54999923706055 7.082450866699219 C 51.73418426513672 7.082450866699219 50.11177444458008 8.023406982421875 49.21006774902344 9.599502563476562 L 6.005317687988281 85.11705017089844 C 5.109718322753906 86.68246459960938 5.115226745605469 88.54842376708984 6.020050048828125 90.1085205078125 C 6.92486572265625 91.66859436035156 8.541755676269531 92.59999847412109 10.34523773193359 92.59999847412109 L 96.75474548339844 92.59999847412109 C 98.55824279785156 92.59999847412109 100.1751327514648 91.66859436035156 101.079948425293 90.1085205078125 C 101.9847717285156 88.54842376708984 101.9902648925781 86.68244934082031 101.0946807861328 85.11705017089844 L 57.88991928100586 9.599502563476562 C 56.98821258544922 8.023406982421875 55.36581420898438 7.082450866699219 53.54999923706055 7.082450866699219 M 53.54999923706055 6.082450866699219 C 55.57793426513672 6.082450866699219 57.60587310791016 7.089271545410156 58.75790405273438 9.102920532226562 L 101.9626693725586 84.62046813964844 C 104.251106262207 88.62042236328125 101.3630676269531 93.59999847412109 96.75474548339844 93.59999847412109 L 10.34523773193359 93.59999847412109 C 5.736930847167969 93.59999847412109 2.848892211914062 88.62042236328125 5.1373291015625 84.62046813964844 L 48.34207916259766 9.102920532226562 C 49.49411773681641 7.089271545410156 51.52206039428711 6.082450866699219 53.54999923706055 6.082450866699219 Z" stroke="none" fill="#707070"/>
    </g>
  </g>
</svg>
