<svg xmlns="http://www.w3.org/2000/svg" width="85.155" height="85.155" viewBox="0 0 85.155 85.155">
  <g id="Grupo_13587" data-name="Grupo 13587" transform="translate(-564.856 -4154.03)">
    <circle id="Elipse_356" data-name="Elipse 356" cx="42.577" cy="42.577" r="42.577" transform="translate(564.856 4154.03)"/>
    <g id="Grupo_13586" data-name="Grupo 13586" transform="translate(586.893 4171.884)">
      <path id="Trazado_5197" data-name="Trazado 5197" d="M4889.684,2271.619a17.753,17.753,0,0,1-1.1,2.908,6.656,6.656,0,0,1-5.955,3.481c-9.057.045-18.114.019-27.169.02-.073,0-.145-.014-.355-.036a9.449,9.449,0,0,0,3.476-7.423c.237-.011.425-.029.614-.03q14.984,0,29.968,0c.175,0,.349.019.523.03Z" transform="translate(-4842.192 -2228.588)" fill="#fff"/>
      <path id="Trazado_5198" data-name="Trazado 5198" d="M4748.79,1969.011c11.329,0,21.048,0,32.379,0a4.726,4.726,0,0,1,4.634,2.726,5.618,5.618,0,0,1,.529,2.294q.181,17.2.288,34.4c0,.171,0,.342,0,.581h-21.949c-1.157,0-1.466.286-1.438,1.445a7.461,7.461,0,0,1-3.02,6.6,7.177,7.177,0,0,1-11.294-4.562,11.214,11.214,0,0,1-.128-1.855c-.008-11.7-.031-23.4.015-35.1Zm19.98,11.42c.013-.712-.294-1.076-.88-1.171-1.246-.2-2.492-.4-3.745-.552a.821.821,0,0,1-.726-.544c-.517-1.086-1.059-2.16-1.583-3.243a1.017,1.017,0,0,0-1.961.01c-.531,1.1-1.061,2.2-1.633,3.283a1.017,1.017,0,0,1-.631.459c-1.2.215-2.416.383-3.626.553a1.054,1.054,0,0,0-1.013.732,1.071,1.071,0,0,0,.416,1.132c.836.813,1.655,1.644,2.512,2.433a.983.983,0,0,1,.348,1.018c-.219,1.144-.386,2.3-.6,3.441a1.113,1.113,0,0,0,.325,1.213,1.086,1.086,0,0,0,1.3-.036c1.06-.568,2.116-1.145,3.2-1.674a1.014,1.014,0,0,1,.785.006c1.1.538,2.173,1.121,3.251,1.7a1.054,1.054,0,0,0,1.2.036,1.041,1.041,0,0,0,.377-1.142c-.208-1.165-.381-2.337-.607-3.5a1.013,1.013,0,0,1,.343-1.064c.858-.789,1.685-1.612,2.5-2.443A3.7,3.7,0,0,0,4768.771,1980.431Zm-.99,17.738q-6.907,0-13.811,0a2.843,2.843,0,0,0-.749.072.875.875,0,0,0-.677.908.866.866,0,0,0,.688.9,3.363,3.363,0,0,0,.806.077q13.754.005,27.506,0c.136,0,.273,0,.408,0,.674-.035,1.1-.4,1.117-.956.016-.569-.438-.973-1.127-1-.155-.006-.312,0-.467,0Zm.038-2.783q6.875,0,13.751,0a4.077,4.077,0,0,0,.7-.028.943.943,0,0,0-.01-1.861,4.552,4.552,0,0,0-.7-.031q-13.75,0-27.5,0c-.155,0-.31,0-.466,0-.662.035-1.076.426-1.055.992a.977.977,0,0,0,1.064.925c.174.007.349,0,.524,0Zm-4.906,7.519q-4.489,0-8.977,0c-.936,0-1.386.308-1.4.946-.012.657.45.978,1.421.978q8.977,0,17.953,0a2.917,2.917,0,0,0,.7-.041.944.944,0,0,0-.024-1.839,3.433,3.433,0,0,0-.695-.042Q4767.4,2002.9,4762.913,2002.905Z" transform="translate(-4748.777 -1969.01)" fill="#fff"/>
      <path id="Trazado_5200" data-name="Trazado 5200" d="M4814.73,2032.541c.784-.116,1.526-.255,2.277-.33a1.568,1.568,0,0,0,1.429-1c.314-.725.7-1.422,1.081-2.2.4.808.78,1.525,1.11,2.265a1.482,1.482,0,0,0,1.295.926c.786.093,1.569.222,2.338.334-.576.614-1.111,1.223-1.689,1.788a1.484,1.484,0,0,0-.467,1.518c.173.773.27,1.562.417,2.453a14.244,14.244,0,0,1-1.63-.863,2.175,2.175,0,0,0-2.78.014,14.611,14.611,0,0,1-1.592.85c.15-.927.261-1.759.426-2.581a1.341,1.341,0,0,0-.417-1.314C4815.94,2033.811,4815.371,2033.2,4814.73,2032.541Z" transform="translate(-4807.437 -2020.661)" fill="#fff"/>
    </g>
  </g>
</svg>
