<svg xmlns="http://www.w3.org/2000/svg" width="42.738" height="38.466" viewBox="0 0 42.738 38.466">
  <path id="Icon_awesome-waze" data-name="Icon awesome-waze" d="M43.007,16.818c1.247,7.372-2.657,14.418-9.717,17.87a4.438,4.438,0,1,1-8.577,1.82c-.553.016-5.512,0-6.554-.055a4.441,4.441,0,1,1-8.653-1.576A17.849,17.849,0,0,1,.953,28.8a2.244,2.244,0,0,1,1.789-3.589c3.976,0,2.766-4.651,3.7-9.467C8.029,7.676,16.471,2.25,24.626,2.25c8.8,0,16.928,6.068,18.381,14.568ZM31.96,32.841a15.573,15.573,0,0,0,8.268-8.77C43.7,13.5,34.72,4.494,24.626,4.494,17.46,4.494,10,9.253,8.649,16.172c-.818,4.2.429,11.278-5.9,11.278a15.872,15.872,0,0,0,8.048,5.5,4.44,4.44,0,0,1,6.854,1.231c1.221.086,6.8.1,7.547.07a4.438,4.438,0,0,1,6.764-1.41ZM17.5,15.57a2.183,2.183,0,1,1,4.365,0,2.183,2.183,0,1,1-4.365,0Zm10.009,0a2.184,2.184,0,1,1,4.367,0A2.184,2.184,0,1,1,27.511,15.57Zm-10.528,6.07a1.122,1.122,0,0,1,2.2-.447l.005.024c.355,1.839,2.563,3.778,5.505,3.7,3.064-.081,5.087-1.907,5.5-3.672a1.125,1.125,0,0,1,2.187.515c-.449,1.9-2.68,5.323-7.853,5.4-3.653,0-6.944-2.39-7.547-5.517Z" transform="translate(-0.499 -2.25)" fill="#fff"/>
</svg>
