<svg xmlns="http://www.w3.org/2000/svg" width="28.952" height="28.952" viewBox="0 0 28.952 28.952">
  <path id="Icon_awesome-phone-alt" data-name="Icon awesome-phone-alt" d="M28.126,20.459l-6.333-2.714a1.357,1.357,0,0,0-1.583.39l-2.8,3.427a20.96,20.96,0,0,1-10.02-10.02l3.427-2.8a1.354,1.354,0,0,0,.39-1.583L8.488.821A1.366,1.366,0,0,0,6.933.035L1.052,1.392A1.357,1.357,0,0,0,0,2.714,26.235,26.235,0,0,0,26.238,28.953,1.357,1.357,0,0,0,27.561,27.9l1.357-5.881A1.374,1.374,0,0,0,28.126,20.459Z" transform="translate(0 0)"/>
</svg>
