<svg xmlns="http://www.w3.org/2000/svg" width="145" height="149" viewBox="0 0 145 149">
  <g id="Grupo_13702" data-name="Grupo 13702" transform="translate(-994 -4702)">
    <ellipse id="Elipse_359" data-name="Elipse 359" cx="72.5" cy="74.5" rx="72.5" ry="74.5" transform="translate(994 4702)" fill="#f1f1f1"/>
    <g id="Grupo_13669" data-name="Grupo 13669" transform="translate(-6777.582 3922.642)">
      <path id="Trazado_5300" data-name="Trazado 5300" d="M8020.129,925.664s15.723,3.019,24.285-6.34,7.2-14.29,7.2-14.29S8023.307,900.405,8020.129,925.664Z" transform="translate(-165.549 -79.688)" fill="#00b050"/>
      <path id="Trazado_5301" data-name="Trazado 5301" d="M7898.575,925.664s-15.723,3.019-24.286-6.34-7.2-14.29-7.2-14.29S7895.4,900.405,7898.575,925.664Z" transform="translate(-55.661 -79.688)" fill="#00b050"/>
      <path id="Trazado_5302" data-name="Trazado 5302" d="M7974.84,842.469s-11.076-11.561-7.87-23.834,8.088-13.807,8.088-13.807S7994.32,826.08,7974.84,842.469Z" transform="translate(-126.981 -8.012)" fill="#00b050"/>
      <g id="Grupo_13668" data-name="Grupo 13668" transform="translate(7789.452 793.664)">
        <path id="Trazado_5303" data-name="Trazado 5303" d="M7806.26,902.006a6.29,6.29,0,0,1-3.233-3.031q-6.277-10.954-12.611-21.874c-1.755-3.042-1.107-5.553,1.891-7.32,1.031-.608,2.063-1.217,3.11-1.8a4.414,4.414,0,0,1,4.892.153,1.33,1.33,0,0,0,1.622.037c3.519-2,7.042-4,10.6-5.928a18.246,18.246,0,0,1,15-1.392,2.291,2.291,0,0,0,1.986-.2,38.4,38.4,0,0,1,15.472-4.593c.315-.023.626-.107.94-.135.472-.042.583-.271.471-.714a13.825,13.825,0,0,0-3.531-6.279c-.524-.544-1.2-.356-1.8-.293a33.791,33.791,0,0,1-10.912-.678c-11.543-2.567-18.653-11.184-20.712-21.883a2.667,2.667,0,0,1,2.526-3.145c9.735.054,18.835,2.094,26.186,9.02a20.893,20.893,0,0,1,6.335,12.377,6.3,6.3,0,0,0,2.069,3.538c.325-.344.187-.713.187-1.041.013-3.276-.021-6.552.027-9.827a2.805,2.805,0,0,0-.926-2.219,23.261,23.261,0,0,1-7.014-17.954c.21-6.753,2.453-12.959,5.625-18.857.549-1.023,1.124-2.038,1.77-3a2.479,2.479,0,0,1,4.368.006c4,6.492,6.869,13.384,7.318,21.124a23.562,23.562,0,0,1-7.155,18.924,1.812,1.812,0,0,0-.688,1.354c.02,3.908.01,7.817.01,12.059.937-1.375,2.157-2.119,2.388-3.709,1.1-7.572,5.223-13.084,11.771-16.858A39.529,39.529,0,0,1,7880.2,823.1a37.244,37.244,0,0,1,4.427-.2,2.765,2.765,0,0,1,2.859,3.5,29.585,29.585,0,0,1-7.111,14.062,2.174,2.174,0,0,1-1.7.919,1.66,1.66,0,0,1-1.288-2.634,15.315,15.315,0,0,1,1.3-1.522,24.869,24.869,0,0,0,4.714-8.872c-2.938.727-23.138,14.411-24.9,16.911a26.052,26.052,0,0,0,7.041-.5,25.436,25.436,0,0,0,6.2-2.055,1.751,1.751,0,0,1,2.531.657c.441.917.049,1.839-1.075,2.4a29.578,29.578,0,0,1-10.536,2.852,33.846,33.846,0,0,1-7.165-.011,1.829,1.829,0,0,0-1.743.718,14.823,14.823,0,0,0-2.941,5.2c-.421,1.314-.355,1.441,1.024,1.534a37.337,37.337,0,0,1,7.467,1.344,41.212,41.212,0,0,1,15.489,8.381c1.351,1.129,2.778,2.167,4.112,3.314a1.4,1.4,0,0,0,1.89.16,5.455,5.455,0,0,1,4.11-.935,5.709,5.709,0,0,1,2.34,10.065c-5.975,4.177-12,8.287-18.023,12.387a12.384,12.384,0,0,1-5.91,1.763q-9.132.924-18.263,1.873c-2.134.219-4.268.45-6.4.641a11.193,11.193,0,0,1-4.47-.6c-4.287-1.387-8.585-2.741-12.863-4.155a3.27,3.27,0,0,0-3.58.821,5.122,5.122,0,0,1-.552.492c-1.1.784-1.81,1.554-1.411,3.184a4.091,4.091,0,0,1-2.181,4.548,43.221,43.221,0,0,1-4.792,2.671Zm15.256-38.679a13.466,13.466,0,0,0-6.934,1.689c-3.683,2-7.317,4.085-10.986,6.106-.589.324-.619.621-.287,1.156a31.372,31.372,0,0,1,1.551,2.761,1.619,1.619,0,0,1-.679,2.268,1.645,1.645,0,0,1-2.213-.616,6.9,6.9,0,0,1-.388-.629c-.849-1.461-1.677-2.935-2.55-4.382a1.384,1.384,0,0,0-2.207-.582c-.923.513-1.832,1.052-2.742,1.589-1.451.855-1.556,1.262-.728,2.7q3.384,5.852,6.765,11.706,3.013,5.213,6.028,10.424c.794,1.368,1.236,1.477,2.634.685.949-.538,1.909-1.062,2.834-1.639.977-.609,1.107-1.105.557-2.11-.692-1.266-1.43-2.507-2.151-3.758-1.423-2.471-2.861-4.934-4.267-7.416a1.674,1.674,0,0,1,.465-2.406,1.708,1.708,0,0,1,2.441.678c.117.175.226.357.331.539q1.793,3.112,3.582,6.226c1.058,1.845,1.11,1.906,2.672.436a6.96,6.96,0,0,1,7.511-1.58c3.978,1.314,7.978,2.56,11.952,3.877a10.248,10.248,0,0,0,4.259.536c2.275-.22,4.549-.458,6.823-.692q7.869-.81,15.739-1.628c2.091-.221,4.243-.225,6.08-1.486q8.708-5.978,17.411-11.968a2.246,2.246,0,0,0,.659-3.164c-.631-1.033-1.676-1.249-2.937-.585-3.177,1.674-6.4,3.277-9.514,5.054a28.925,28.925,0,0,1-13.883,3.854c-2.986.071-5.968.356-8.951.551-2.316.152-4.631.346-6.948.457a1.657,1.657,0,0,1-1.854-1.5,1.714,1.714,0,0,1,1.522-1.836,5.563,5.563,0,0,1,.835-.112c4.775-.3,9.55-.61,14.326-.868.817-.044,1.043-.355.957-1.1a4.538,4.538,0,0,0-3.707-3.841c-3.035-.388-6.068-.818-9.115-1.075a22.145,22.145,0,0,1-10.917-3.523,23.531,23.531,0,0,0-3.811-2.046C7828.493,864.675,7825.3,863.242,7821.516,863.327Zm11.25-.49a57.839,57.839,0,0,1,6.2,3.35,10.371,10.371,0,0,0,4.118,1.554c4.328.534,8.665,1.01,12.978,1.65,3.23.479,5.237,2.5,6.3,5.553.261.751-.115,1.9.836,2.194.767.236,1.641-.239,2.46-.439.17-.042.338-.1.506-.15,3.444-1.116,6.467-3.1,9.674-4.706.688-.344.28-.64-.063-.916q-2.061-1.652-4.128-3.3c-9.874-7.811-20.927-10.074-33.1-6.982A28.485,28.485,0,0,0,7832.766,862.837Zm-19.117-34.513c1.9,6.193,5.411,11.073,11.174,14.114a25.251,25.251,0,0,0,13.683,2.734A155.987,155.987,0,0,0,7813.649,828.324Zm33.07-26.914a36.443,36.443,0,0,0-4.353,13.819,20.734,20.734,0,0,0,3.554,14.417,1.938,1.938,0,0,0,.8.842Zm3.447-.293v29.468a15.774,15.774,0,0,0,2.229-3.392,21.736,21.736,0,0,0,2.02-12.409A41.274,41.274,0,0,0,7850.167,801.117Zm28.7,25.721c-10.671,1.109-20.1,6.8-22.189,15.23,3.558-2.807,7.069-5.432,10.688-7.913C7871.022,831.646,7874.777,829.289,7878.866,826.839Zm-38.551,15.081a18.567,18.567,0,0,0-8.606-10.722c-3.717-2.249-11.231-4.627-13.3-4.2A206.15,206.15,0,0,1,7840.315,841.92Z" transform="translate(-7789.452 -793.664)" fill="#0067b3"/>
      </g>
    </g>
  </g>
</svg>
