<svg xmlns="http://www.w3.org/2000/svg" width="144" height="149" viewBox="0 0 144 149">
  <g id="Grupo_13703" data-name="Grupo 13703" transform="translate(-1206 -4702)">
    <ellipse id="Elipse_362" data-name="Elipse 362" cx="72" cy="74.5" rx="72" ry="74.5" transform="translate(1206 4702)" fill="#f1f1f1"/>
    <g id="Grupo_13671" data-name="Grupo 13671" transform="translate(-7002.637 3934.592)">
      <path id="Trazado_5304" data-name="Trazado 5304" d="M8354.435,923.071l15.254-14.911-6.441-5.368-8.812,7.1-4.787-2.266-4.114,1.193-1.85,3.669Z" transform="translate(-75.731 -81.665)" fill="#00b050"/>
      <g id="Grupo_13670" data-name="Grupo 13670" transform="translate(8242.573 793.76)">
        <path id="Trazado_5305" data-name="Trazado 5305" d="M8259.409,890.056a3.079,3.079,0,0,1-1.251-1.912c-.781-3-1.613-5.982-2.378-8.983-.183-.719-.472-.867-1.169-.673-3.046.844-6.106,1.632-9.155,2.462a2.041,2.041,0,0,1-2.436-3.143c3.73-6.45,7.437-12.914,11.2-19.348.5-.855.564-1.38-.222-2.142a10.016,10.016,0,0,1-2.883-5.786,7.766,7.766,0,0,0-2.8-4.936,10.848,10.848,0,0,1-3.385-12.607,7.993,7.993,0,0,0,0-5.588,10.822,10.822,0,0,1,3.367-12.613,7.963,7.963,0,0,0,2.83-5.025,10.874,10.874,0,0,1,8.924-9,8.453,8.453,0,0,0,5.313-3.056,10.82,10.82,0,0,1,12.33-3.208,7.931,7.931,0,0,0,5.673.038,10.92,10.92,0,0,1,12.742,3.5,7.755,7.755,0,0,0,4.8,2.691,10.78,10.78,0,0,1,9.12,9.105,8.226,8.226,0,0,0,3.032,5.118,10.728,10.728,0,0,1,3.372,11.8,9.549,9.549,0,0,0,0,6.837,10.67,10.67,0,0,1-3.286,11.737,8.42,8.42,0,0,0-3.153,5.459,9.59,9.59,0,0,1-2.814,5.514,1.357,1.357,0,0,0-.2,2c3.784,6.491,7.525,13.007,11.288,19.511a2.179,2.179,0,0,1,.143,2.389,2.036,2.036,0,0,1-2.488.771c-3.057-.8-6.115-1.6-9.156-2.459-.787-.222-1.081-.065-1.282.745-.725,2.915-1.538,5.807-2.3,8.713a3.244,3.244,0,0,1-1.306,2.091h-1.691a5.938,5.938,0,0,1-1.216-1.533q-6.091-10.575-12.205-21.138c-.237-.411-.441-.845-.987-.91a16.192,16.192,0,0,1-3.067-.851,6.893,6.893,0,0,0-4.424.045,11.73,11.73,0,0,1-2.24.677,2.007,2.007,0,0,0-1.622,1.2q-5.578,9.733-11.211,19.435a10.158,10.158,0,0,1-2.108,3.077Zm27.742-27.456a7.152,7.152,0,0,0,5.994-2.886,10.88,10.88,0,0,1,6.938-3.933,6.89,6.89,0,0,0,6.017-5.76,12.1,12.1,0,0,1,4.3-7.565,6.8,6.8,0,0,0,2.114-8.122,11.713,11.713,0,0,1-.025-8.255,6.909,6.909,0,0,0-2.257-8.327,11.567,11.567,0,0,1-4.1-7.27,6.944,6.944,0,0,0-5.822-5.849,11.554,11.554,0,0,1-7.218-4.01c-2.481-2.885-5.024-3.534-8.647-2.271a11.265,11.265,0,0,1-7.809-.039,7.015,7.015,0,0,0-8.509,2.237,11.486,11.486,0,0,1-7.087,4.056,6.81,6.81,0,0,0-5.981,5.779,12.225,12.225,0,0,1-4.331,7.549,6.817,6.817,0,0,0-2.085,8.057,11.536,11.536,0,0,1-.024,8.422,6.918,6.918,0,0,0,2.2,8.114,11.379,11.379,0,0,1,4.162,7.126,6.985,6.985,0,0,0,6.1,6.121,11.4,11.4,0,0,1,7.134,4.15,6.94,6.94,0,0,0,8.2,2.2,11.139,11.139,0,0,1,8.241-.028A5.964,5.964,0,0,0,8287.151,862.6Zm25.415,13.365c-.273-.517-.408-.793-.562-1.058q-4.037-6.991-8.077-13.979c-.944-1.635-.934-1.562-2.794-1.313a7.962,7.962,0,0,0-5.37,3.105,9.538,9.538,0,0,1-4.215,3.038c-.757.277-.861.536-.446,1.247,2.951,5.052,5.858,10.129,8.788,15.194.113.2.168.489.546.49.087-.288.183-.579.263-.875.556-2.052,1.09-4.111,1.665-6.158a2.032,2.032,0,0,1,2.817-1.652c.365.088.727.188,1.09.285Zm-63.8-.157a2.861,2.861,0,0,0,1.341-.2c2-.526,3.984-1.078,5.981-1.593a2.029,2.029,0,0,1,2.829,1.632c.4,1.382.746,2.778,1.123,4.166.265.978.542,1.953.834,3,.178-.156.27-.2.313-.278q4.581-7.92,9.163-15.84c.309-.531,0-.629-.384-.771a11.632,11.632,0,0,1-5.061-3.755,6.543,6.543,0,0,0-3.669-2.3,14.338,14.338,0,0,1-1.739-.372c-.885-.333-1.345-.027-1.784.759-1.57,2.813-3.209,5.588-4.818,8.379C8251.534,870.985,8250.183,873.339,8248.762,875.807Z" transform="translate(-8242.573 -793.76)" fill="#0067b3"/>
        <path id="Trazado_5306" data-name="Trazado 5306" d="M8345.508,872.947a24.49,24.49,0,1,1-34.086-22.552,2.745,2.745,0,0,1,1.818-.291,1.953,1.953,0,0,1,.426,3.613c-1.049.558-2.172.967-3.187,1.6a20.059,20.059,0,0,0-9.892,15.961,20.547,20.547,0,1,0,28.354-17.312c-1.347-.559-1.868-1.625-1.4-2.734a2.021,2.021,0,0,1,2.941-.9c8.414,3.782,13.405,10.21,14.862,19.344a10.155,10.155,0,0,1,.154,1.209C8345.526,871.569,8345.508,872.258,8345.508,872.947Z" transform="translate(-8282.979 -835.914)" fill="#0067b3"/>
        <path id="Trazado_5307" data-name="Trazado 5307" d="M8364.189,899.278a2.277,2.277,0,0,1-.742,1.574q-7.434,7.443-14.883,14.873a1.993,1.993,0,0,1-3.147.042q-5.386-5.306-10.69-10.694a1.92,1.92,0,0,1,.044-3.056q2.736-2.778,5.512-5.514a1.957,1.957,0,0,1,3.119-.024c.991.956,1.979,1.918,2.916,2.928.474.51.765.529,1.268.015,2.274-2.329,4.591-4.619,6.9-6.918,1.45-1.446,2.341-1.44,3.8.02q2.559,2.556,5.113,5.115A2.226,2.226,0,0,1,8364.189,899.278Zm-22.4,1.37c-.111.092-.264.2-.394.326-.689.682-1.355,1.389-2.067,2.048-.422.391-.408.665,0,1.067q3.573,3.528,7.1,7.1c.407.412.672.391,1.069-.009q5.691-5.725,11.416-11.415c.425-.422.367-.694-.034-1.066a23.468,23.468,0,0,1-1.854-1.862c-.5-.575-.815-.51-1.327.014-2.339,2.394-4.717,4.751-7.093,7.109-1.168,1.159-2.134,1.147-3.317-.018-.958-.944-1.9-1.9-2.855-2.852C8342.261,900.918,8342.122,900.689,8341.787,900.647Z" transform="translate(-8311.044 -866.909)" fill="#0067b3"/>
        <path id="Trazado_5308" data-name="Trazado 5308" d="M8390.389,845.613a1.937,1.937,0,1,1-3.873.111,1.939,1.939,0,1,1,3.873-.111Z" transform="translate(-8350.385 -831.136)" fill="#0067b3"/>
      </g>
    </g>
  </g>
</svg>
