<svg xmlns="http://www.w3.org/2000/svg" width="145" height="149" viewBox="0 0 145 149">
  <g id="Grupo_13699" data-name="Grupo 13699" transform="translate(-358 -4702)">
    <ellipse id="Elipse_327" data-name="Elipse 327" cx="72.5" cy="74.5" rx="72.5" ry="74.5" transform="translate(358 4702)" fill="#f1f1f1"/>
    <g id="Grupo_13660" data-name="Grupo 13660" transform="translate(-6101.754 3930.48)">
      <path id="Trazado_5275" data-name="Trazado 5275" d="M6495.683,1057.228l8.772-8.772,22.7,22.418-8.687,9.138Z" transform="translate(-4.408 -189.33)" fill="#00b050"/>
      <path id="Trazado_5329" data-name="Trazado 5329" d="M10.082,0A10.082,10.082,0,1,1,0,10.082,10.082,10.082,0,0,1,10.082,0Z" transform="translate(6554.264 803.782)" fill="#00b050"/>
      <g id="Grupo_13659" data-name="Grupo 13659" transform="translate(6489.755 793.856)">
        <path id="Trazado_5276" data-name="Trazado 5276" d="M6513.249,892.183a9.172,9.172,0,0,1-1.774-1.451q-10.134-10.15-20.281-20.287c-1.872-1.871-1.984-3.507.055-5.213,1.849-1.546,2.054-2.967,1.338-5.289a40.081,40.081,0,0,1,39.458-51.434,38.774,38.774,0,0,1,12.651,2.426c1.154.427,1.142.421,1.155-.777a32.44,32.44,0,0,1,1.813-10.723,2.534,2.534,0,0,1,3.358-1.854,6.431,6.431,0,0,0,3.9-.643c1.813-.716,3.535-1.643,5.365-2.326a11.134,11.134,0,0,1,8.327.106c1.541.62,3.042,1.339,4.568,2a7.558,7.558,0,0,0,5,.772c1.221-.305,2.315.546,2.789,1.952a31.876,31.876,0,0,1,1.641,13.214,27.789,27.789,0,0,1-6.544,15.768,29.919,29.919,0,0,1-6.426,5.722,1.316,1.316,0,0,0-.642,1.8,39.239,39.239,0,0,1-.172,25.867,1.533,1.533,0,0,0,.46,1.926,21.644,21.644,0,0,1,1.961,1.971,2.893,2.893,0,0,1-.046,4.292c-2.709,2.763-5.457,5.488-8.2,8.213a1.571,1.571,0,1,1-2.2-2.189c2.451-2.479,4.905-4.954,7.4-7.388.629-.613.651-.992.006-1.613-2-1.929-3.961-3.908-5.906-5.9-.482-.493-.79-.552-1.313-.027q-10.017,10.064-20.08,20.081c-.451.449-.445.717,0,1.155q3.116,3.057,6.173,6.174c.468.477.771.475,1.24,0,2.287-2.326,4.6-4.625,6.913-6.926,1.083-1.079,2.01-1.266,2.737-.576.756.717.57,1.675-.549,2.8-2.237,2.24-4.482,4.473-6.711,6.721a11.878,11.878,0,0,1-1.971,1.662h-1.919a6.015,6.015,0,0,1-1.764-1.3c-.947-.952-1.916-1.882-2.84-2.855a1.48,1.48,0,0,0-1.614-.467,38.906,38.906,0,0,1-18.872.07,2.175,2.175,0,0,0-2.356.677c-1.346,1.351-2.508,2.916-4.216,3.876Zm25.686-24.719a19.485,19.485,0,0,0-4.207.2c-.272.071-.646.043-.729.354s.272.474.465.669c2.211,2.222,4.451,4.416,6.632,6.666.548.566.843.5,1.358-.018,4.3-4.338,8.639-8.639,12.942-12.974,1.713-1.726,1.752-1.136-.015-3.007-.542-.574-.92-.494-1.405.041a19.317,19.317,0,0,1-1.714,1.676,1.493,1.493,0,0,1-2.155.018,1.554,1.554,0,0,1,.034-2.237c.186-.218.4-.415.6-.619q4.715-4.716,9.427-9.435a2.728,2.728,0,0,0,.431-3.787c-.973-1.146-2.286-1.217-3.768-.205a1.634,1.634,0,0,1-2.254-.043,1.582,1.582,0,0,1,.081-2.174,2.576,2.576,0,0,0-.035-3.566,2.672,2.672,0,0,0-3.577-.14c-.969.676-1.615.708-2.243.11-.645-.614-.631-1.373.04-2.32a2.583,2.583,0,0,0-.085-3.49A2.555,2.555,0,0,0,6545.2,833c-.936.661-1.723.682-2.325.061-.584-.6-.553-1.324.1-2.249a2.645,2.645,0,0,0-.207-3.641,2.7,2.7,0,0,0-3.724.241c-.922.887-1.813,1.8-2.718,2.709-1.634,1.634-1.685,1.689,0,3.251a5.713,5.713,0,0,1-2.241,9.941.558.558,0,0,0-.521.736,5.667,5.667,0,0,1-7.2,6.16c-.528-.138-.713.058-.916.513a5.572,5.572,0,0,1-7.209,3.316c-.614-.181-.834,0-1.087.518a5.568,5.568,0,0,1-7.3,2.946.969.969,0,0,0-1.183.266c-.888.921-1.777,1.844-2.719,2.708-.557.51-.444.833.039,1.312q6.671,6.627,13.3,13.3c.538.542.874.525,1.4-.009,2.147-2.195,4.347-4.337,6.5-6.527a13.45,13.45,0,0,1,10.519-4.233c1.084.041,2.171.127,3.252.086a10.41,10.41,0,0,0,4.306-1.2,1.529,1.529,0,0,1,2.365,1.051,1.611,1.611,0,0,1-1,1.693A13.312,13.312,0,0,1,6538.935,867.464Zm-8.59-55.85a29.9,29.9,0,0,0-4.547.373,35.716,35.716,0,0,0-23.526,13.351c-8.034,10.064-10.149,21.452-6.771,33.866.36,1.323.378,1.318,1.382.318.294-.293.587-.589.882-.881,1.725-1.7,3.087-1.761,4.923-.155.374.327.6.345.947-.013.886-.922,1.784-1.835,2.716-2.71.439-.413.4-.689-.011-1.087-1.06-1.02-2.119-2.044-3.116-3.125a5.663,5.663,0,0,1,2.055-9.256c.654-.262.686-.556.561-1.141a5.563,5.563,0,0,1,4.5-6.767,1.365,1.365,0,0,0,1.322-1.306,5.513,5.513,0,0,1,4.94-4.637c.615-.07.769-.3.85-.873a5.272,5.272,0,0,1,3.836-4.689,25.213,25.213,0,0,1,5.3-.922c2.292-.154,4.6-.049,6.905-.033a5.426,5.426,0,0,1,3.8,1.365,1.72,1.72,0,0,0,2.023.416,5.6,5.6,0,0,1,7.351,4.662c.08.667.369.844.931.954,2.88.563,4.4,2.037,4.933,4.871.131.7.414.9,1.092,1.007a5.493,5.493,0,0,1,4.75,4.83c.076.769.415.984,1.065,1.035a4.74,4.74,0,0,1,2.313.852c3.064,2.079,3.429,6.067.772,8.918-1.33,1.426-2.76,2.758-4.122,4.154-1.69,1.734-1.735,1.165.023,3.017.478.5.8.512,1.34.058a2.829,2.829,0,0,1,3.853.037c.538.45,1.025.962,1.526,1.455.9.886.946.876,1.333-.368.028-.092.051-.185.078-.277a37.139,37.139,0,0,0,1.3-13.755,33.735,33.735,0,0,0-1.647-7.961c-.184-.549-.374-.736-.942-.448a2.228,2.228,0,0,1-2.122-.092c-8.576-4.519-14.618-11.076-16.653-20.819a1.6,1.6,0,0,0-1.061-1.309A37.976,37.976,0,0,0,6530.345,811.615ZM6579.633,810a28.206,28.206,0,0,0-1.205-8.424c-.154-.528-.341-.967-1.034-.854a7.684,7.684,0,0,1-3.576-.466,36.737,36.737,0,0,1-5.107-2.193,9.544,9.544,0,0,0-8.933.068c-1.343.669-2.727,1.265-4.116,1.833a8.575,8.575,0,0,1-4.483.753c-.646-.091-.828.307-.972.8a28.516,28.516,0,0,0-.726,13.65c1.442,7.332,5.611,12.808,11.787,16.784,3.706,2.386,2.363,2.218,5.979.1.028-.016.056-.031.083-.049C6575.2,826.782,6579.547,819.581,6579.633,810Zm-86.522,57.945c.12.138.254.314.41.47q10.066,10.07,20.128,20.145c.434.435.719.475,1.168.017q3.124-3.181,6.306-6.3c.445-.437.344-.691-.047-1.08q-10.083-10.053-20.137-20.136c-.43-.432-.724-.483-1.174-.025-2.084,2.119-4.2,4.211-6.295,6.316A.85.85,0,0,0,6493.11,867.948Zm45.8,16.812c-.3-.32-.452-.481-.6-.642-1.492-1.6-1.479-3.166.042-4.709a4.511,4.511,0,0,1,.477-.471c.66-.5.666-.907.038-1.517q-3.712-3.607-7.318-7.323c-.62-.641-.976-.537-1.527.025-2.1,2.143-4.245,4.251-6.371,6.374-1.442,1.44-1.441,1.441,0,2.935.111.115.224.229.326.352a2.905,2.905,0,0,1-.1,4.075c-.235.265-.653.426-.615.95A36.571,36.571,0,0,0,6538.915,884.761Zm-21.507-53.217a2.549,2.549,0,0,0-1.96,4.392q5.274,5.3,10.576,10.575a2.575,2.575,0,1,0,3.6-3.67c-3.486-3.519-7-7.01-10.5-10.516A2.281,2.281,0,0,0,6517.407,831.544Zm-8.571,8.528a2.364,2.364,0,0,0,.835,1.822q4.276,4.261,8.539,8.534a2.6,2.6,0,0,0,4.224-.521,2.471,2.471,0,0,0-.463-3c-1.9-1.943-3.828-3.851-5.748-5.77-1.039-1.039-2.062-2.094-3.134-3.1a2.4,2.4,0,0,0-2.845-.42A2.442,2.442,0,0,0,6508.836,840.071Zm23.792.264a2.353,2.353,0,0,0,2.347-1.323,2.394,2.394,0,0,0-.279-2.782c-.7-.828-1.505-1.562-2.237-2.363a1.668,1.668,0,0,0-1.357-.552,17.922,17.922,0,0,1-3.058-.089,6.636,6.636,0,0,1-5.614-6.467c-.022-.3.125-.711-.273-.835-.333-.1-.592.181-.824.4a2.584,2.584,0,0,0-.132,3.627c3.2,3.257,6.444,6.472,9.683,9.691A2.305,2.305,0,0,0,6532.628,840.335Zm-25.336,4.685a2.515,2.515,0,0,0-2.305,1.445,2.363,2.363,0,0,0,.4,2.846c1.56,1.646,3.148,3.269,4.807,4.814a2.5,2.5,0,0,0,3.619-.061,2.556,2.556,0,0,0-.094-3.693c-1.488-1.538-3.018-3.037-4.538-4.545A2.506,2.506,0,0,0,6507.292,845.021Zm22.941-19.952q-1.822,0-3.645,0c-.446,0-.88.087-.964.593-.365,2.192.645,4.087,2.651,4.43,1.952.334,3.966.482,5.313-1.556A10.254,10.254,0,0,1,6535,827.1c.955-.956.844-1.441-.467-1.881a3.471,3.471,0,0,0-1.034-.146C6532.407,825.055,6531.32,825.066,6530.233,825.069Z" transform="translate(-6489.755 -793.856)" fill="#0067b3"/>
        <path id="Trazado_5277" data-name="Trazado 5277" d="M6747.246,848.28a11.48,11.48,0,0,1-2.33-22.755,11.429,11.429,0,0,1,12.875,7.02,4.428,4.428,0,0,1,.306,1.2,1.483,1.483,0,0,1-2.762.857,5.742,5.742,0,0,1-.426-.962,8.4,8.4,0,1,0-.392,7.158c.136-.253.25-.519.389-.771a1.537,1.537,0,1,1,2.769,1.306,11.309,11.309,0,0,1-8.292,6.747A8.372,8.372,0,0,1,6747.246,848.28Z" transform="translate(-6672.563 -817.248)" fill="#0067b3"/>
        <path id="Trazado_5278" data-name="Trazado 5278" d="M6768.584,856.02a1.9,1.9,0,0,1-.625,1.282c-1.719,1.718-3.425,3.449-5.161,5.149a1.512,1.512,0,0,1-2.432.014q-1.963-1.9-3.866-3.866a1.523,1.523,0,0,1-.153-2.229,1.553,1.553,0,0,1,2.3.055c.743.7,1.493,1.406,2.166,2.174.54.616.9.692,1.5.033,1.141-1.25,2.374-2.418,3.587-3.6a1.5,1.5,0,0,1,1.764-.344A1.542,1.542,0,0,1,6768.584,856.02Z" transform="translate(-6687.694 -838.981)" fill="#0067b3"/>
      </g>
    </g>
  </g>
</svg>
