<svg xmlns="http://www.w3.org/2000/svg" width="145" height="149" viewBox="0 0 145 149">
  <g id="Grupo_13704" data-name="Grupo 13704" transform="translate(-1418 -4702)">
    <ellipse id="Elipse_361" data-name="Elipse 361" cx="72.5" cy="74.5" rx="72.5" ry="74.5" transform="translate(1418 4702)" fill="#f1f1f1"/>
    <g id="Grupo_13672" data-name="Grupo 13672" transform="translate(-7223.049 3921.933)">
      <path id="Trazado_5309" data-name="Trazado 5309" d="M8784.612,838.317c0-1.52-.011-3.04,0-4.56.014-1.385.588-1.945,1.994-1.959,1.35-.013,2.7,0,4.052-.009.293,0,.669.058.741-.347.058-.321-.255-.449-.48-.582-1.165-.685-2.343-1.348-3.5-2.041-1.236-.74-1.47-1.528-.755-2.793q2.269-4.012,4.606-7.985a1.744,1.744,0,0,1,2.586-.727c.951.512,1.857,1.108,2.815,1.6.5.261,1.1,1.021,1.565.53.43-.455-.314-1.063-.582-1.576-.47-.9-1.018-1.753-1.509-2.638a1.807,1.807,0,0,1,.777-2.8c2.54-1.475,5.08-2.951,7.632-4.407,1.542-.879,2.247-.68,3.149.846.653,1.1,1.286,2.221,1.939,3.325.132.223.263.529.6.435s.3-.412.3-.678c.008-1.385-.006-2.77.011-4.155.015-1.342.586-1.938,1.9-1.945q4.66-.023,9.322,0a1.653,1.653,0,0,1,1.877,1.869c.021,1.249-.013,2.5.018,3.749.01.4-.237,1.017.326,1.14.515.113.631-.52.845-.871.614-1.009,1.174-2.051,1.78-3.065.747-1.249,1.531-1.492,2.788-.782q4.014,2.266,7.985,4.606a1.759,1.759,0,0,1,.706,2.667c-.669,1.212-1.38,2.4-2.061,3.606-.126.223-.345.489-.093.735s.514.027.736-.1c1.177-.664,2.34-1.353,3.518-2.014a1.8,1.8,0,0,1,2.807.751q2.278,3.891,4.507,7.809c.769,1.358.533,2.119-.832,2.928-1.1.654-2.223,1.283-3.327,1.936-.246.146-.646.244-.558.623.1.437.527.342.851.344,1.351.011,2.7-.008,4.053.011,1.272.018,1.887.6,1.894,1.852q.026,4.712,0,9.424a1.637,1.637,0,0,1-1.818,1.824c-1.418.025-2.836,0-4.255.012-.26,0-.605-.087-.718.226-.133.37.208.534.463.684,1.164.686,2.341,1.348,3.5,2.04,1.254.748,1.5,1.532.795,2.785q-2.263,4.015-4.605,7.986a1.778,1.778,0,0,1-2.751.673c-1.179-.661-2.341-1.349-3.517-2.013-.225-.126-.487-.345-.738-.106s-.038.512.087.735c.664,1.177,1.353,2.339,2.013,3.517a1.808,1.808,0,0,1-.736,2.812q-3.85,2.248-7.72,4.459c-1.473.839-2.2.622-3.071-.858-.636-1.076-1.248-2.165-1.885-3.24-.147-.249-.273-.63-.641-.546-.447.1-.329.534-.332.851-.014,1.351.008,2.7-.013,4.053a1.654,1.654,0,0,1-1.874,1.874q-4.661.026-9.321,0c-1.317-.006-1.892-.6-1.907-1.943-.016-1.317,0-2.635-.01-3.952,0-.324.1-.754-.3-.888-.442-.148-.539.317-.7.583-.691,1.16-1.342,2.345-2.041,3.5a1.686,1.686,0,0,1-2.568.734q-4.15-2.333-8.251-4.755a1.713,1.713,0,0,1-.613-2.539c.666-1.214,1.383-2.4,2.062-3.605.139-.247.408-.547.092-.815-.248-.208-.518.015-.743.143-1.146.65-2.279,1.321-3.427,1.967a1.829,1.829,0,0,1-2.883-.757q-2.191-3.766-4.36-7.543c-.937-1.639-.746-2.3.917-3.283,1.02-.6,2.051-1.174,3.066-1.781.269-.161.715-.286.575-.714-.134-.4-.567-.282-.889-.285-1.317-.012-2.635.007-3.952-.01s-1.91-.6-1.925-1.926C8784.6,841.424,8784.613,839.871,8784.612,838.317Zm39.422,22.123a3.91,3.91,0,0,1,3.229,1.8c.47.741.909,1.5,1.335,2.27a.56.56,0,0,0,.9.257c1.431-.833,2.861-1.664,4.3-2.478a.558.558,0,0,0,.238-.906q-.576-.954-1.121-1.926a3.82,3.82,0,0,1,5.253-5.331c.591.326,1.2.637,1.751,1.017.581.4.93.328,1.263-.317.511-.989,1.1-1.937,1.658-2.9,1.021-1.771,1.021-1.771-.747-2.77-2.834-1.6-3.4-3.088-2.388-6.2a1.826,1.826,0,0,1,1.936-1.437c1.249.021,2.5-.015,3.749.01.6.012.862-.21.842-.828-.029-.877-.007-1.756-.007-2.634,0-2.875,0-2.875-2.821-2.888-.1,0-.2,0-.3,0a3.776,3.776,0,0,1-2.126-6.955,21.865,21.865,0,0,1,2.183-1.282c.566-.292.6-.61.3-1.124-.8-1.334-1.576-2.677-2.324-4.039-.307-.557-.622-.6-1.127-.271-.624.4-1.275.764-1.93,1.116a3.808,3.808,0,0,1-5.244-5.214c.367-.684.751-1.361,1.167-2.016.313-.492.2-.775-.292-1.047-1.355-.757-2.706-1.526-4.034-2.331-.579-.351-.882-.219-1.185.356a18.658,18.658,0,0,1-1.413,2.338,3.764,3.764,0,0,1-6.782-2.224c-.016-.81-.028-1.622,0-2.432.021-.619-.241-.835-.842-.826-1.555.023-3.109.03-4.662,0-.691-.015-.878.3-.853.922.031.742.015,1.486,0,2.229a3.69,3.69,0,0,1-2.729,3.7,3.737,3.737,0,0,1-4.232-1.606,19.663,19.663,0,0,1-1.232-2.094c-.294-.577-.6-.717-1.181-.363q-1.992,1.206-4.038,2.325c-.572.314-.56.64-.247,1.133a23.565,23.565,0,0,1,1.208,2.109,3.794,3.794,0,0,1-5.236,5.09c-.687-.361-1.365-.744-2.018-1.164-.5-.323-.82-.306-1.131.257q-1.1,2-2.277,3.948c-.346.573-.352.936.321,1.27a16.8,16.8,0,0,1,2.258,1.351,3.714,3.714,0,0,1,1.409,4.211,3.669,3.669,0,0,1-3.575,2.626c-.811.016-1.622.021-2.432,0-.537-.013-.817.165-.811.751.017,1.621.013,3.242,0,4.864,0,.51.207.742.724.733.812-.014,1.622-.009,2.432,0a3.683,3.683,0,0,1,3.665,2.642,3.728,3.728,0,0,1-1.507,4.267,19.208,19.208,0,0,1-2.177,1.291c-.589.3-.7.61-.349,1.184.8,1.329,1.571,2.68,2.328,4.036.272.487.556.6,1.047.29q1.027-.65,2.1-1.217a3.794,3.794,0,0,1,5.216,5.11c-.378.753-.819,1.477-1.259,2.2-.261.429-.242.719.231.984q2.123,1.187,4.214,2.426c.519.307.775.129,1.033-.342a23.509,23.509,0,0,1,1.407-2.343,3.766,3.766,0,0,1,6.83,2.185c.015.81.022,1.622,0,2.432-.013.546.185.807.763.8,1.621-.018,3.242-.014,4.864,0,.518,0,.729-.225.723-.734-.012-.912-.025-1.825.012-2.736A3.786,3.786,0,0,1,8824.034,860.44Z" transform="translate(-87.347)" fill="#0067b3"/>
      <path id="Trazado_5310" data-name="Trazado 5310" d="M8674.076,964.436a2.079,2.079,0,0,1,1.351.66c.55.548,1.11,1.087,1.646,1.649a1.391,1.391,0,0,0,1.557.442c.64-.228.769-.81.787-1.4.024-.742,0-1.486.013-2.229.021-1.41.574-1.994,1.949-2q2.988-.024,5.978,0c1.334.011,1.912.593,1.938,1.913.017.776-.009,1.554.017,2.33.018.595.15,1.174.794,1.4a1.4,1.4,0,0,0,1.556-.451c.537-.562,1.084-1.114,1.651-1.644a1.749,1.749,0,0,1,2.76.012q2.181,2.116,4.3,4.3a1.725,1.725,0,0,1,0,2.685c-.526.57-1.077,1.119-1.643,1.652a1.4,1.4,0,0,0-.46,1.638c.252.624.843.731,1.436.744.776.018,1.554-.006,2.33.014,1.219.03,1.835.6,1.849,1.794q.038,3.14,0,6.282a1.621,1.621,0,0,1-1.757,1.782c-.844.029-1.689-.006-2.533.023a1.3,1.3,0,0,0-1.329.746,1.369,1.369,0,0,0,.4,1.565c.584.562,1.164,1.13,1.714,1.725a1.694,1.694,0,0,1,.051,2.608q-2.169,2.271-4.438,4.444a1.7,1.7,0,0,1-2.608,0c-.6-.547-1.165-1.127-1.727-1.712a1.394,1.394,0,0,0-1.557-.442c-.64.228-.77.809-.787,1.4-.023.776,0,1.553-.016,2.33-.026,1.273-.6,1.889-1.846,1.9q-3.091.032-6.181,0a1.644,1.644,0,0,1-1.834-1.81c-.023-.81.007-1.622-.019-2.432-.019-.594-.15-1.174-.8-1.4a1.4,1.4,0,0,0-1.555.452c-.559.586-1.125,1.169-1.725,1.713a1.7,1.7,0,0,1-2.61-.015q-2.224-2.143-4.371-4.368a1.722,1.722,0,0,1,0-2.684c.527-.57,1.08-1.118,1.644-1.652a1.413,1.413,0,0,0,.458-1.64c-.252-.624-.843-.729-1.437-.743-.742-.017-1.486,0-2.229-.011-1.345-.023-1.941-.587-1.954-1.9q-.028-3.04,0-6.079a1.659,1.659,0,0,1,1.86-1.886c.811-.02,1.622.009,2.432-.019a1.3,1.3,0,0,0,1.331-.746,1.373,1.373,0,0,0-.4-1.566c-.582-.563-1.163-1.131-1.713-1.725a1.693,1.693,0,0,1-.053-2.607c1.472-1.535,3-3.02,4.509-4.517A1.934,1.934,0,0,1,8674.076,964.436Zm.011,22.844a4.951,4.951,0,0,1-1.491,3.443c-.2.214-.589.444-.442.736a4.943,4.943,0,0,0,1.657,1.741c.546.381.8-.31,1.129-.58a4.6,4.6,0,0,1,5.091-.865,4.324,4.324,0,0,1,2.764,4.321c-.021.881.242,1.27,1.145,1.145a2.885,2.885,0,0,1,.809,0c.965.142,1.2-.3,1.188-1.206a4.442,4.442,0,0,1,3-4.37,4.551,4.551,0,0,1,5.025,1.174c.581.569.991.583,1.469-.042a1.834,1.834,0,0,1,.357-.358c.835-.618.951-1.138.131-1.995a4.62,4.62,0,0,1,3.5-7.788c.829.023,1.205-.234,1.1-1.088a2.993,2.993,0,0,1,0-.809c.146-1-.3-1.252-1.254-1.243a4.508,4.508,0,0,1-4.536-3.725,4.758,4.758,0,0,1,1.405-4.351c.218-.231.651-.467.413-.827a4.739,4.739,0,0,0-1.712-1.687c-.537-.27-.818.454-1.2.744a4.571,4.571,0,0,1-5.028.7,4.316,4.316,0,0,1-2.672-4.28c.023-.879-.238-1.272-1.144-1.147a2.908,2.908,0,0,1-.809,0c-.962-.141-1.2.294-1.19,1.2a4.427,4.427,0,0,1-2.906,4.332,4.541,4.541,0,0,1-5.118-1.136c-.585-.573-.99-.569-1.471.044a2.613,2.613,0,0,1-.5.5c-.792.581-.711,1.062-.043,1.769a4.633,4.633,0,0,1-3.443,7.87c-.832-.021-1.205.241-1.092,1.091a4.669,4.669,0,0,1,0,.608c0,1.387,0,1.387,1.352,1.422A4.616,4.616,0,0,1,8674.087,987.28Z" transform="translate(0 -113.534)" fill="#00b050"/>
      <path id="Trazado_5311" data-name="Trazado 5311" d="M8800.549,1066.6c-.74,0-1.481.021-2.221-.005a1.6,1.6,0,0,1-1.74-1.691q-.047-3.241,0-6.483a1.594,1.594,0,0,1,1.75-1.68c.738-.025,1.477,0,2.494,0-.637-.659-1.113-1.147-1.584-1.643a1.8,1.8,0,0,1,.02-2.9q2.057-2.1,4.154-4.153a1.78,1.78,0,0,1,2.83-.007c.485.463.929.971,1.5,1.571a6.34,6.34,0,0,0,.169-2.211c.045-1.408.581-1.992,1.957-2q2.988-.023,5.977,0c1.333.011,1.912.593,1.939,1.912.014.7,0,1.395,0,2.092l.289.182c.461-.517.9-1.063,1.392-1.545a1.773,1.773,0,0,1,2.827.012q2.136,2.089,4.225,4.228a1.75,1.75,0,0,1,.006,2.753c-.486.505-1.041.943-1.564,1.412l.146.3c.689,0,1.38-.01,2.07,0,1.346.023,1.942.585,1.955,1.9q.028,3.039,0,6.078a1.664,1.664,0,0,1-1.859,1.889c-.705.018-1.41,0-2.393,0,.635.657,1.115,1.143,1.582,1.639a1.808,1.808,0,0,1-.018,2.906q-2.057,2.1-4.155,4.154a1.78,1.78,0,0,1-2.829.006c-.486-.464-.935-.966-1.5-1.555a6.182,6.182,0,0,0-.166,2.193c-.046,1.406-.585,2-1.957,2.006q-2.988.024-5.978,0c-1.333-.01-1.912-.594-1.937-1.912-.015-.7,0-1.395,0-2.092l-.291-.182c-.485.542-.938,1.118-1.466,1.617a1.728,1.728,0,0,1-2.679-.018q-2.213-2.155-4.368-4.371a1.7,1.7,0,0,1,0-2.6c.506-.531,1.094-.983,1.645-1.471Zm20.322,5.071c.158-.11.3-.2.43-.3,1.82-1.41,1.83-1.553.233-3.151-1.472-1.473-1.464-1.719-.7-3.638.556-1.394,1.635-1.372,2.822-1.378,2.382-.01,2.076.428,2.1-2.174,0-.068,0-.135,0-.2.03-.525-.237-.722-.739-.713-.742.014-1.486-.026-2.228.006-1.162.049-1.65-.676-2.056-1.61-.428-.989-.7-1.916.2-2.794.529-.521,1.051-1.05,1.571-1.58.214-.218.483-.461.178-.771-.563-.573-1-1.414-1.777-1.583-.56-.123-.905.7-1.357,1.088-.308.263-.571.574-.874.844a1.787,1.787,0,0,1-1.592.464c-2.021-.381-2.647-1.165-2.674-3.233-.033-2.473.449-2.139-2.207-2.187-.646-.011-.929.207-.9.876.036.741,0,1.485.006,2.228a1.565,1.565,0,0,1-.816,1.526c-2.143,1.095-2.631,1.2-4.187-.371-1.687-1.7-1.072-1.811-3,.044-.437.419-.482.74-.016,1.161.527.473,1.006,1,1.508,1.5.889.88.617,1.808.188,2.8-.405.936-.9,1.654-2.061,1.6-.741-.032-1.485-.005-2.228,0-.312,0-.672.016-.7.414a4.691,4.691,0,0,0,.09,2.393c.326.624,1.173.205,1.783.282a5.365,5.365,0,0,0,1.012.005c1.149-.076,1.674.615,2.086,1.563.443,1.023.723,1.977-.214,2.88-.51.492-1.007,1-1.5,1.507-.205.21-.525.443-.236.764.5.55,1.025,1.074,1.572,1.575.322.3.555-.012.766-.218.533-.518,1.052-1.05,1.584-1.568a1.839,1.839,0,0,1,1.854-.525c2.072.543,2.5,1.116,2.525,3.249.031,2.406-.477,2.094,2.258,2.132.6.008.865-.208.842-.826-.028-.775,0-1.553,0-2.329a1.554,1.554,0,0,1,.857-1.5c2.125-1.051,2.616-1.234,4.17.447.3.322.615.626.936.927A5.825,5.825,0,0,0,8820.871,1071.668Z" transform="translate(-96.065 -174.669)" fill="#0067b3"/>
      <path id="Trazado_5312" data-name="Trazado 5312" d="M8876.595,873.167a19.292,19.292,0,0,1-19.455,19.475c-7.719-.054-13.453-3.623-17.266-10.3-.632-1.107-.579-1.159.6-1.688,1.85-.829,1.831-.817,2.908.878a15.527,15.527,0,0,0,13.68,7.692,16.092,16.092,0,0,0,2.684-31.965c-.632-.1-1.273-.154-1.912-.2a.736.736,0,0,1-.784-.92c.016-.167,0-.337,0-.506-.008-2.207.048-2.255,2.28-1.956a19.609,19.609,0,0,1,17.253,17.368A17.91,17.91,0,0,1,8876.595,873.167Z" transform="translate(-127.356 -34.783)" fill="#0067b3"/>
      <path id="Trazado_5313" data-name="Trazado 5313" d="M8885.314,895.163a11.42,11.42,0,1,1-11.417-11.447A11.327,11.327,0,0,1,8885.314,895.163Zm-11.424,7.991a8.021,8.021,0,1,0-8.021-7.916A8.15,8.15,0,0,0,8873.891,903.154Z" transform="translate(-144.129 -56.785)" fill="#0067b3"/>
      <path id="Trazado_5314" data-name="Trazado 5314" d="M8834.2,925.63c1.8,0,1.857.073,1.871,2.4.006.742-1.057,1.366-2.684,1.155-1.407-.183-.75-1.549-.857-2.383C8832.377,925.644,8832.484,925.63,8834.2,925.63Z" transform="translate(-122.245 -87.35)" fill="#0067b3"/>
      <path id="Trazado_5315" data-name="Trazado 5315" d="M8725.879,1016.051a6.556,6.556,0,1,1-6.508-6.579A6.467,6.467,0,0,1,8725.879,1016.051Zm-3.416-.022a3.225,3.225,0,0,0-3.184-3.146,3.3,3.3,0,0,0-3.1,3.039,3.143,3.143,0,1,0,6.284.107Z" transform="translate(-34.959 -148.489)" fill="#00b050"/>
      <path id="Trazado_5316" data-name="Trazado 5316" d="M8851.139,1096.644a3.23,3.23,0,0,1-3.352,3.293,3.269,3.269,0,0,1-3.27-3.282,3.311,3.311,0,1,1,6.621-.011Z" transform="translate(-131.034 -209.631)" fill="#0067b3"/>
    </g>
  </g>
</svg>
