<svg xmlns="http://www.w3.org/2000/svg" width="109" height="109" viewBox="0 0 109 109">
  <g id="Grupo_13629" data-name="Grupo 13629" transform="translate(-14.154 -52.087)">
    <rect id="Rectángulo_2304" data-name="Rectángulo 2304" width="109" height="109" rx="54.5" transform="translate(14.154 52.087)" fill="#aadcc1"/>
    <path id="Icon_metro-file-pdf" data-name="Icon metro-file-pdf" d="M51.808,14.949a7.8,7.8,0,0,1,1.61,2.549,7.74,7.74,0,0,1,.671,2.952V59.088a3.206,3.206,0,0,1-3.22,3.22H5.791a3.105,3.105,0,0,1-2.281-.939,3.105,3.105,0,0,1-.939-2.281V5.423A3.105,3.105,0,0,1,3.51,3.143,3.105,3.105,0,0,1,5.791,2.2H35.843a7.743,7.743,0,0,1,2.952.671,7.8,7.8,0,0,1,2.549,1.61ZM36.916,6.765V19.376H49.527A3.665,3.665,0,0,0,48.789,18L38.291,7.5a3.663,3.663,0,0,0-1.375-.738ZM49.8,58.014V23.669H35.843a3.206,3.206,0,0,1-3.22-3.22V6.5H6.864V58.014H49.8ZM32.556,38.125A25.519,25.519,0,0,0,35.373,40a33.283,33.283,0,0,1,3.924-.235q4.93,0,5.937,1.643a1.621,1.621,0,0,1,.067,1.744.1.1,0,0,1-.033.067l-.067.067v.034Q45,44.6,42.819,44.6a13.836,13.836,0,0,1-3.857-.671A24.456,24.456,0,0,1,34.6,42.15a60.4,60.4,0,0,0-13.148,2.784q-5.132,8.788-8.117,8.788a1.951,1.951,0,0,1-.939-.235l-.8-.4q-.033-.034-.2-.168a1.386,1.386,0,0,1-.2-1.207,7.284,7.284,0,0,1,1.878-3.069A16.209,16.209,0,0,1,17.5,45.4a.489.489,0,0,1,.771.2.193.193,0,0,1,.067.134q1.744-2.851,3.589-6.607a51.191,51.191,0,0,0,3.488-8.788,27.113,27.113,0,0,1-1.023-5.35,13.041,13.041,0,0,1,.218-4.276q.369-1.342,1.409-1.342h.738a1.414,1.414,0,0,1,1.174.5,2.679,2.679,0,0,1,.3,2.281.728.728,0,0,1-.134.268.873.873,0,0,1,.034.268V23.7a43.921,43.921,0,0,1-.47,6.44q1.845,5.5,4.9,7.983ZM13.236,51.91q1.744-.8,4.6-5.3A19.12,19.12,0,0,0,14.9,49.428,11.148,11.148,0,0,0,13.236,51.91ZM26.586,21.053a9.973,9.973,0,0,0-.067,4.427q.034-.235.235-1.476,0-.1.235-1.442a.755.755,0,0,1,.134-.268.1.1,0,0,1-.033-.067.068.068,0,0,0-.017-.05.068.068,0,0,1-.017-.05,1.93,1.93,0,0,0-.436-1.207.1.1,0,0,1-.033.067v.067Zm-4.159,22.17a49.2,49.2,0,0,1,9.525-2.717,5.058,5.058,0,0,1-.436-.319,6.007,6.007,0,0,1-.537-.453,17.766,17.766,0,0,1-4.259-5.9,44.82,44.82,0,0,1-2.784,6.607q-1.006,1.878-1.509,2.784Zm21.667-.537q-.8-.8-4.7-.8a12.687,12.687,0,0,0,4.159.939,3.253,3.253,0,0,0,.6-.034q0-.034-.067-.1Z" transform="translate(40.325 74.331)" fill="#00b050"/>
  </g>
</svg>
