<svg xmlns="http://www.w3.org/2000/svg" width="145" height="149" viewBox="0 0 145 149">
  <g id="Grupo_13700" data-name="Grupo 13700" transform="translate(-570 -4702)">
    <ellipse id="Elipse_358" data-name="Elipse 358" cx="72.5" cy="74.5" rx="72.5" ry="74.5" transform="translate(570 4702)" fill="#f1f1f1"/>
    <g id="Grupo_13666" data-name="Grupo 13666" transform="translate(19.073 134.878)">
      <g id="Grupo_13665" data-name="Grupo 13665" transform="translate(573 4590)">
        <circle id="Elipse_366" data-name="Elipse 366" cx="18.79" cy="18.79" r="18.79" transform="translate(31.659 24.273)" fill="#00b050"/>
        <path id="Trazado_5288" data-name="Trazado 5288" d="M7061.465,980.753s3.837-10.689,6.967-11.056,3.259,1.981,5.561,1.022a13.485,13.485,0,0,1,5.623-.575l6.264,9.267s-8.5,5.816-12.782,5.241S7061.465,980.753,7061.465,980.753Z" transform="translate(-7023.197 -922.288)" fill="#fff"/>
        <circle id="Elipse_367" data-name="Elipse 367" cx="7.474" cy="7.474" r="7.474" transform="translate(42.975 33.914)" fill="#fff"/>
        <path id="Trazado_5289" data-name="Trazado 5289" d="M7008.432,838.835l2.181-7.975-6.759-5.177-6.279,5.153,2.181,8.268Z" transform="translate(-6976.49 -817.037)" fill="#00b050"/>
        <path id="Trazado_5290" data-name="Trazado 5290" d="M7093.375,817.494l2.181-7.975-6.758-5.177-6.279,5.153,2.181,8.268Z" transform="translate(-7038.589 -801.435)" fill="#00b050"/>
        <path id="Trazado_5291" data-name="Trazado 5291" d="M7178.315,840.862l2.181-7.975-6.759-5.177-6.279,5.153,2.181,8.268Z" transform="translate(-7100.683 -818.518)" fill="#00b050"/>
        <g id="Grupo_13664" data-name="Grupo 13664" transform="translate(0 0)">
          <path id="Trazado_5292" data-name="Trazado 5292" d="M6930.976,981.036a4.128,4.128,0,0,1-2.464-4.315c.063-2.649.007-5.3.019-7.952.01-2.271.971-3.508,3.181-3.967,1.108-.231.517-.609.164-.994a40.822,40.822,0,0,1-11.248-26.261c-.408-6.79-.9-13.576-1.328-20.365a11.071,11.071,0,0,1,.132-4,5.753,5.753,0,0,1,5.322-4.361,5.625,5.625,0,0,1,5.572,2.9,1.43,1.43,0,0,0,1.53.883,5.909,5.909,0,0,1,6.014,5.244c.328,4.007.549,8.024.815,12.036.066,1,.148,2.006.2,3.01a1.142,1.142,0,0,0,.5.92c4.031,3.125,7.871,6.482,11.787,9.746a13.641,13.641,0,0,1,4.81,9.849c.282,3.474.565,6.947.81,10.423.045.638.267.863.9.9,3.088.17,4.249,1.4,4.271,4.487.019,2.483-.03,4.967.016,7.448a4.28,4.28,0,0,1-2.416,4.372h-11.475a1.637,1.637,0,0,1-.844-2.043c.3-.872,1.021-1.056,1.858-1.052,2.818.012,5.636-.023,8.453.019.888.013,1.168-.3,1.154-1.17q-.064-3.823,0-7.647c.017-.892-.306-1.152-1.171-1.15q-12.278.036-24.554,0c-.867,0-1.188.264-1.172,1.152q.066,3.823,0,7.648c-.014.868.269,1.182,1.156,1.168,2.784-.044,5.568-.006,8.353-.021.828,0,1.568.129,1.889,1a1.713,1.713,0,0,1-.759,2.094Zm14.419-16.319c2.415,0,4.831-.018,7.247.011.689.008.944-.177.88-.917-.319-3.671-.539-7.351-.9-11.018a9.973,9.973,0,0,0-3.713-6.905c-3.51-2.914-7-5.853-10.5-8.783a5.01,5.01,0,0,0-1.638-.962,3.2,3.2,0,0,0-3.646.942,2.875,2.875,0,0,0,.285,3.543,12.339,12.339,0,0,0,1.119,1.291q3.82,3.936,7.653,7.858c.866.89.961,1.867.264,2.564s-1.654.618-2.559-.3q-4.229-4.31-8.424-8.653a6.731,6.731,0,0,1-2.079-4.576c-.061-4.194-.47-8.365-.7-12.547-.212-3.914-.5-7.825-.792-11.734a2.705,2.705,0,0,0-2.893-2.477,2.817,2.817,0,0,0-2.6,2.931c.051,1.071.129,2.141.2,3.211q.59,9.179,1.186,18.357a48.312,48.312,0,0,0,.923,7.17c1.786,8.15,6.114,14.8,12.068,20.493a1.927,1.927,0,0,0,1.462.511C6940.631,964.711,6943.013,964.716,6945.4,964.717Zm-13.983-47.005h.021c.28,4.649.545,9.3.846,13.947.1,1.615.144,1.612,1.694,1.2a1.516,1.516,0,0,1,.391-.092c1.017.017,1.267-.491,1.2-1.454-.312-4.244-.551-8.493-.841-12.738a2.761,2.761,0,0,0-1.554-2.426c-1.324-.663-1.8-.365-1.753,1.06C6931.417,917.376,6931.412,917.544,6931.412,917.711Z" transform="translate(-6919.183 -877.792)" fill="#0067b3"/>
          <path id="Trazado_5293" data-name="Trazado 5293" d="M7137.626,980.957a4.228,4.228,0,0,1-2.409-4.274c.042-2.516,0-5.033.014-7.549.024-3.095,1.16-4.3,4.275-4.48.736-.043.849-.381.9-1.008.315-3.84.486-7.691.971-11.518a13.022,13.022,0,0,1,4.655-8.645c3.9-3.278,7.752-6.625,11.785-9.749a1.158,1.158,0,0,0,.495-.926c.266-4.416.561-8.83.811-13.247.119-2.093.447-4.07,2.167-5.533a5.866,5.866,0,0,1,4.153-1.5,1.2,1.2,0,0,0,1.325-.713,5.86,5.86,0,0,1,5.777-3.076,5.988,5.988,0,0,1,5.281,4.564,4.827,4.827,0,0,1,.131,1.5q-.368,6.323-.759,12.645c-.207,3.345-.464,6.687-.639,10.034a40.517,40.517,0,0,1-9.724,24.517c-.539.642-1.1,1.27-1.664,1.887-.38.413-.531.649.217.825,2.427.573,3.273,1.688,3.277,4.194,0,2.584-.056,5.169.019,7.75a4.122,4.122,0,0,1-2.47,4.31h-11.476a1.716,1.716,0,0,1-.756-2.1c.322-.874,1.063-1,1.891-1,2.784.015,5.569-.015,8.354.017.79.009,1.165-.2,1.152-1.068-.039-2.616-.034-5.234,0-7.85.009-.8-.3-1.043-1.074-1.042q-12.381.027-24.759,0c-.781,0-1.067.266-1.058,1.054.033,2.583.041,5.167,0,7.749-.015.882.289,1.173,1.164,1.16,2.817-.041,5.636-.007,8.454-.019.838,0,1.553.186,1.854,1.058a1.63,1.63,0,0,1-.853,2.036Zm14.229-16.318a30.725,30.725,0,0,1,4.323.035c2.788.4,4.673-.736,6.492-2.775,5.263-5.9,9.012-12.5,10.175-20.4.875-5.942.877-11.957,1.356-17.933.219-2.739.308-5.488.529-8.226a2.9,2.9,0,0,0-2.411-3.368,2.744,2.744,0,0,0-3.052,2.733c-.237,3.275-.437,6.553-.642,9.83-.273,4.381-.624,8.76-.767,13.145a8.462,8.462,0,0,1-2.384,5.892q-2.477,2.574-4.964,5.138c-1.147,1.177-2.292,2.358-3.479,3.494a1.574,1.574,0,0,1-2.266.075,1.645,1.645,0,0,1,.007-2.344c.109-.127.233-.241.35-.361q3.829-3.927,7.655-7.856a6.25,6.25,0,0,0,1.588-2.3,2.584,2.584,0,0,0-2.219-3.519A4.232,4.232,0,0,0,7158.81,937q-5.317,4.464-10.643,8.919a9.544,9.544,0,0,0-3.45,5.963c-.62,3.979-.734,8-1.053,12.009-.057.716.316.755.844.753C7146.958,964.633,7149.406,964.638,7151.855,964.638ZM7165.8,917.55a3.136,3.136,0,0,1,.011-.806c.223-1.02-.357-1.052-1.079-.919a2.905,2.905,0,0,0-2.284,2.917q-.383,6.007-.788,12.012c-.113,1.644-.134,1.641,1.468,2.022a3.51,3.51,0,0,1,.768.227c.614.308.868.212.915-.543C7165.118,927.556,7165.459,922.652,7165.8,917.55Z" transform="translate(-7077.113 -877.713)" fill="#0067b3"/>
          <path id="Trazado_5294" data-name="Trazado 5294" d="M7049.113,874.581a21.22,21.22,0,1,1-21.2,21.135A21.1,21.1,0,0,1,7049.113,874.581Zm13.4,33.108a17.951,17.951,0,0,0-26.775-23.919c-6.687,7.309-5.488,18.373-.015,23.861a16.3,16.3,0,0,1,2.009-4.267,13.979,13.979,0,0,1,3.282-3.373c.491-.353.246-.667.023-1.02a9.369,9.369,0,0,1-1.485-4.941,9.576,9.576,0,1,1,17.734,4.809c-.227.383-.639.734-.026,1.182A14.1,14.1,0,0,1,7062.512,907.689Zm-13.268,6.039a17.845,17.845,0,0,0,9.306-2.6,1.672,1.672,0,0,0,.94-2.053,10.775,10.775,0,0,0-4.565-6.736,1.118,1.118,0,0,0-1.291-.068,9.376,9.376,0,0,1-9.055-.006.986.986,0,0,0-1.117-.02,10.552,10.552,0,0,0-4.756,7.154,1.374,1.374,0,0,0,.752,1.574A17.911,17.911,0,0,0,7049.244,913.728Zm-.165-26.283a6.373,6.373,0,1,0,6.412,6.309A6.47,6.47,0,0,0,7049.079,887.445Z" transform="translate(-6998.669 -852.783)" fill="#0067b3"/>
          <path id="Trazado_5295" data-name="Trazado 5295" d="M7090.049,801.16a4.831,4.831,0,0,1-.2.606,2.4,2.4,0,0,1-.371.6,9.454,9.454,0,0,0-2.488,7.432c.161,2.018-.906,2.764-2.808,2.009a9.7,9.7,0,0,0-7.549-.012c-1.955.776-3,.031-2.85-2.059a9.718,9.718,0,0,0-2.38-7.276c-1.241-1.495-.855-2.647,1.051-3.12a9.806,9.806,0,0,0,6.276-4.559c1.027-1.647,2.29-1.658,3.3-.024a9.561,9.561,0,0,0,6.37,4.578A1.852,1.852,0,0,1,7090.049,801.16Zm-9.673,6.174c.87.249,1.742.482,2.6.75.548.17.868.069.789-.568a6.028,6.028,0,0,1,1.588-4.9c.457-.522.379-.9-.333-1.047a5.8,5.8,0,0,1-4.077-2.959c-.345-.611-.715-.657-1.08-.029a6.029,6.029,0,0,1-4.163,3.013c-.683.141-.71.512-.3.986a6.06,6.06,0,0,1,1.608,4.888c-.086.689.258.8.843.619C7078.68,807.829,7079.515,807.591,7080.376,807.334Z" transform="translate(-7029.939 -793.535)" fill="#0067b3"/>
          <path id="Trazado_5296" data-name="Trazado 5296" d="M7169.948,835.328c-1.058-.312-2.351-.664-3.622-1.081a2.809,2.809,0,0,0-1.858.023c-1.081.36-2.176.679-3.277.972-1.425.379-2.478-.293-2.331-1.739a10.1,10.1,0,0,0-2.556-7.94,1.612,1.612,0,0,1,.933-2.847,10.247,10.247,0,0,0,6.672-4.837c.878-1.421,2.184-1.416,3.053.017a10.079,10.079,0,0,0,6.585,4.787c1.605.389,1.906,1.553,1,2.932a14.927,14.927,0,0,1-1.216,1.726,5.717,5.717,0,0,0-1.305,4.2,21.428,21.428,0,0,1-.03,2.212C7171.909,834.82,7171.213,835.407,7169.948,835.328Zm-9.807-9.913a1.062,1.062,0,0,0,.13.226,6.469,6.469,0,0,1,1.723,5.249c-.073.688.48.658.9.467a5.971,5.971,0,0,1,5.132.009c.558.247.93.118.838-.586a5.883,5.883,0,0,1,1.543-4.893c.479-.535.358-.883-.336-1.021a5.8,5.8,0,0,1-4.084-2.946c-.39-.683-.772-.64-1.139.014a5.705,5.705,0,0,1-3.993,2.911,2.744,2.744,0,0,0-.472.167C7160.225,825.08,7160.071,825.158,7160.142,825.415Z" transform="translate(-7092.116 -810.556)" fill="#0067b3"/>
          <path id="Trazado_5297" data-name="Trazado 5297" d="M7000.028,835.3c-1.053-.31-2.346-.661-3.618-1.076a2.824,2.824,0,0,0-1.858,0c-1.081.359-2.176.68-3.276.977-1.479.4-2.335-.259-2.393-1.8a1.83,1.83,0,0,1,0-.3,9.026,9.026,0,0,0-2.278-7.217c-1.353-1.641-.98-2.814,1.051-3.328a9.551,9.551,0,0,0,6.052-4.37q1.775-2.81,3.546,0a9.6,9.6,0,0,0,6.053,4.368c2.037.53,2.423,1.712,1.048,3.328a9.511,9.511,0,0,0-2.3,7.416C7002.176,834.678,7001.432,835.372,7000.028,835.3Zm-1.768-3.919c.6.077.722.04.65-.692a5.886,5.886,0,0,1,1.535-4.806c.542-.589.347-.923-.377-1.069a5.649,5.649,0,0,1-4.006-2.9c-.348-.624-.73-.75-1.14-.04a5.815,5.815,0,0,1-4.084,2.958c-.685.133-.833.46-.35,1.015a5.629,5.629,0,0,1,1.542,4.7c-.134.9.3,1.092,1.035.75a5.542,5.542,0,0,1,4.843-.017A2.192,2.192,0,0,0,6998.26,831.385Z" transform="translate(-6967.886 -810.528)" fill="#0067b3"/>
        </g>
      </g>
    </g>
  </g>
</svg>
