<svg xmlns="http://www.w3.org/2000/svg" width="142" height="144" viewBox="0 0 142 144">
  <g id="Grupo_13696" data-name="Grupo 13696" transform="translate(-534.553 -4001.191)">
    <ellipse id="Elipse_326" data-name="Elipse 326" cx="71" cy="72" rx="71" ry="72" transform="translate(534.553 4001.191)" fill="#f1f1f1"/>
    <g id="Grupo_13676" data-name="Grupo 13676" transform="translate(677.584 4171.717)">
      <g id="Grupo_13675" data-name="Grupo 13675" transform="translate(-115.552 -142.492)">
        <path id="Trazado_5325" data-name="Trazado 5325" d="M8905.384,1269.242a63.018,63.018,0,0,1,1.311-7.413,44.02,44.02,0,0,1,55.083-31.193,6.832,6.832,0,0,1,.891.308,2.258,2.258,0,0,1,1.275,2.761,2.223,2.223,0,0,1-2.709,1.516,56.534,56.534,0,0,0-5.844-1.335,39.439,39.439,0,0,0-40.942,20.5,37.969,37.969,0,0,0-4.4,14.677,39.434,39.434,0,0,0,32.76,42.679,38.06,38.06,0,0,0,23.777-3.442,38.832,38.832,0,0,0,20.736-24.949,37.836,37.836,0,0,0,1.386-12.552,39.983,39.983,0,0,0-1.679-9.512,2.292,2.292,0,1,1,4.364-1.332,40.505,40.505,0,0,1,1.517,6.854,44.04,44.04,0,0,1-27.776,47.078,41.2,41.2,0,0,1-11.89,2.781,1.7,1.7,0,0,0-.327.1h-7.206c-1.578-.234-3.18-.364-4.731-.717q-26.678-6.073-34.31-32.367a48.13,48.13,0,0,1-1.282-7.238Z" transform="translate(-8905.384 -1228.84)" fill="#0067b3"/>
        <path id="Trazado_5326" data-name="Trazado 5326" d="M9039.736,1335.962c0-.686,0-1.372,0-2.058a2.292,2.292,0,0,1,2.175-2.407,2.335,2.335,0,0,1,2.386,2.307,28.2,28.2,0,0,1-2.737,14.911c-4.681,9.714-12.388,15.645-23.025,17.45a30.715,30.715,0,0,1-9.979-60.614,24.265,24.265,0,0,1,6.992-.339,2.449,2.449,0,0,1,2.358,2.544c-.049,1.287-1.023,2.1-2.564,2.012a26.14,26.14,0,0,0-20.352,44.349,24.557,24.557,0,0,0,16.46,7.736c10.92.708,19.223-3.767,24.932-13.042A23.809,23.809,0,0,0,9039.736,1335.962Z" transform="translate(-8969.609 -1291.979)" fill="#0067b3"/>
        <path id="Trazado_5327" data-name="Trazado 5327" d="M9171.1,1280.827c-1.369,0-2.858-.338-4.075.093-1.256.445-2.057,1.835-3.048,2.82q-5.714,5.682-11.4,11.4a2.545,2.545,0,0,1-1.942.925,2.112,2.112,0,0,1-1.988-1.25,2.176,2.176,0,0,1,.2-2.35,6.961,6.961,0,0,1,.7-.753q6.728-6.731,13.468-13.449a2.177,2.177,0,0,0,.71-1.732c-.039-2.143,0-4.287-.021-6.43a2.937,2.937,0,0,1,.916-2.223q6.346-6.325,12.672-12.669a2.3,2.3,0,0,1,2.706-.7,2.4,2.4,0,0,1,1.448,2.417c.014,1.714.036,3.43-.008,5.144-.021.765.262.993,1,.974,1.656-.041,3.314-.011,4.972-.012a2.475,2.475,0,0,1,2.573,1.475,2.367,2.367,0,0,1-.786,2.764q-6.253,6.234-12.485,12.492a3.109,3.109,0,0,1-2.44,1.016c-1.056-.038-2.114-.009-3.173-.009Zm5.782-18.47a1.963,1.963,0,0,0-.4.14q-3.946,3.931-7.892,7.865a1.2,1.2,0,0,0-.322.936c.006,1.372.021,2.744-.007,4.115-.013.587.186.819.789.8,1.285-.031,2.572-.036,3.857,0a1.872,1.872,0,0,0,1.51-.615c2.366-2.4,4.762-4.774,7.139-7.165.186-.187.487-.318.463-.765-.485,0-.964.009-1.441,0s-.972-.018-1.452-.074a2.168,2.168,0,0,1-2.232-2.233C9176.819,1264.406,9176.88,1263.437,9176.88,1262.357Z" transform="translate(-9106.615 -1249.932)" fill="#00b050"/>
        <path id="Trazado_5328" data-name="Trazado 5328" d="M9076.848,1412.271a12.938,12.938,0,0,0,13.012-12.68c.05-1.6.988-2.629,2.361-2.6,1.324.031,2.184,1.08,2.2,2.646a15.392,15.392,0,0,1-.449,3.648,17.6,17.6,0,1,1-19.554-21.443,15.023,15.023,0,0,1,2.306-.146,2.293,2.293,0,0,1,2.395,2.189,2.27,2.27,0,0,1-2.248,2.341,16.948,16.948,0,0,0-3.552.5,12.985,12.985,0,0,0,3.526,25.536Z" transform="translate(-9032.767 -1355.418)" fill="#0067b3"/>
      </g>
    </g>
  </g>
</svg>
