<svg xmlns="http://www.w3.org/2000/svg" width="1395" height="864" viewBox="0 0 1395 864">
  <g id="Grupo_13691" data-name="Grupo 13691" transform="translate(-234 -6920)">
    <circle id="Elipse_330" data-name="Elipse 330" cx="87" cy="87" r="87" transform="translate(1239 7324)" fill="#00b050"/>
    <circle id="Elipse_332" data-name="Elipse 332" cx="87" cy="87" r="87" transform="translate(508 7324)" fill="#92d050"/>
    <circle id="Elipse_331" data-name="Elipse 331" cx="87" cy="87" r="87" transform="translate(1047 7592)" fill="#c4f5da"/>
    <circle id="Elipse_334" data-name="Elipse 334" cx="87" cy="87" r="87" transform="translate(764 7592)" fill="#aadcc1"/>
    <circle id="Elipse_335" data-name="Elipse 335" cx="87" cy="87" r="87" transform="translate(508 7592)" fill="#aadcc1"/>
    <circle id="Elipse_336" data-name="Elipse 336" cx="87" cy="87" r="87" transform="translate(252 7592)" fill="#aadcc1"/>
    <circle id="Elipse_333" data-name="Elipse 333" cx="87" cy="87" r="87" transform="translate(1437 7592)" fill="#c4f5da"/>
    <path id="Trazado_5002" data-name="Trazado 5002" d="M0-27.975v200.5" transform="translate(960.5 7157.975)" fill="none" stroke="#92d050" stroke-linecap="round" stroke-width="3" stroke-dasharray="4"/>
    <line id="Línea_803" data-name="Línea 803" x2="457" transform="translate(962.5 7273)" fill="none" stroke="#92d050" stroke-linecap="round" stroke-width="3" stroke-dasharray="4"/>
    <line id="Línea_858" data-name="Línea 858" x2="457" transform="translate(503 7181)" fill="none" stroke="#92d050" stroke-linecap="round" stroke-width="3" stroke-dasharray="4"/>
    <g id="Grupo_13413" data-name="Grupo 13413" transform="translate(21.5 671)">
      <line id="Línea_804" data-name="Línea 804" y1="81.5" x2="260.5" transform="translate(678.5 6659.5)" fill="none" stroke="#92d050" stroke-linecap="round" stroke-width="3" stroke-dasharray="4"/>
      <line id="Línea_805" data-name="Línea 805" x1="260.5" y1="81.5" transform="translate(939 6659.5)" fill="none" stroke="#92d050" stroke-linecap="round" stroke-width="3" stroke-dasharray="4"/>
    </g>
    <g id="Grupo_13414" data-name="Grupo 13414" transform="translate(1191 7516)">
      <line id="Línea_804-2" data-name="Línea 804" y1="75.75" x2="135" fill="none" stroke="#92d050" stroke-linecap="round" stroke-width="3" stroke-dasharray="4"/>
      <line id="Línea_805-2" data-name="Línea 805" x1="135" y1="75.75" transform="translate(135)" fill="none" stroke="#92d050" stroke-linecap="round" stroke-width="3" stroke-dasharray="4"/>
    </g>
    <g id="Grupo_13415" data-name="Grupo 13415" transform="translate(395.701 7516)">
      <line id="Línea_804-3" data-name="Línea 804" y1="75.75" x2="199.299" fill="none" stroke="#92d050" stroke-linecap="round" stroke-width="3" stroke-dasharray="4"/>
      <line id="Línea_805-3" data-name="Línea 805" x1="199.299" y1="75.75" transform="translate(199.299)" fill="none" stroke="#92d050" stroke-linecap="round" stroke-width="3" stroke-dasharray="4"/>
      <line id="Línea_806" data-name="Línea 806" y1="58" transform="translate(199.299)" fill="none" stroke="#92d050" stroke-linecap="round" stroke-width="3" stroke-dasharray="4"/>
    </g>
    <g id="Elipse_337" data-name="Elipse 337" transform="translate(1029 7574)" fill="none" stroke="#92d050" stroke-width="2" stroke-dasharray="5">
      <circle cx="105" cy="105" r="105" stroke="none"/>
      <circle cx="105" cy="105" r="104" fill="none"/>
    </g>
    <g id="Elipse_339" data-name="Elipse 339" transform="translate(746 7574)" fill="none" stroke="#92d050" stroke-width="2" stroke-dasharray="5">
      <circle cx="105" cy="105" r="105" stroke="none"/>
      <circle cx="105" cy="105" r="104" fill="none"/>
    </g>
    <g id="Elipse_340" data-name="Elipse 340" transform="translate(490 7574)" fill="none" stroke="#92d050" stroke-width="2" stroke-dasharray="5">
      <circle cx="105" cy="105" r="105" stroke="none"/>
      <circle cx="105" cy="105" r="104" fill="none"/>
    </g>
    <g id="Elipse_342" data-name="Elipse 342" transform="translate(490 7306)" fill="none" stroke="#92d050" stroke-width="2" stroke-dasharray="5">
      <circle cx="105" cy="105" r="105" stroke="none"/>
      <circle cx="105" cy="105" r="104" fill="none"/>
    </g>
    <g id="Elipse_343" data-name="Elipse 343" transform="translate(1221 7306)" fill="none" stroke="#92d050" stroke-width="2" stroke-dasharray="5">
      <circle cx="105" cy="105" r="105" stroke="none"/>
      <circle cx="105" cy="105" r="104" fill="none"/>
    </g>
    <g id="Elipse_341" data-name="Elipse 341" transform="translate(234 7574)" fill="none" stroke="#92d050" stroke-width="2" stroke-dasharray="5">
      <circle cx="105" cy="105" r="105" stroke="none"/>
      <circle cx="105" cy="105" r="104" fill="none"/>
    </g>
    <g id="Elipse_338" data-name="Elipse 338" transform="translate(1419 7574)" fill="none" stroke="#92d050" stroke-width="2" stroke-dasharray="5">
      <circle cx="105" cy="105" r="105" stroke="none"/>
      <circle cx="105" cy="105" r="104" fill="none"/>
    </g>
    <g id="Grupo_13678" data-name="Grupo 13678" transform="translate(0 -90)">
      <g id="Elipse_344" data-name="Elipse 344" transform="translate(855 7010)" fill="none" stroke="#92d050" stroke-width="2" stroke-dasharray="5">
        <circle cx="105" cy="105" r="105" stroke="none"/>
        <circle cx="105" cy="105" r="104" fill="none"/>
      </g>
      <path id="Trazado_5003" data-name="Trazado 5003" d="M87,0A87,87,0,1,1,0,87,87,87,0,0,1,87,0Z" transform="translate(873 7028)" fill="#0c773d"/>
      <text id="Gerencia_AMBIDES" data-name="Gerencia
AMBIDES" transform="translate(958 7109)" fill="#fff" font-size="25" font-family="HindVadodara-Medium, Hind Vadodara" font-weight="500"><tspan x="-47.95" y="0">Gerencia</tspan><tspan x="-50.938" y="30">AMBIDES</tspan></text>
    </g>
    <text id="Administración" transform="translate(1326 7419)" fill="#fff" font-size="22" font-family="HindVadodara-Medium, Hind Vadodara" font-weight="500"><tspan x="-72.303" y="0">Administración</tspan></text>
    <text id="Sub_Gerencia_General" data-name="Sub
Gerencia
General" transform="translate(595 7390)" fill="#fff" font-size="25" font-family="HindVadodara-Medium, Hind Vadodara" font-weight="500"><tspan x="-20.675" y="0">Sub</tspan><tspan x="-47.95" y="30">Gerencia</tspan><tspan x="-42.063" y="60">General</tspan></text>
    <text id="Contabilidad" transform="translate(1134 7688)" fill="#717171" font-size="23" font-family="HindVadodara-Medium, Hind Vadodara" font-weight="500"><tspan x="-64.044" y="0">Contabilidad</tspan></text>
    <text id="Sistemas" transform="translate(1524 7688)" fill="#717171" font-size="23" font-family="HindVadodara-Medium, Hind Vadodara" font-weight="500"><tspan x="-44.068" y="0">Sistemas</tspan></text>
    <text id="Área_de_Formulación_de_Proyectos_de_Inversión" data-name="Área de 
Formulación
de Proyectos
de Inversión" transform="translate(851 7651)" fill="#717171" font-size="23" font-family="HindVadodara-Medium, Hind Vadodara" font-weight="500"><tspan x="-41.63" y="0">Área de </tspan><tspan x="-61.56" y="25">Formulación</tspan><tspan x="-65.102" y="50">de Proyectos</tspan><tspan x="-61.215" y="75">de Inversión</tspan></text>
    <text id="Área_de_Gestión_Ambiental" data-name="Área de 
Gestión
Ambiental" transform="translate(595 7666)" fill="#717171" font-size="23" font-family="HindVadodara-Medium, Hind Vadodara" font-weight="500"><tspan x="-41.63" y="0">Área de </tspan><tspan x="-38.629" y="25">Gestión</tspan><tspan x="-51.876" y="50">Ambiental</tspan></text>
    <text id="Área_de_Ingeniería" data-name="Área de
Ingeniería" transform="translate(339 7681)" fill="#717171" font-size="23" font-family="HindVadodara-Medium, Hind Vadodara" font-weight="500"><tspan x="-38.801" y="0">Área de</tspan><tspan x="-49.484" y="25">Ingeniería</tspan></text>
    <g id="Grupo_13679" data-name="Grupo 13679">
      <g id="Elipse_344-2" data-name="Elipse 344" transform="translate(1419 7168)" fill="none" stroke="#92d050" stroke-width="2" stroke-dasharray="5">
        <circle cx="105" cy="105" r="105" stroke="none"/>
        <circle cx="105" cy="105" r="104" fill="none"/>
      </g>
      <path id="Trazado_5003-2" data-name="Trazado 5003" d="M87,0A87,87,0,1,1,0,87,87,87,0,0,1,87,0Z" transform="translate(1437 7186)" fill="#359feb"/>
      <text id="Secretaria" transform="translate(1524 7282)" fill="#fff" font-size="25" font-family="HindVadodara-Medium, Hind Vadodara" font-weight="500"><tspan x="-54.212" y="0">Secretaria</tspan></text>
    </g>
    <g id="Grupo_13690" data-name="Grupo 13690" transform="translate(-1128 -92)">
      <g id="Elipse_344-3" data-name="Elipse 344" transform="translate(1419 7168)" fill="none" stroke="#92d050" stroke-width="2" stroke-dasharray="5">
        <circle cx="105" cy="105" r="105" stroke="none"/>
        <circle cx="105" cy="105" r="104" fill="none"/>
      </g>
      <path id="Trazado_5003-3" data-name="Trazado 5003" d="M87,0A87,87,0,1,1,0,87,87,87,0,0,1,87,0Z" transform="translate(1437 7186)" fill="#359feb"/>
      <text id="Área_Legal" data-name="Área Legal" transform="translate(1524 7282)" fill="#fff" font-size="25" font-family="HindVadodara-Medium, Hind Vadodara" font-weight="500"><tspan x="-57.212" y="0">Área Legal</tspan></text>
    </g>
  </g>
</svg>
