<svg xmlns="http://www.w3.org/2000/svg" width="661.859" height="845.156" viewBox="0 0 661.859 845.156">
  <g id="Grupo_13714" data-name="Grupo 13714" transform="translate(-29 -250)">
    <g id="Grupo_13713" data-name="Grupo 13713" transform="translate(-65.485)">
      <circle id="Elipse_330" data-name="Elipse 330" cx="47.99" cy="47.99" r="47.99" transform="translate(541.217 578.834)" fill="#00b050"/>
      <circle id="Elipse_332" data-name="Elipse 332" cx="47.99" cy="47.99" r="47.99" transform="translate(245.627 726.665)" fill="#92d050"/>
      <circle id="Elipse_331" data-name="Elipse 331" cx="47.99" cy="47.99" r="47.99" transform="translate(435.308 726.665)" fill="#c4f5da"/>
      <circle id="Elipse_334" data-name="Elipse 334" cx="47.99" cy="47.99" r="47.99" transform="translate(386.838 874.497)" fill="#aadcc1"/>
      <circle id="Elipse_335" data-name="Elipse 335" cx="47.99" cy="47.99" r="47.99" transform="translate(245.627 874.497)" fill="#aadcc1"/>
      <circle id="Elipse_336" data-name="Elipse 336" cx="47.99" cy="47.99" r="47.99" transform="translate(104.414 874.497)" fill="#aadcc1"/>
      <circle id="Elipse_333" data-name="Elipse 333" cx="47.99" cy="47.99" r="47.99" transform="translate(650.436 726.665)" fill="#c4f5da"/>
      <path id="Trazado_5002" data-name="Trazado 5002" d="M0-27.975v110.6" transform="translate(437.31 409.607)" fill="none" stroke="#92d050" stroke-linecap="round" stroke-width="2" stroke-dasharray="4"/>
      <line id="Línea_803" data-name="Línea 803" x2="169.649" transform="translate(438.413 460.513)" fill="none" stroke="#92d050" stroke-linecap="round" stroke-width="2" stroke-dasharray="4"/>
      <line id="Línea_859" data-name="Línea 859" x2="169.649" transform="translate(267.139 409.765)" fill="none" stroke="#92d050" stroke-linecap="round" stroke-width="2" stroke-dasharray="4"/>
      <g id="Grupo_13413" data-name="Grupo 13413" transform="translate(294.767 492.231)">
        <line id="Línea_804" data-name="Línea 804" y1="225.33" x2="142.544" transform="translate(0)" fill="none" stroke="#92d050" stroke-linecap="round" stroke-width="2" stroke-dasharray="4"/>
        <line id="Línea_805" data-name="Línea 805" x1="152.323" y1="76.668" transform="translate(142.543)" fill="none" stroke="#92d050" stroke-linecap="round" stroke-width="2" stroke-dasharray="4"/>
      </g>
      <g id="Grupo_13414" data-name="Grupo 13414" transform="translate(514.739 684.742)">
        <line id="Línea_804-2" data-name="Línea 804" y1="41.784" x2="74.467" fill="none" stroke="#92d050" stroke-linecap="round" stroke-width="2" stroke-dasharray="4"/>
        <line id="Línea_805-2" data-name="Línea 805" x1="74.467" y1="41.784" transform="translate(74.467)" fill="none" stroke="#92d050" stroke-linecap="round" stroke-width="2" stroke-dasharray="4"/>
      </g>
      <g id="Grupo_13415" data-name="Grupo 13415" transform="translate(183.681 832.574)">
        <line id="Línea_804-3" data-name="Línea 804" y1="41.784" x2="109.935" fill="none" stroke="#92d050" stroke-linecap="round" stroke-width="2" stroke-dasharray="4"/>
        <line id="Línea_805-3" data-name="Línea 805" x1="109.935" y1="41.784" transform="translate(109.935)" fill="none" stroke="#92d050" stroke-linecap="round" stroke-width="2" stroke-dasharray="4"/>
        <line id="Línea_806" data-name="Línea 806" y1="31.993" transform="translate(109.935)" fill="none" stroke="#92d050" stroke-linecap="round" stroke-width="2" stroke-dasharray="4"/>
      </g>
      <g id="Elipse_337" data-name="Elipse 337" transform="translate(425.378 716.737)" fill="none" stroke="#92d050" stroke-linecap="round" stroke-width="1.5" stroke-dasharray="5">
        <circle cx="57.919" cy="57.919" r="57.919" stroke="none"/>
        <circle cx="57.919" cy="57.919" r="57.169" fill="none"/>
      </g>
      <g id="Elipse_339" data-name="Elipse 339" transform="translate(376.909 864.568)" fill="none" stroke="#92d050" stroke-linecap="round" stroke-width="1.5" stroke-dasharray="5">
        <circle cx="57.919" cy="57.919" r="57.919" stroke="none"/>
        <circle cx="57.919" cy="57.919" r="57.169" fill="none"/>
      </g>
      <g id="Elipse_340" data-name="Elipse 340" transform="translate(235.697 864.568)" fill="none" stroke="#92d050" stroke-linecap="round" stroke-width="1.5" stroke-dasharray="5">
        <circle cx="57.919" cy="57.919" r="57.919" stroke="none"/>
        <circle cx="57.919" cy="57.919" r="57.169" fill="none"/>
      </g>
      <g id="Elipse_342" data-name="Elipse 342" transform="translate(235.697 716.737)" fill="none" stroke="#92d050" stroke-linecap="round" stroke-width="1.5" stroke-dasharray="5">
        <circle cx="57.919" cy="57.919" r="57.919" stroke="none"/>
        <circle cx="57.919" cy="57.919" r="57.169" fill="none"/>
      </g>
      <g id="Elipse_343" data-name="Elipse 343" transform="translate(531.288 568.905)" fill="none" stroke="#92d050" stroke-linecap="round" stroke-width="1.5" stroke-dasharray="5">
        <circle cx="57.919" cy="57.919" r="57.919" stroke="none"/>
        <circle cx="57.919" cy="57.919" r="57.169" fill="none"/>
      </g>
      <g id="Elipse_341" data-name="Elipse 341" transform="translate(94.485 864.568)" fill="none" stroke="#92d050" stroke-linecap="round" stroke-width="1.5" stroke-dasharray="5">
        <circle cx="57.919" cy="57.919" r="57.919" stroke="none"/>
        <circle cx="57.919" cy="57.919" r="57.169" fill="none"/>
      </g>
      <g id="Elipse_338" data-name="Elipse 338" transform="translate(640.506 716.737)" fill="none" stroke="#92d050" stroke-linecap="round" stroke-width="1.5" stroke-dasharray="5">
        <circle cx="57.919" cy="57.919" r="57.919" stroke="none"/>
        <circle cx="57.919" cy="57.919" r="57.169" fill="none"/>
      </g>
      <g id="Elipse_344" data-name="Elipse 344" transform="translate(379.115 265.795)" fill="none" stroke="#92d050" stroke-linecap="round" stroke-width="1.5" stroke-dasharray="5">
        <circle cx="57.919" cy="57.919" r="57.919" stroke="none"/>
        <circle cx="57.919" cy="57.919" r="57.169" fill="none"/>
      </g>
      <path id="Trazado_5003" data-name="Trazado 5003" d="M47.99,0A47.99,47.99,0,1,1,0,47.99,47.99,47.99,0,0,1,47.99,0Z" transform="translate(389.044 275.723)" fill="#0c773d"/>
      <text id="Gerencia_AMBIDES" data-name="Gerencia
AMBIDES" transform="translate(436.788 319.959)" fill="#fff" font-size="15" font-family="HindVadodara-Medium, Hind Vadodara" font-weight="500"><tspan x="-28.77" y="0">Gerencia</tspan><tspan x="-30.562" y="17">AMBIDES</tspan></text>
      <text id="Administración" transform="translate(590.491 631.824)" fill="#fff" font-size="13" font-family="HindVadodara-Medium, Hind Vadodara" font-weight="500"><tspan x="-42.724" y="0">Administración</tspan></text>
      <text id="Sub_Gerencia_General" data-name="Sub
Gerencia
General" transform="translate(293.139 762.627)" fill="#fff" font-size="13" font-family="HindVadodara-Medium, Hind Vadodara" font-weight="500"><tspan x="-10.751" y="0">Sub</tspan><tspan x="-24.934" y="15">Gerencia</tspan><tspan x="-21.873" y="30">General</tspan></text>
      <text id="Contabilidad" transform="translate(482.995 779.278)" fill="#717171" font-size="12" font-family="HindVadodara-Medium, Hind Vadodara" font-weight="500"><tspan x="-33.414" y="0">Contabilidad</tspan></text>
      <text id="Sistemas" transform="translate(698.155 779.278)" fill="#717171" font-size="12" font-family="HindVadodara-Medium, Hind Vadodara" font-weight="500"><tspan x="-22.992" y="0">Sistemas</tspan></text>
      <text id="Área_de_Formulación_de_Proyectos_de_Inversión" data-name="Área de 
Formulación
de Proyectos
de Inversión" transform="translate(434.974 905.699)" fill="#717171" font-size="12" font-family="HindVadodara-Medium, Hind Vadodara" font-weight="500"><tspan x="-21.72" y="0">Área de </tspan><tspan x="-32.118" y="13">Formulación</tspan><tspan x="-33.966" y="26">de Proyectos</tspan><tspan x="-31.938" y="39">de Inversión</tspan></text>
      <text id="Área_de_Gestión_Ambiental" data-name="Área de 
Gestión
Ambiental" transform="translate(294.933 913.974)" fill="#717171" font-size="12" font-family="HindVadodara-Medium, Hind Vadodara" font-weight="500"><tspan x="-21.72" y="0">Área de </tspan><tspan x="-20.154" y="13">Gestión</tspan><tspan x="-27.066" y="26">Ambiental</tspan></text>
      <text id="Área_de_Ingeniería" data-name="Área de
Ingeniería" transform="translate(152.375 922.248)" fill="#717171" font-size="12" font-family="HindVadodara-Medium, Hind Vadodara" font-weight="500"><tspan x="-20.244" y="0">Área de</tspan><tspan x="-25.818" y="13">Ingeniería</tspan></text>
      <g id="Elipse_344-2" data-name="Elipse 344" transform="translate(609.165 402.594)" fill="none" stroke="#92d050" stroke-linecap="round" stroke-width="1.5" stroke-dasharray="5">
        <circle cx="57.919" cy="57.919" r="57.919" stroke="none"/>
        <circle cx="57.919" cy="57.919" r="57.169" fill="none"/>
      </g>
      <path id="Trazado_5003-2" data-name="Trazado 5003" d="M47.99,0A47.99,47.99,0,1,1,0,47.99,47.99,47.99,0,0,1,47.99,0Z" transform="translate(619.094 412.523)" fill="#359feb"/>
      <text id="Secretaria" transform="translate(667.085 464.032)" fill="#fff" font-size="12" font-family="HindVadodara-Medium, Hind Vadodara" font-weight="500"><tspan x="-26.022" y="0">Secretaria</tspan></text>
      <g id="Elipse_344-3" data-name="Elipse 344" transform="translate(150.198 351.846)" fill="none" stroke="#92d050" stroke-linecap="round" stroke-width="1.5" stroke-dasharray="5">
        <circle cx="57.919" cy="57.919" r="57.919" stroke="none"/>
        <circle cx="57.919" cy="57.919" r="57.169" fill="none"/>
      </g>
      <path id="Trazado_5003-3" data-name="Trazado 5003" d="M47.99,0A47.99,47.99,0,1,1,0,47.99,47.99,47.99,0,0,1,47.99,0Z" transform="translate(160.127 361.774)" fill="#359feb"/>
      <text id="Área_Legal" data-name="Área Legal" transform="translate(208.117 413.284)" fill="#fff" font-size="12" font-family="HindVadodara-Medium, Hind Vadodara" font-weight="500"><tspan x="-27.462" y="0">Área Legal</tspan></text>
    </g>
  </g>
</svg>
