<svg xmlns="http://www.w3.org/2000/svg" width="144" height="149" viewBox="0 0 144 149">
  <g id="Grupo_13701" data-name="Grupo 13701" transform="translate(-782 -4702)">
    <ellipse id="Elipse_360" data-name="Elipse 360" cx="72" cy="74.5" rx="72" ry="74.5" transform="translate(782 4702)" fill="#f1f1f1"/>
    <g id="Grupo_13667" data-name="Grupo 13667" transform="translate(-6534.977 3920.875)">
      <path id="Trazado_5298" data-name="Trazado 5298" d="M7346.175,839.7a30.038,30.038,0,0,1,59.735-4.554,29.478,29.478,0,0,1-6.113,23.178c-.556.719-.619,1.138.09,1.771,1.131,1.01,2.174,2.12,3.229,3.211a.875.875,0,0,0,1.12.218c3.951-1.618,7.41-.823,10.414,2.169q6.973,6.943,13.96,13.869a9.362,9.362,0,0,1,3.166,7.1,9.032,9.032,0,0,1-14.17,7.307,12.147,12.147,0,0,1-1.8-1.536q-6.974-6.941-13.924-13.907a8.982,8.982,0,0,1-1.961-10.987.9.9,0,0,0-.228-1.193c-1.066-1.037-2.146-2.067-3.146-3.165-.543-.594-.906-.546-1.5-.065a29.777,29.777,0,0,1-12.885,6.079,30.126,30.126,0,0,1-33.987-18.551A28.64,28.64,0,0,1,7346.175,839.7Zm4.461-.12A25.6,25.6,0,1,0,7376.251,814,25.522,25.522,0,0,0,7350.636,839.58Zm52.489,31.95a3.881,3.881,0,0,0,1.212,2.972q7.6,7.654,15.249,15.266a4.47,4.47,0,0,0,6.3-6.344q-7.6-7.657-15.268-15.248a4.209,4.209,0,0,0-4.807-.883A4.344,4.344,0,0,0,7403.125,871.53Z" transform="translate(0 0)" fill="#0067b3"/>
      <path id="Trazado_5299" data-name="Trazado 5299" d="M7393.288,890.478a18.676,18.676,0,0,1,4.705-12.926,7.122,7.122,0,0,1,.767-.777,2.276,2.276,0,0,1,3.139.029,2.239,2.239,0,0,1,.064,3.2,14.547,14.547,0,0,0-3.148,4.855,13.772,13.772,0,0,0,2.726,14.581c.139.16.3.306.427.472a2.284,2.284,0,0,1-.147,3.2,2.2,2.2,0,0,1-3.184-.133,17.425,17.425,0,0,1-4.031-6.111A16.427,16.427,0,0,1,7393.288,890.478Z" transform="translate(-35.638 -50.348)" fill="#00b050"/>
    </g>
  </g>
</svg>
