<svg xmlns="http://www.w3.org/2000/svg" width="142" height="144" viewBox="0 0 142 144">
  <g id="Grupo_13698" data-name="Grupo 13698" transform="translate(-888 -4451)">
    <ellipse id="Elipse_326" data-name="Elipse 326" cx="71" cy="72" rx="71" ry="72" transform="translate(888 4451)" fill="#f1f1f1"/>
    <g id="Grupo_13657" data-name="Grupo 13657" transform="translate(-4956.172 3621.44)">
      <path id="Trazado_5268" data-name="Trazado 5268" d="M5863.008,1050.1a2.742,2.742,0,0,1,2.631-1.42,21.947,21.947,0,0,1,3.757.1,2.11,2.11,0,0,1-.227,4.208c-1.355.05-2.714.019-4.071.009a2.653,2.653,0,0,1-2.091-1.27Z" transform="translate(0 -145.915)" fill="#0067b3"/>
      <path id="Trazado_5269" data-name="Trazado 5269" d="M5946.969,968.509c8.109,0,16.217.039,24.326-.025a5.608,5.608,0,0,1,5.162,2.8c3.57,5.568,7.186,11.108,10.769,16.668a4.895,4.895,0,0,1-.487,6.358q-15.9,17.859-31.816,35.712-1.962,2.2-3.911,4.421c-2.464,2.812-5.677,2.811-8.15.03q-14.812-16.651-29.642-33.287-3.079-3.458-6.148-6.925a4.845,4.845,0,0,1-.513-6.191q5.516-8.552,11.086-17.069a5.179,5.179,0,0,1,4.693-2.5C5930.548,968.533,5938.759,968.509,5946.969,968.509Zm4.282,58.808.215.129,30.3-34.019a1.989,1.989,0,0,0-.405-.125c-6.311,0-12.621,0-18.932-.017-.682,0-.835.4-1,.917q-4.425,14.39-8.864,28.774C5952.125,1024.421,5951.69,1025.87,5951.251,1027.317Zm-8.807.2a.9.9,0,0,0-.036-.8q-5-16.235-9.98-32.473c-.238-.78-.64-.959-1.387-.956-6,.025-12.01.011-18.015.021-.273,0-.6-.145-.865.216Zm4.389-1.121a5.194,5.194,0,0,0,.779-1.889q2.441-7.869,4.854-15.746c1.485-4.829,2.954-9.662,4.464-14.483.241-.771.123-1-.722-1q-9.262.042-18.524,0c-.926-.005-1.062.3-.733,1.057a7.552,7.552,0,0,1,.235.778q3.76,12.2,7.519,24.4C5945.393,1021.739,5946.084,1023.968,5946.833,1026.392Zm13.365-53.66c-2.78,0-5.561,0-8.34.007-.282,0-.677-.162-.82.192-.1.255.18.488.323.711,2.744,4.241,5.5,8.472,8.226,12.727.442.691.671.669,1.1,0,2.725-4.253,5.477-8.488,8.211-12.736.154-.238.511-.473.308-.789-.151-.236-.5-.111-.766-.112Q5964.318,972.726,5960.2,972.732Zm-35.6.141a1.745,1.745,0,0,0,.134.343q4.274,6.622,8.547,13.244c.434.675.647.42.973-.086,2.714-4.22,5.449-8.426,8.168-12.643.172-.267.559-.536.341-.876-.166-.26-.568-.119-.864-.12q-8.239-.009-16.478,0A1.113,1.113,0,0,0,5924.6,972.873Zm-4.181,16.077c2.749,0,5.5,0,8.245-.007.286,0,.669.152.836-.172.137-.267-.161-.49-.3-.709q-4.054-6.287-8.12-12.566c-.591-.911-.656-.905-1.284.058q-4.054,6.226-8.095,12.461c-.155.24-.5.48-.294.8.154.238.5.133.768.133Q5916.3,988.954,5920.422,988.95Zm53.086,0c2.71,0,5.421,0,8.131-.007.285,0,.664.147.832-.184.139-.275-.154-.493-.295-.71-2.741-4.238-5.5-8.468-8.225-12.714-.364-.566-.555-.752-1-.05-2.722,4.251-5.482,8.476-8.221,12.716-.52.8-.442.94.55.944C5968.02,988.957,5970.764,988.95,5973.508,988.95Zm-26.662,0c2.747,0,5.495-.013,8.242.008.828.006.95-.216.493-.916q-4.118-6.3-8.187-12.637c-.413-.644-.607-.5-.955.037-2.7,4.192-5.416,8.371-8.121,12.559-.154.24-.488.484-.277.8.158.239.5.145.766.146Q5942.827,988.954,5946.847,988.949Z" transform="translate(-31.785 -86.2)" fill="#00b050"/>
      <path id="Trazado_5270" data-name="Trazado 5270" d="M6059.184,861.427c0-2.1-.024-4.2.007-6.307a2.131,2.131,0,0,1,2.027-2.347c1.239-.058,2.037.693,2.252,2.122a2.69,2.69,0,0,1,.042.4c0,4.137.007,8.273-.006,12.41a2.893,2.893,0,0,1-.369,1.464,2.1,2.1,0,0,1-2.354.993,2.18,2.18,0,0,1-1.591-2.229C6059.162,865.767,6059.184,863.6,6059.184,861.427Z" transform="translate(-146.132)" fill="#0067b3"/>
      <path id="Trazado_5271" data-name="Trazado 5271" d="M5922.535,910.165a2.431,2.431,0,0,1,1.79.847c2.093,2.082,4.194,4.158,6.26,6.267a2.166,2.166,0,0,1,.24,3.181,2.1,2.1,0,0,1-3.167-.066c-2.225-2.14-4.394-4.34-6.553-6.547a2.124,2.124,0,0,1,1.431-3.682Z" transform="translate(-42.75 -42.756)" fill="#0067b3"/>
      <path id="Trazado_5272" data-name="Trazado 5272" d="M6182.621,912.589a2.192,2.192,0,0,1-.785,1.5c-2.1,2.112-4.2,4.23-6.328,6.322a2.148,2.148,0,1,1-3.041-2.99c2.115-2.15,4.257-4.273,6.394-6.4a2.154,2.154,0,0,1,2.509-.561A2.067,2.067,0,0,1,6182.621,912.589Z" transform="translate(-229.937 -42.835)" fill="#0067b3"/>
      <path id="Trazado_5273" data-name="Trazado 5273" d="M6243.48,1052.9c-.71,0-1.424.048-2.129-.011a2.087,2.087,0,0,1-1.983-2.063,2.031,2.031,0,0,1,1.8-2.111,15.371,15.371,0,0,1,4.646-.02,2.043,2.043,0,0,1,1.888,2.236,2.125,2.125,0,0,1-2.187,1.973c-.674.037-1.353.007-2.029.007Z" transform="translate(-280.365 -145.831)" fill="#0067b3"/>
      <path id="Trazado_5274" data-name="Trazado 5274" d="M6061.393,931.814a2.05,2.05,0,0,1,2.116,2.013,2.117,2.117,0,0,1-2.069,2.19,2.184,2.184,0,0,1-2.144-2.038A2.116,2.116,0,0,1,6061.393,931.814Z" transform="translate(-146.222 -58.883)" fill="#0067b3"/>
    </g>
  </g>
</svg>
