<svg xmlns="http://www.w3.org/2000/svg" width="142" height="144" viewBox="0 0 142 144">
  <g id="Grupo_13697" data-name="Grupo 13697" transform="translate(-1240.553 -4001.191)">
    <ellipse id="Elipse_326" data-name="Elipse 326" cx="71" cy="72" rx="71" ry="72" transform="translate(1240.553 4001.191)" fill="#f1f1f1"/>
    <g id="Grupo_13674" data-name="Grupo 13674" transform="translate(937.461 4213.064)">
      <g id="Grupo_13673" data-name="Grupo 13673" transform="translate(325.447 -188.492)">
        <path id="Trazado_5317" data-name="Trazado 5317" d="M8301.105,1344.369a30.718,30.718,0,0,1,5.351-6,70.437,70.437,0,0,1,25.98-15.427,53.643,53.643,0,0,1,18.837-2.854,58.194,58.194,0,0,1,21.379,5.013,70.473,70.473,0,0,1,22.193,15.148c.932.944,1.812,1.944,2.656,2.967a2.923,2.923,0,0,1,0,4.2,59.7,59.7,0,0,1-11.836,10.746,66.725,66.725,0,0,1-26.867,11.576,52.6,52.6,0,0,1-25.369-1.752,69.462,69.462,0,0,1-28.807-17.517,21.438,21.438,0,0,1-3.521-4.207Zm48.609-18.356A19.3,19.3,0,1,0,8369,1345.361,19.335,19.335,0,0,0,8349.715,1326.013Zm20.428,34.089c.435-.141.557-.171.67-.22.35-.148.7-.292,1.042-.456a71.05,71.05,0,0,0,18.867-13.36c.595-.579.615-.9.012-1.493a69.618,69.618,0,0,0-18.95-13.4c-.441-.21-.9-.392-1.345-.587a26.749,26.749,0,0,1,4.5,14.721A25.153,25.153,0,0,1,8370.143,1360.1Zm-41.017-29.561a39.392,39.392,0,0,0-5.1,2.483,71.671,71.671,0,0,0-15.471,11.656c-.514.5-.521.818.01,1.285.877.772,1.69,1.614,2.555,2.4a67.236,67.236,0,0,0,16.795,11.233,1.9,1.9,0,0,0,1.116.347C8322.889,1350.167,8322.887,1340.464,8329.126,1330.541Z" transform="translate(-8301.105 -1296.729)" fill="#0067b3"/>
        <path id="Trazado_5318" data-name="Trazado 5318" d="M8485.009,1228.055a3.327,3.327,0,0,1,1.991,3.439c-.078,1.987-.006,3.98-.024,5.97a2.92,2.92,0,1,1-5.831,0c-.018-1.99.055-3.983-.024-5.969a3.325,3.325,0,0,1,1.991-3.438Z" transform="translate(-8435.473 -1228.055)" fill="#0067b3"/>
        <path id="Trazado_5319" data-name="Trazado 5319" d="M8396.438,1244.3a2.768,2.768,0,0,1,2.321,1.459c1.3,2.235,2.6,4.473,3.836,6.744a2.936,2.936,0,0,1-5.071,2.957c-1.365-2.269-2.7-4.562-3.925-6.909A2.935,2.935,0,0,1,8396.438,1244.3Z" transform="translate(-8369.894 -1240.179)" fill="#0067b3"/>
        <path id="Trazado_5320" data-name="Trazado 5320" d="M8560.289,1244.3c2.383.015,3.891,2.118,3.008,3.99a63.818,63.818,0,0,1-4.214,7.417,2.918,2.918,0,0,1-5.01-2.9c1.306-2.491,2.729-4.922,4.175-7.335A2.463,2.463,0,0,1,8560.289,1244.3Z" transform="translate(-8489.724 -1240.181)" fill="#0067b3"/>
        <path id="Trazado_5321" data-name="Trazado 5321" d="M8396.419,1558.064c-2.366-.031-3.864-2.154-2.981-4a67.792,67.792,0,0,1,4.205-7.4,2.848,2.848,0,0,1,3.724-.8,2.812,2.812,0,0,1,1.307,3.654c-1.308,2.516-2.747,4.966-4.206,7.4A2.442,2.442,0,0,1,8396.419,1558.064Z" transform="translate(-8369.835 -1465.005)" fill="#0067b3"/>
        <path id="Trazado_5322" data-name="Trazado 5322" d="M8560.375,1558.044a2.754,2.754,0,0,1-2.244-1.439c-1.306-2.24-2.606-4.484-3.847-6.761a2.936,2.936,0,0,1,5.083-2.938c1.354,2.248,2.674,4.52,3.893,6.843A2.947,2.947,0,0,1,8560.375,1558.044Z" transform="translate(-8489.81 -1464.992)" fill="#0067b3"/>
        <path id="Trazado_5323" data-name="Trazado 5323" d="M8481.205,1568.321c0-1.136-.02-2.273.006-3.408a2.956,2.956,0,0,1,2.922-2.874,2.92,2.92,0,0,1,2.892,2.8q.063,3.5,0,7.006a2.818,2.818,0,0,1-2.914,2.745,2.866,2.866,0,0,1-2.9-2.77c0-.063,0-.126,0-.189Q8481.2,1569.977,8481.205,1568.321Z" transform="translate(-8435.534 -1477.354)" fill="#0067b3"/>
        <path id="Trazado_5324" data-name="Trazado 5324" d="M8453.983,1390.755a9.824,9.824,0,1,1,9.78,9.825A9.9,9.9,0,0,1,8453.983,1390.755Zm9.843-3.915a3.915,3.915,0,1,0,3.9,3.98A4.03,4.03,0,0,0,8463.826,1386.84Z" transform="translate(-8415.22 -1342.167)" fill="#0067b3"/>
      </g>
    </g>
  </g>
</svg>
