<svg xmlns="http://www.w3.org/2000/svg" width="44" height="28" viewBox="0 0 44 28">
  <g id="Grupo_13537" data-name="Grupo 13537" transform="translate(-0.155 -0.16)">
    <path id="Rectángulo_2261" data-name="Rectángulo 2261" d="M3,0H41a3,3,0,0,1,3,3V9a0,0,0,0,1,0,0H0A0,0,0,0,1,0,9V3A3,3,0,0,1,3,0Z" transform="translate(0.155 0.16)" fill="#cf1400"/>
    <rect id="Rectángulo_2260" data-name="Rectángulo 2260" width="44" height="10" transform="translate(0.155 9.16)" fill="#ffda00"/>
    <path id="Rectángulo_2262" data-name="Rectángulo 2262" d="M0,0H44a0,0,0,0,1,0,0V6a3,3,0,0,1-3,3H3A3,3,0,0,1,0,6V0A0,0,0,0,1,0,0Z" transform="translate(0.155 19.16)" fill="#007934"/>
  </g>
</svg>
