<svg xmlns="http://www.w3.org/2000/svg" xmlns:xlink="http://www.w3.org/1999/xlink" width="73" height="70" viewBox="0 0 58 63">
  <defs>
    <filter id="Elipse_315" x="0" y="0" width="62" height="63" filterUnits="userSpaceOnUse">
      <feOffset dy="3" input="SourceAlpha"/>
      <feGaussianBlur stdDeviation="3" result="blur"/>
      <feFlood flood-opacity="0.161"/>
      <feComposite operator="in" in2="blur"/>
      <feComposite in="SourceGraphic"/>
    </filter>
  </defs>
  <g id="Componente_208_1" data-name="Componente 208 – 1" transform="translate(9 6)">
    <rect id="Rectángulo_2152" data-name="Rectángulo 2152" width="3" height="45" transform="translate(22.001)" fill="#fff" opacity="0"/>
    <text id="Síguenos_en_facebook" data-name="Síguenos en facebook" transform="translate(20 13)" font-size="13" font-family="Gordita-Regular, Gordita" letter-spacing="0.01em" opacity="0"><tspan x="0" y="15">Sígue</tspan></text>
    <g id="Grupo_13190" data-name="Grupo 13190" transform="translate(-0.326)">
      <g transform="matrix(1, 0, 0, 1, -8.67, -6)" filter="url(#Elipse_315)">
        <ellipse id="Elipse_315-2" data-name="Elipse 315" cx="22" cy="22.5" rx="22" ry="22.5" transform="translate(9 6)" fill="#fff"/>
      </g>
      <path id="Trazado_4994" data-name="Trazado 4994" d="M-841.24,4267.126h-2.541v-4.569h2.534c0-.221,0-.39,0-.556a32.453,32.453,0,0,1,.108-3.5,4.677,4.677,0,0,1,4.646-4.336c1.537-.1,3.085-.019,4.665-.019v4.438h-.751c-.7,0-1.4-.013-2.1.006a1.009,1.009,0,0,0-1.13.98c-.047.97-.012,1.945-.012,2.961h4.1c-.158,1.545-.312,3.044-.469,4.581h-3.641V4280.1h-5.41Z" transform="translate(860.269 -4243.761)" fill="#039"/>
    </g>
  </g>
</svg>
