<svg xmlns="http://www.w3.org/2000/svg" width="23.636" height="23.636" viewBox="0 0 23.636 23.636">
  <path id="Icon_awesome-phone-alt" data-name="Icon awesome-phone-alt" d="M22.961,16.7l-5.17-2.216a1.108,1.108,0,0,0-1.293.319l-2.29,2.8a17.111,17.111,0,0,1-8.18-8.18l2.8-2.29A1.105,1.105,0,0,0,9.145,5.84L6.929.67A1.115,1.115,0,0,0,5.66.028L.859,1.136A1.108,1.108,0,0,0,0,2.216a21.418,21.418,0,0,0,21.42,21.42,1.108,1.108,0,0,0,1.08-.859l1.108-4.8A1.121,1.121,0,0,0,22.961,16.7Z" transform="translate(0 0)" fill="#fff"/>
</svg>
