<svg xmlns="http://www.w3.org/2000/svg" width="55" height="55" viewBox="0 0 55 55">
  <g id="Grupo_13374" data-name="Grupo 13374" transform="translate(-16.998 -54.93)">
    <rect id="Rectángulo_2167" data-name="Rectángulo 2167" width="55" height="55" rx="27.5" transform="translate(16.998 54.93)" fill="#d8d8d8"/>
    <path id="Icon_metro-file-pdf" data-name="Icon metro-file-pdf" d="M29.443,9.16a4.26,4.26,0,0,1,.879,1.391,4.225,4.225,0,0,1,.366,1.611V33.25a1.75,1.75,0,0,1-1.757,1.757H4.328A1.75,1.75,0,0,1,2.571,33.25V3.961A1.75,1.75,0,0,1,4.328,2.2h16.4a4.226,4.226,0,0,1,1.611.366,4.26,4.26,0,0,1,1.391.879ZM21.316,4.693v6.883H28.2a2,2,0,0,0-.4-.751L22.066,5.1a2,2,0,0,0-.751-.4Zm7.029,27.971V13.919H20.73a1.75,1.75,0,0,1-1.757-1.757V4.547H4.914V32.664H28.345ZM18.936,21.809a13.928,13.928,0,0,0,1.538,1.025,18.166,18.166,0,0,1,2.142-.128q2.691,0,3.24.9a.885.885,0,0,1,.037.952.053.053,0,0,1-.018.037l-.037.037v.018q-.11.7-1.3.7a7.551,7.551,0,0,1-2.105-.366,13.348,13.348,0,0,1-2.38-.97,32.962,32.962,0,0,0-7.176,1.519q-2.8,4.8-4.43,4.8a1.065,1.065,0,0,1-.513-.128l-.439-.22q-.018-.018-.11-.092a.756.756,0,0,1-.11-.659A3.975,3.975,0,0,1,8.3,27.547a8.847,8.847,0,0,1,2.416-1.766.267.267,0,0,1,.421.11.105.105,0,0,1,.037.073q.952-1.556,1.959-3.606a27.939,27.939,0,0,0,1.9-4.8,14.8,14.8,0,0,1-.558-2.92,7.117,7.117,0,0,1,.119-2.334q.2-.732.769-.732h.4a.772.772,0,0,1,.641.275,1.462,1.462,0,0,1,.165,1.245.4.4,0,0,1-.073.146.476.476,0,0,1,.018.146v.549a23.971,23.971,0,0,1-.256,3.515,9.261,9.261,0,0,0,2.673,4.357ZM8.392,29.332A8.083,8.083,0,0,0,10.9,26.44a10.435,10.435,0,0,0-1.6,1.538A6.084,6.084,0,0,0,8.392,29.332Zm7.286-16.841a5.443,5.443,0,0,0-.037,2.416q.018-.128.128-.805,0-.055.128-.787a.412.412,0,0,1,.073-.146.053.053,0,0,1-.018-.037.037.037,0,0,0-.009-.027.037.037,0,0,1-.009-.027,1.054,1.054,0,0,0-.238-.659.053.053,0,0,1-.018.037v.037Zm-2.27,12.1a26.85,26.85,0,0,1,5.2-1.483,2.76,2.76,0,0,1-.238-.174,3.279,3.279,0,0,1-.293-.247,9.7,9.7,0,0,1-2.325-3.222,24.462,24.462,0,0,1-1.519,3.606q-.549,1.025-.824,1.519ZM25.233,24.3q-.439-.439-2.563-.439a6.924,6.924,0,0,0,2.27.513,1.776,1.776,0,0,0,.33-.018q0-.018-.037-.055Z" transform="translate(27.869 63.825)" fill="#92d050"/>
  </g>
</svg>
