<svg xmlns="http://www.w3.org/2000/svg" xmlns:xlink="http://www.w3.org/1999/xlink" width="62" height="62" viewBox="0 0 62 62">
  <defs>
    <filter id="Elipse_316" x="0" y="0" width="62" height="62" filterUnits="userSpaceOnUse">
      <feOffset dy="3" input="SourceAlpha"/>
      <feGaussianBlur stdDeviation="3" result="blur"/>
      <feFlood flood-opacity="0.161"/>
      <feComposite operator="in" in2="blur"/>
      <feComposite in="SourceGraphic"/>
    </filter>
  </defs>
  <g id="Grupo_13189" data-name="Grupo 13189" transform="translate(8.675 5.627)">
    <g transform="matrix(1, 0, 0, 1, -8.67, -5.63)" filter="url(#Elipse_316)">
      <circle id="Elipse_316-2" data-name="Elipse 316" cx="22" cy="22" r="22" transform="translate(9 6)" fill="#fff"/>
    </g>
    <g id="Grupo_13187" data-name="Grupo 13187" transform="translate(9.905 9.963)">
      <path id="Trazado_4731" data-name="Trazado 4731" d="M-894.342,4708.516a6.761,6.761,0,0,1,6.314,6.295,27.127,27.127,0,0,1,.156,2.709c0,3.065,0,6.131-.079,9.2a7.258,7.258,0,0,1-2.217,5.353,7.163,7.163,0,0,1-4.952,1.9c-3.734.058-7.472.074-11.206,0a6.924,6.924,0,0,1-5.942-3.062,7.377,7.377,0,0,1-1.225-4.1c-.042-3.734-.07-7.473.006-11.207a6.915,6.915,0,0,1,3.061-5.942,7.663,7.663,0,0,1,4.184-1.232C-904.405,4708.381-896.462,4708.339-894.342,4708.516Zm-16.979,12.634c.056,1.983.06,3.926.178,5.862a4.48,4.48,0,0,0,4.6,4.6q5.836.157,11.679,0a4.416,4.416,0,0,0,4.54-4.552q.153-5.837,0-11.682a4.421,4.421,0,0,0-4.563-4.574c-3.673-.117-7.351-.078-11.026-.074a6.016,6.016,0,0,0-2.835.638,4.452,4.452,0,0,0-2.386,3.925C-911.255,4717.25-911.264,4719.222-911.321,4721.149Z" transform="translate(913.535 -4708.387)" fill="#039"/>
      <path id="Trazado_4732" data-name="Trazado 4732" d="M-893.776,4739.591c.057-1.928.065-3.9.187-5.864a4.453,4.453,0,0,1,2.386-3.926,6,6,0,0,1,2.835-.638c3.676,0,7.354-.043,11.026.073a4.422,4.422,0,0,1,4.563,4.574q.155,5.837,0,11.683a4.415,4.415,0,0,1-4.54,4.552q-5.836.156-11.679,0a4.482,4.482,0,0,1-4.6-4.6C-893.716,4743.517-893.72,4741.574-893.776,4739.591Zm10.586-6.555a6.6,6.6,0,0,0-6.6,6.6,6.6,6.6,0,0,0,6.617,6.619,6.6,6.6,0,0,0,6.6-6.6A6.6,6.6,0,0,0-883.19,4733.036Zm6.887,1.271a1.529,1.529,0,0,0,1.535-1.519,1.531,1.531,0,0,0-1.544-1.556,1.526,1.526,0,0,0-1.532,1.564A1.523,1.523,0,0,0-876.3,4734.306Z" transform="translate(895.99 -4726.827)" fill="#fff"/>
      <path id="Trazado_4733" data-name="Trazado 4733" d="M-851.584,4763.791a6.6,6.6,0,0,1,6.617,6.618,6.6,6.6,0,0,1-6.6,6.6,6.6,6.6,0,0,1-6.617-6.621A6.6,6.6,0,0,1-851.584,4763.791Zm4.3,6.586a4.3,4.3,0,0,0-4.3-4.27,4.3,4.3,0,0,0-4.28,4.29,4.3,4.3,0,0,0,4.323,4.293A4.3,4.3,0,0,0-847.284,4770.377Z" transform="translate(864.383 -4757.583)" fill="#039"/>
      <path id="Trazado_4734" data-name="Trazado 4734" d="M-750.06,4750.753a1.525,1.525,0,0,1-1.541-1.512,1.528,1.528,0,0,1,1.532-1.565,1.532,1.532,0,0,1,1.544,1.557A1.531,1.531,0,0,1-750.06,4750.753Z" transform="translate(769.747 -4743.274)" fill="#039"/>
      <path id="Trazado_4735" data-name="Trazado 4735" d="M-828.922,4788.731a4.3,4.3,0,0,1-4.258,4.312,4.3,4.3,0,0,1-4.323-4.291,4.3,4.3,0,0,1,4.28-4.292A4.3,4.3,0,0,1-828.922,4788.731Z" transform="translate(846.02 -4775.936)" fill="#fff"/>
    </g>
  </g>
</svg>
