<svg xmlns="http://www.w3.org/2000/svg" width="236.695" height="100.465" viewBox="0 0 236.695 100.465">
  <g id="Grupo_13543" data-name="Grupo 13543" transform="translate(-3014.058 -695.864)">
    <g id="text8" transform="translate(3058.438 747.9)" style="isolation: isolate">
      <g id="Grupo_13543-2" data-name="Grupo 13543" transform="translate(0 0)" style="isolation: isolate">
        <path id="Trazado_5139" data-name="Trazado 5139" d="M3217.666,944.4l-1.689-5.891h-8.009l-1.795,5.891h-7.449l9.229-29.894h9.7l9.376,29.894Zm-8.137-12.418h4.836l-2.418-8.672Z" transform="translate(-3198.724 -914.049)" fill="#fff"/>
        <path id="Trazado_5140" data-name="Trazado 5140" d="M3361.6,914.509V944.4h-8.52V923.028l-5.53,21.375h-5.825l-5.749-21.375V944.4H3329.1V914.509h11.991l4.336,15.878,4.139-15.878Z" transform="translate(-3298.037 -914.049)" fill="#fff"/>
        <path id="Trazado_5141" data-name="Trazado 5141" d="M3487.393,944.4V914.509h15.177q4.73,0,6.9,2.387a7.884,7.884,0,0,1,2.168,5.453,6.9,6.9,0,0,1-1.259,4.041,6.438,6.438,0,0,1-3.756,2.486q5.8,1.4,5.8,6.964a9.39,9.39,0,0,1-2.048,5.946q-2.048,2.617-8.75,2.617Zm8.453-18.44h4.249a2.754,2.754,0,0,0,2.256-.81,2.7,2.7,0,0,0,.657-1.73q0-2.5-3.066-2.5h-4.1Zm0,11.782h4.468a3.225,3.225,0,0,0,2.442-.821,2.628,2.628,0,0,0,.777-1.851,2.822,2.822,0,0,0-.755-1.894,3.573,3.573,0,0,0-2.771-.865h-4.161Z" transform="translate(-3418.62 -914.049)" fill="#fff"/>
        <path id="Trazado_5142" data-name="Trazado 5142" d="M3617.544,914.509V944.4h-9.176V914.509Z" transform="translate(-3510.774 -914.049)" fill="#fff"/>
        <path id="Trazado_5143" data-name="Trazado 5143" d="M3668.763,944.4V914.509h11.563q7.533,0,11.279,4.468a15.616,15.616,0,0,1,3.745,10.337,15.1,15.1,0,0,1-4.019,10.9A13.8,13.8,0,0,1,3680.9,944.4Zm9.176-6.877h2.387a4.6,4.6,0,0,0,3.844-2.212,10.256,10.256,0,0,0,1.566-6.023,10.913,10.913,0,0,0-1.391-5.629,4.411,4.411,0,0,0-4.019-2.365h-2.387Z" transform="translate(-3556.78 -914.049)" fill="#fff"/>
        <path id="Trazado_5144" data-name="Trazado 5144" d="M3819.124,937.264V944.4h-22.492V914.509h22.492v6.9h-13.491v4.336h10.907v6.636h-10.907v4.884Z" transform="translate(-3654.185 -914.049)" fill="#fff"/>
        <path id="Trazado_5145" data-name="Trazado 5145" d="M3893.338,934.282l8.52-1.533q1.074,3.614,5.519,3.613,3.461,0,3.46-1.839a1.709,1.709,0,0,0-.8-1.5,8.6,8.6,0,0,0-2.858-.952q-7.864-1.507-10.1-3.939a8.177,8.177,0,0,1-2.233-5.718,8.949,8.949,0,0,1,3.208-7.032q3.209-2.8,9.231-2.8,9.133,0,12.067,7.337l-7.6,2.3q-1.182-3-4.8-3-3,0-3,1.861a1.472,1.472,0,0,0,.679,1.292,8.293,8.293,0,0,0,2.628.875,55.471,55.471,0,0,1,7.622,2.008,8.215,8.215,0,0,1,3.767,2.988,8.354,8.354,0,0,1,1.51,4.986,8.832,8.832,0,0,1-3.679,7.353q-3.68,2.816-9.658,2.816Q3895.9,943.392,3893.338,934.282Z" transform="translate(-3727.852 -912.578)" fill="#fff"/>
      </g>
    </g>
    <g id="text12" transform="translate(3014.914 785.453)" style="isolation: isolate">
      <g id="Grupo_13544" data-name="Grupo 13544" style="isolation: isolate">
        <path id="Trazado_5146" data-name="Trazado 5146" d="M3016.037,1080.65l3.175-8.154h1.7l3.173,8.154h-1.744l-.847-2.176h-3.376l-.848,2.176Zm2.505-3.262h2.531l-1.265-3.25Z" transform="translate(-3016.037 -1071.951)" fill="#fff"/>
        <path id="Trazado_5147" data-name="Trazado 5147" d="M3055.414,1086.939v-6.05h1.564v1.14a2.815,2.815,0,0,1,.81-.915,2.036,2.036,0,0,1,1.229-.364,1.992,1.992,0,0,1,.766.135,1.534,1.534,0,0,1,.576.424,1.422,1.422,0,0,1,.322.719,3.306,3.306,0,0,1,.916-.981,2.054,2.054,0,0,1,1.131-.3,1.676,1.676,0,0,1,1.2.433,1.846,1.846,0,0,1,.459,1.4v4.358h-1.565v-3.828a1.232,1.232,0,0,0-.217-.877.7.7,0,0,0-.487-.2,1.217,1.217,0,0,0-.728.266,3.061,3.061,0,0,0-.707.8v3.843h-1.564v-3.824a1.262,1.262,0,0,0-.212-.876.709.709,0,0,0-.509-.2,1.2,1.2,0,0,0-.713.263,3.046,3.046,0,0,0-.7.8v3.843Z" transform="translate(-3046.033 -1078.24)" fill="#fff"/>
        <path id="Trazado_5148" data-name="Trazado 5148" d="M3102.1,1078.906v-8.7h1.63v3.8a2.318,2.318,0,0,1,.8-.963,2.05,2.05,0,0,1,1.152-.321,1.987,1.987,0,0,1,1.705.827,3.6,3.6,0,0,1,.6,2.171,4.011,4.011,0,0,1-.674,2.374,2.171,2.171,0,0,1-1.879.953,2.492,2.492,0,0,1-.625-.075,2.092,2.092,0,0,1-.541-.223,2.6,2.6,0,0,1-.54-.452l-.3.612Zm1.63-1.58a2.056,2.056,0,0,0,.635.523,1.415,1.415,0,0,0,.6.138,1.027,1.027,0,0,0,.968-.646,3.318,3.318,0,0,0,.318-1.483,2.591,2.591,0,0,0-.3-1.359.959.959,0,0,0-.864-.5,1.209,1.209,0,0,0-.7.25,2.8,2.8,0,0,0-.654.679Z" transform="translate(-3081.596 -1070.207)" fill="#fff"/>
        <path id="Trazado_5149" data-name="Trazado 5149" d="M3134.237,1072.7v-1.361h1.631v1.361Zm0,7.069v-6.05h1.631v6.05Z" transform="translate(-3106.077 -1071.07)" fill="#fff"/>
        <path id="Trazado_5150" data-name="Trazado 5150" d="M3153.567,1086.735a7.737,7.737,0,0,1-2.19.342,3.807,3.807,0,0,1-1.717-.367,2.505,2.505,0,0,1-1.134-1.146,3.816,3.816,0,0,1-.061-3.261,2.672,2.672,0,0,1,.981-1.135,2.859,2.859,0,0,1,1.585-.416,2.4,2.4,0,0,1,1.845.738,4.09,4.09,0,0,1,.69,2.749h-3.718a2.171,2.171,0,0,0,.275.964,1.6,1.6,0,0,0,.6.559,2.106,2.106,0,0,0,1.01.207,5.327,5.327,0,0,0,1.834-.38Zm-3.746-3.416h2.143a1.99,1.99,0,0,0-.274-1.19.856.856,0,0,0-.71-.358.942.942,0,0,0-.778.394A2.245,2.245,0,0,0,3149.821,1083.319Z" transform="translate(-3116.66 -1078.24)" fill="#fff"/>
        <path id="Trazado_5151" data-name="Trazado 5151" d="M3178.9,1086.939v-6.05h1.631v1.14a2.746,2.746,0,0,1,.975-.989,2.257,2.257,0,0,1,1.085-.289,1.787,1.787,0,0,1,1.231.46,1.854,1.854,0,0,1,.515,1.452v4.275h-1.63v-3.873a1.662,1.662,0,0,0-.091-.672.64.64,0,0,0-.248-.267.688.688,0,0,0-.35-.091,1.341,1.341,0,0,0-.7.223,2.831,2.831,0,0,0-.788.873v3.807Z" transform="translate(-3140.102 -1078.24)" fill="#fff"/>
        <path id="Trazado_5152" data-name="Trazado 5152" d="M3211.964,1083.489a3.509,3.509,0,0,1-.92.171,2.765,2.765,0,0,1-1.24-.226,1.55,1.55,0,0,1-.661-.614,2.366,2.366,0,0,1-.22-1.143v-3.184h-.678v-1.019h.678v-1.019l1.631-.187v1.206h1.295v1.019h-1.295v2.965a1.252,1.252,0,0,0,.232.883.924.924,0,0,0,.677.228,2.329,2.329,0,0,0,.5-.066Z" transform="translate(-3162.453 -1074.823)" fill="#fff"/>
        <path id="Trazado_5153" data-name="Trazado 5153" d="M3233.889,1086.735a7.744,7.744,0,0,1-2.19.342,3.809,3.809,0,0,1-1.717-.367,2.507,2.507,0,0,1-1.133-1.146,3.814,3.814,0,0,1-.06-3.261,2.665,2.665,0,0,1,.98-1.135,2.859,2.859,0,0,1,1.585-.416,2.406,2.406,0,0,1,1.845.738,4.089,4.089,0,0,1,.69,2.749h-3.719a2.177,2.177,0,0,0,.276.964,1.6,1.6,0,0,0,.6.559,2.107,2.107,0,0,0,1.01.207,5.331,5.331,0,0,0,1.835-.38Zm-3.747-3.416h2.143a1.988,1.988,0,0,0-.275-1.19.855.855,0,0,0-.71-.358.942.942,0,0,0-.778.394A2.245,2.245,0,0,0,3230.142,1083.319Z" transform="translate(-3177.845 -1078.24)" fill="#fff"/>
        <path id="Trazado_5154" data-name="Trazado 5154" d="M3272.427,1089.556l1.372-2.176-2.242-6.05h1.752l1.5,4.045,1.778-4.045h1.24l-3.735,8.226Z" transform="translate(-3210.681 -1078.68)" fill="#fff"/>
        <path id="Trazado_5155" data-name="Trazado 5155" d="M3319.358,1080.65V1072.5h3.509a4.432,4.432,0,0,1,2.2.452,3.233,3.233,0,0,1,1.25,1.331,4.479,4.479,0,0,1,.466,2.124,5.133,5.133,0,0,1-.443,2.176,3.555,3.555,0,0,1-1.292,1.515,4.2,4.2,0,0,1-2.325.557Zm1.7-1.157h1.267a3.035,3.035,0,0,0,1.518-.309,2.08,2.08,0,0,0,.832-1.044,4.241,4.241,0,0,0,.305-1.639,3.734,3.734,0,0,0-.3-1.532,2.281,2.281,0,0,0-.824-1.011,3.4,3.4,0,0,0-1.777-.344h-1.025Z" transform="translate(-3247.095 -1071.951)" fill="#fff"/>
        <path id="Trazado_5156" data-name="Trazado 5156" d="M3360.842,1086.735a7.742,7.742,0,0,1-2.19.342,3.805,3.805,0,0,1-1.717-.367,2.505,2.505,0,0,1-1.134-1.146,3.678,3.678,0,0,1-.4-1.694,3.64,3.64,0,0,1,.337-1.567,2.668,2.668,0,0,1,.98-1.135,2.86,2.86,0,0,1,1.585-.416,2.4,2.4,0,0,1,1.845.738,4.088,4.088,0,0,1,.69,2.749h-3.719a2.171,2.171,0,0,0,.275.964,1.6,1.6,0,0,0,.6.559,2.106,2.106,0,0,0,1.01.207,5.331,5.331,0,0,0,1.835-.38Zm-3.746-3.416h2.143a1.992,1.992,0,0,0-.274-1.19.856.856,0,0,0-.71-.358.942.942,0,0,0-.778.394A2.241,2.241,0,0,0,3357.1,1083.319Z" transform="translate(-3274.553 -1078.24)" fill="#fff"/>
        <path id="Trazado_5157" data-name="Trazado 5157" d="M3385.508,1086.746v-1.2a5.557,5.557,0,0,0,2.072.507,1.242,1.242,0,0,0,.73-.193.58.58,0,0,0,.272-.49.554.554,0,0,0-.2-.435,2.32,2.32,0,0,0-.622-.336l-.551-.221a3.692,3.692,0,0,1-1.261-.755,1.436,1.436,0,0,1-.408-1.063,1.621,1.621,0,0,1,.614-1.3,2.884,2.884,0,0,1,1.876-.512,8.716,8.716,0,0,1,1.758.215v1.146a5.16,5.16,0,0,0-1.625-.342,1.354,1.354,0,0,0-.76.174.522.522,0,0,0-.088.829,1.639,1.639,0,0,0,.584.325l.474.182a4.049,4.049,0,0,1,1.537.865,1.521,1.521,0,0,1,.358,1.014,1.737,1.737,0,0,1-.658,1.342,2.827,2.827,0,0,1-1.915.576A7.641,7.641,0,0,1,3385.508,1086.746Z" transform="translate(-3297.485 -1078.24)" fill="#fff"/>
        <path id="Trazado_5158" data-name="Trazado 5158" d="M3414.866,1086.289a3.319,3.319,0,0,1-.612.49,2.214,2.214,0,0,1-.54.223,2.318,2.318,0,0,1-.595.075,1.7,1.7,0,0,1-1.785-1.741,1.851,1.851,0,0,1,.73-1.49,3.739,3.739,0,0,1,2.366-.6h.436v-.551a.816.816,0,0,0-.309-.749,1.453,1.453,0,0,0-.782-.193,3.928,3.928,0,0,0-1.912.54v-1.124a6.19,6.19,0,0,1,2.2-.419,3.683,3.683,0,0,1,1.2.182,1.856,1.856,0,0,1,.846.565,1.763,1.763,0,0,1,.316,1.143v2.678q0,.491.151.6a.51.51,0,0,0,.3.11,1.412,1.412,0,0,0,.221-.022l.038.915a3.268,3.268,0,0,1-.919.154,1.842,1.842,0,0,1-.78-.152,1.042,1.042,0,0,1-.5-.636Zm0-.876v-1.229h-.386a2.03,2.03,0,0,0-1.19.284.847.847,0,0,0-.392.708.75.75,0,0,0,.237.57.786.786,0,0,0,.557.223,1.346,1.346,0,0,0,.582-.14A2.423,2.423,0,0,0,3414.866,1085.413Z" transform="translate(-3317.158 -1078.24)" fill="#fff"/>
        <path id="Trazado_5159" data-name="Trazado 5159" d="M3442.316,1086.939v-6.05h1.631v1.14a2.413,2.413,0,0,1,.8-.931,1.952,1.952,0,0,1,1.129-.347,1.435,1.435,0,0,1,.3.033v1.454a1.86,1.86,0,0,0-.645-.127,1.647,1.647,0,0,0-.881.245,2.235,2.235,0,0,0-.705.741v3.84Z" transform="translate(-3340.759 -1078.24)" fill="#fff"/>
        <path id="Trazado_5160" data-name="Trazado 5160" d="M3464.6,1086.939v-6.05h1.631v1.14a2.415,2.415,0,0,1,.8-.931,1.951,1.951,0,0,1,1.129-.347,1.427,1.427,0,0,1,.3.033v1.454a1.859,1.859,0,0,0-.645-.127,1.646,1.646,0,0,0-.882.245,2.233,2.233,0,0,0-.705.741v3.84Z" transform="translate(-3357.736 -1078.24)" fill="#fff"/>
        <path id="Trazado_5161" data-name="Trazado 5161" d="M3487.748,1087.077a3.469,3.469,0,0,1-1.683-.383,2.53,2.53,0,0,1-1.072-1.127,3.895,3.895,0,0,1-.006-3.3,2.526,2.526,0,0,1,1.069-1.129,3.881,3.881,0,0,1,3.385,0,2.546,2.546,0,0,1,1.069,1.129,3.883,3.883,0,0,1,0,3.3,2.53,2.53,0,0,1-1.072,1.127A3.483,3.483,0,0,1,3487.748,1087.077Zm0-1.019a1.133,1.133,0,0,0,1.044-.609,3.541,3.541,0,0,0,0-3.066,1.193,1.193,0,0,0-2.083,0,3.532,3.532,0,0,0,0,3.066A1.127,1.127,0,0,0,3487.748,1086.058Z" transform="translate(-3372.987 -1078.24)" fill="#fff"/>
        <path id="Trazado_5162" data-name="Trazado 5162" d="M3517.9,1078.906v-8.7h1.631v8.7Z" transform="translate(-3398.332 -1070.207)" fill="#fff"/>
        <path id="Trazado_5163" data-name="Trazado 5163" d="M3534.056,1078.906v-8.7h1.631v8.7Z" transform="translate(-3410.642 -1070.207)" fill="#fff"/>
        <path id="Trazado_5164" data-name="Trazado 5164" d="M3551.072,1087.077a3.471,3.471,0,0,1-1.683-.383,2.528,2.528,0,0,1-1.071-1.127,3.89,3.89,0,0,1-.005-3.3,2.523,2.523,0,0,1,1.069-1.129,3.881,3.881,0,0,1,3.385,0,2.549,2.549,0,0,1,1.069,1.129,3.883,3.883,0,0,1,0,3.3,2.527,2.527,0,0,1-1.072,1.127A3.481,3.481,0,0,1,3551.072,1087.077Zm0-1.019a1.132,1.132,0,0,0,1.044-.609,3.534,3.534,0,0,0,0-3.066,1.192,1.192,0,0,0-2.083,0,3.537,3.537,0,0,0,0,3.066A1.127,1.127,0,0,0,3551.072,1086.058Z" transform="translate(-3421.224 -1078.24)" fill="#fff"/>
        <path id="Trazado_5165" data-name="Trazado 5165" d="M3595.129,1079.927v-1.4a7.18,7.18,0,0,0,1.427.479,5.33,5.33,0,0,0,.868.078,1.542,1.542,0,0,0,1.067-.32,1,1,0,0,0,.352-.767,1.038,1.038,0,0,0-.2-.617,3.3,3.3,0,0,0-.964-.7l-.55-.3a5.16,5.16,0,0,1-1.6-1.213,2.144,2.144,0,0,1,.281-2.867,2.861,2.861,0,0,1,2.023-.656,10.12,10.12,0,0,1,2.22.281v1.306a6.188,6.188,0,0,0-2.008-.469,1.433,1.433,0,0,0-.937.267.809.809,0,0,0-.321.642.845.845,0,0,0,.2.535,3.538,3.538,0,0,0,.958.678l.589.325a5.225,5.225,0,0,1,1.723,1.311,2.319,2.319,0,0,1-.4,2.974,3.494,3.494,0,0,1-2.432.71A11.375,11.375,0,0,1,3595.129,1079.927Z" transform="translate(-3457.153 -1071.299)" fill="#fff"/>
        <path id="Trazado_5166" data-name="Trazado 5166" d="M3625.773,1087.077a3.47,3.47,0,0,1-1.683-.383,2.527,2.527,0,0,1-1.072-1.127,3.892,3.892,0,0,1-.006-3.3,2.525,2.525,0,0,1,1.069-1.129,3.881,3.881,0,0,1,3.385,0,2.549,2.549,0,0,1,1.069,1.129,3.881,3.881,0,0,1,0,3.3,2.529,2.529,0,0,1-1.071,1.127A3.483,3.483,0,0,1,3625.773,1087.077Zm0-1.019a1.132,1.132,0,0,0,1.044-.609,3.534,3.534,0,0,0,0-3.066,1.192,1.192,0,0,0-2.083,0,3.534,3.534,0,0,0,0,3.066A1.127,1.127,0,0,0,3625.773,1086.058Z" transform="translate(-3478.129 -1078.24)" fill="#fff"/>
        <path id="Trazado_5167" data-name="Trazado 5167" d="M3655.25,1086.746v-1.2a5.555,5.555,0,0,0,2.072.507,1.241,1.241,0,0,0,.73-.193.579.579,0,0,0,.272-.49.554.554,0,0,0-.2-.435,2.328,2.328,0,0,0-.623-.336l-.551-.221a3.692,3.692,0,0,1-1.261-.755,1.435,1.435,0,0,1-.408-1.063,1.619,1.619,0,0,1,.615-1.3,2.883,2.883,0,0,1,1.875-.512,8.718,8.718,0,0,1,1.758.215v1.146a5.16,5.16,0,0,0-1.625-.342,1.354,1.354,0,0,0-.76.174.523.523,0,0,0-.088.829,1.649,1.649,0,0,0,.584.325l.474.182a4.05,4.05,0,0,1,1.538.865,1.523,1.523,0,0,1,.358,1.014,1.737,1.737,0,0,1-.658,1.342,2.826,2.826,0,0,1-1.915.576A7.637,7.637,0,0,1,3655.25,1086.746Z" transform="translate(-3502.963 -1078.24)" fill="#fff"/>
        <path id="Trazado_5168" data-name="Trazado 5168" d="M3684.656,1083.489a3.507,3.507,0,0,1-.92.171,2.766,2.766,0,0,1-1.24-.226,1.548,1.548,0,0,1-.661-.614,2.366,2.366,0,0,1-.22-1.143v-3.184h-.678v-1.019h.678v-1.019l1.63-.187v1.206h1.295v1.019h-1.295v2.965a1.25,1.25,0,0,0,.232.883.924.924,0,0,0,.677.228,2.325,2.325,0,0,0,.5-.066Z" transform="translate(-3522.53 -1074.823)" fill="#fff"/>
        <path id="Trazado_5169" data-name="Trazado 5169" d="M3706.581,1086.735a7.742,7.742,0,0,1-2.19.342,3.809,3.809,0,0,1-1.717-.367,2.505,2.505,0,0,1-1.134-1.146,3.814,3.814,0,0,1-.06-3.261,2.667,2.667,0,0,1,.98-1.135,2.859,2.859,0,0,1,1.585-.416,2.4,2.4,0,0,1,1.845.738,4.09,4.09,0,0,1,.69,2.749h-3.719a2.17,2.17,0,0,0,.276.964,1.6,1.6,0,0,0,.6.559,2.108,2.108,0,0,0,1.01.207,5.332,5.332,0,0,0,1.835-.38Zm-3.747-3.416h2.144a1.99,1.99,0,0,0-.275-1.19.855.855,0,0,0-.71-.358.942.942,0,0,0-.778.394A2.25,2.25,0,0,0,3702.834,1083.319Z" transform="translate(-3537.922 -1078.24)" fill="#fff"/>
        <path id="Trazado_5170" data-name="Trazado 5170" d="M3731.918,1086.939v-6.05h1.631v1.14a2.742,2.742,0,0,1,.975-.989,2.256,2.256,0,0,1,1.085-.289,1.786,1.786,0,0,1,1.231.46,1.855,1.855,0,0,1,.515,1.452v4.275h-1.631v-3.873a1.662,1.662,0,0,0-.091-.672.639.639,0,0,0-.248-.267.687.687,0,0,0-.35-.091,1.341,1.341,0,0,0-.7.223,2.831,2.831,0,0,0-.788.873v3.807Z" transform="translate(-3561.366 -1078.24)" fill="#fff"/>
        <path id="Trazado_5171" data-name="Trazado 5171" d="M3763.78,1072.7v-1.361h1.631v1.361Zm0,7.069v-6.05h1.631v6.05Z" transform="translate(-3585.636 -1071.07)" fill="#fff"/>
        <path id="Trazado_5172" data-name="Trazado 5172" d="M3779.938,1078.906v-8.7h1.631v3.8a2.32,2.32,0,0,1,.8-.963,2.052,2.052,0,0,1,1.152-.321,1.986,1.986,0,0,1,1.706.827,3.6,3.6,0,0,1,.6,2.171,4.01,4.01,0,0,1-.674,2.374,2.17,2.17,0,0,1-1.879.953,2.489,2.489,0,0,1-.625-.075,2.094,2.094,0,0,1-.541-.223,2.607,2.607,0,0,1-.541-.452l-.3.612Zm1.631-1.58a2.056,2.056,0,0,0,.635.523,1.417,1.417,0,0,0,.6.138,1.028,1.028,0,0,0,.969-.646,3.324,3.324,0,0,0,.317-1.483,2.6,2.6,0,0,0-.3-1.359.96.96,0,0,0-.864-.5,1.207,1.207,0,0,0-.7.25,2.787,2.787,0,0,0-.654.679Z" transform="translate(-3597.945 -1070.207)" fill="#fff"/>
        <path id="Trazado_5173" data-name="Trazado 5173" d="M3812.077,1078.906v-8.7h1.63v8.7Z" transform="translate(-3622.427 -1070.207)" fill="#fff"/>
        <path id="Trazado_5174" data-name="Trazado 5174" d="M3831.407,1086.735a7.74,7.74,0,0,1-2.19.342,3.8,3.8,0,0,1-1.716-.367,2.5,2.5,0,0,1-1.134-1.146,3.678,3.678,0,0,1-.4-1.694,3.64,3.64,0,0,1,.337-1.567,2.666,2.666,0,0,1,.98-1.135,2.861,2.861,0,0,1,1.585-.416,2.4,2.4,0,0,1,1.845.738,4.087,4.087,0,0,1,.69,2.749h-3.719a2.183,2.183,0,0,0,.276.964,1.6,1.6,0,0,0,.6.559,2.1,2.1,0,0,0,1.01.207,5.33,5.33,0,0,0,1.835-.38Zm-3.746-3.416h2.143a1.986,1.986,0,0,0-.275-1.19.855.855,0,0,0-.71-.358.941.941,0,0,0-.777.394A2.236,2.236,0,0,0,3827.661,1083.319Z" transform="translate(-3633.01 -1078.24)" fill="#fff"/>
        <path id="Trazado_5175" data-name="Trazado 5175" d="M3870.654,1079.927v-1.4a7.163,7.163,0,0,0,1.426.479,5.325,5.325,0,0,0,.868.078,1.544,1.544,0,0,0,1.067-.32,1,1,0,0,0,.352-.767,1.04,1.04,0,0,0-.2-.617,3.292,3.292,0,0,0-.965-.7l-.55-.3a5.17,5.17,0,0,1-1.6-1.213,2.146,2.146,0,0,1,.282-2.867,2.86,2.86,0,0,1,2.023-.656,10.124,10.124,0,0,1,2.221.281v1.306a6.188,6.188,0,0,0-2.009-.469,1.434,1.434,0,0,0-.937.267.81.81,0,0,0-.322.642.847.847,0,0,0,.2.535,3.536,3.536,0,0,0,.958.678l.589.325a5.24,5.24,0,0,1,1.724,1.311,2.32,2.32,0,0,1-.4,2.974,3.494,3.494,0,0,1-2.432.71A11.368,11.368,0,0,1,3870.654,1079.927Z" transform="translate(-3667.036 -1071.299)" fill="#fff"/>
        <path id="Trazado_5176" data-name="Trazado 5176" d="M3898.312,1101.068V1099.3h1.769v1.769Z" transform="translate(-3688.118 -1092.368)" fill="#fff"/>
        <path id="Trazado_5177" data-name="Trazado 5177" d="M3909.152,1080.65l3.175-8.154h1.7l3.173,8.154h-1.743l-.848-2.176h-3.375l-.848,2.176Zm2.505-3.262h2.531l-1.265-3.25Z" transform="translate(-3696.375 -1071.951)" fill="#fff"/>
        <path id="Trazado_5178" data-name="Trazado 5178" d="M3946.4,1101.068V1099.3h1.769v1.769Z" transform="translate(-3724.75 -1092.368)" fill="#fff"/>
        <path id="Trazado_5179" data-name="Trazado 5179" d="M3965.929,1079.679a5.13,5.13,0,0,1-.932.322,8.916,8.916,0,0,1-.9.144,8.825,8.825,0,0,1-.995.057,4.007,4.007,0,0,1-3.19-1.207,5.029,5.029,0,0,1,0-6.154,4.155,4.155,0,0,1,3.3-1.2,11.369,11.369,0,0,1,2.644.314v1.328q-.634-.22-1.035-.322a7.056,7.056,0,0,0-.763-.152,5.277,5.277,0,0,0-.719-.049,2.314,2.314,0,0,0-2.038.9,3.8,3.8,0,0,0-.634,2.237,3.427,3.427,0,0,0,.719,2.264,2.623,2.623,0,0,0,2.141.865,5.435,5.435,0,0,0,2.408-.6Z" transform="translate(-3734.241 -1071.299)" fill="#fff"/>
        <path id="Trazado_5180" data-name="Trazado 5180" d="M3993.358,1101.068V1099.3h1.769v1.769Z" transform="translate(-3760.52 -1092.368)" fill="#fff"/>
      </g>
    </g>
    <g id="Grupo_13546" data-name="Grupo 13546" transform="translate(3014.563 696.396)">
      <path id="Sustracción_9" data-name="Sustracción 9" d="M15887.5,4178.168h-.747c0-.008,0-.008.009-.008l0-.008a.017.017,0,0,0,.012,0h-.923c-.205,0-.4.006-.6.006l0,0,0,0-.395,0c-.251-.017-.435-.038-.556-.052l-.052,0-.1-.012-.068-.008h-.012l-.028,0h-.023l-.052-.008-.024,0h-.008l-.008,0a.338.338,0,0,0-.064,0,22.558,22.558,0,0,1-7.617-2.184,22.325,22.325,0,0,1-6.32-4.755,21.873,21.873,0,0,1-5.322-9.954,22.373,22.373,0,0,1,1.681-15.363,22.7,22.7,0,0,1,5.981-7.654,25.163,25.163,0,0,1,8.791-4.571c.353-.111.763-.22,1.33-.352l.008,0,.188-.044h.008c.1-.028.215-.055.332-.08l.012,0a.014.014,0,0,1,.012,0l0,0h.017l.016,0s0,0,.008,0h.008l.008,0,0,0h.027l.012,0a.022.022,0,0,1,.017,0s0,0,0,0h.008l.012,0a.036.036,0,0,1,.021,0,.035.035,0,0,1,.02,0,.209.209,0,0,1,.044-.008c-.274-.65-.519-1.238-.73-1.836a16.9,16.9,0,0,1-.95-6.923,20.018,20.018,0,0,1,1.445-6.041,38.812,38.812,0,0,1,2.392-4.967.29.29,0,0,1,.032-.064l0-.008.008-.012,0-.012.008-.012.012-.02.017-.032.008-.02a.013.013,0,0,0,0-.008l0,0,.012-.02.024-.052a.573.573,0,0,1,.036-.064l-.057-.064c-.244.533-.723.6-1.185.655h-.013a11.46,11.46,0,0,1-1.354.092,7.475,7.475,0,0,1-3.481-.822,9.024,9.024,0,0,1-3.326-3.118,20.025,20.025,0,0,1-2.734-6.9,42.036,42.036,0,0,1-.982-7.163c-.008-.082-.012-.16-.016-.26l-.009-.084v-.02l0-.02,0-.028c-.008-.25-.021-.431-.04-.587-.016-.1-.009-.159.021-.188.011-.019.034-.028.076-.028a1.076,1.076,0,0,1,.323.08l.052.016.023.008.048.012.053.02.071.02.028.012a.345.345,0,0,1,.111.032l.032.008.04.012h0a.031.031,0,0,1,.021.008.055.055,0,0,1,.024.008,24.408,24.408,0,0,1,3.242,1.078,23.4,23.4,0,0,1,6.52,3.813,12.29,12.29,0,0,1,3.661,4.851,10.687,10.687,0,0,1,.7,4.755c0,.056-.009.112-.013.167-.008.076-.012.142-.016.224l0,0v.016s0,.008,0,.016l0,.008a.091.091,0,0,0,.052.084l0-.012,0-.008.023-.04.016-.032.013-.02.031-.055.008-.013a29.7,29.7,0,0,0,2.563-5.41,8.071,8.071,0,0,0,.264-4.647,7.986,7.986,0,0,0-1.772-3.2,17.276,17.276,0,0,0-3.755-2.957l0,0-.01-.006-.016,0-.1-.064-.124-.08-.1-.064-.084-.056-.04-.028a.06.06,0,0,1-.016-.012l-.008,0h0l0,0h-.008l0,0a.012.012,0,0,0-.008,0,.012.012,0,0,0-.008,0l-.044-.032-.048-.028-.067-.044a1.04,1.04,0,0,0-.12-.088l-.021-.016-.035-.024-.021-.016,0,0,0,0-.008-.008-.021-.012a.166.166,0,0,0-.025-.015l-.019-.013-.071-.052-.017-.012a3.168,3.168,0,0,0-.3-.2l-.144-.088h.013a.049.049,0,0,1,.027.008l.027.008c.068.016.172.04.279.072.2.048.4.1.432.112a14.767,14.767,0,0,1,6.676,3.777,6.817,6.817,0,0,1,1.9,4.779,15.6,15.6,0,0,1-.879,4.907c-.544,1.691-1.247,3.451-1.713,4.615l0,.005-.046.115-.027.072,0,.012-.032.084-.008.02-.024.064,0,.008-.056.136-.06.148-.024.056c-.3.753-.563,1.429-.807,2.068a40.706,40.706,0,0,0-2.06,6.923,17.533,17.533,0,0,0,.367,8.636,17.188,17.188,0,0,0,1.7,3.737.381.381,0,0,0,.271.184,23.855,23.855,0,0,1,11.838,5.446,21.221,21.221,0,0,1,6.3,9.223,25.751,25.751,0,0,1,1.31,5.877c.007.018.063,1.13.063,1.8v.8c-.035.29-.06.521-.071.774l0,.036-.009.1a6.489,6.489,0,0,1-.067.73,25.629,25.629,0,0,1-1.725,6.6,23.52,23.52,0,0,1-3.961,6.332,22.479,22.479,0,0,1-12.138,7.17,14.241,14.241,0,0,1-3.2.4.107.107,0,0,0-.075.032Zm-14.39-39.1c-.035,0-.083.036-.147.088a22.062,22.062,0,0,0-3.015,3.086,21.4,21.4,0,0,0-3.018,5.042,22.052,22.052,0,0,0-1.761,7.925,18.22,18.22,0,0,0,.035,1.917,20.414,20.414,0,0,0,.324,2.663,21.721,21.721,0,0,0,2.319,6.456,21.131,21.131,0,0,0,4.747,5.789,20.844,20.844,0,0,0,11.618,4.863c.657.053,1.25.08,1.761.08.461,0,.963-.021,1.581-.064a22.958,22.958,0,0,0,3.489-.555l.068-.016.072-.02.039-.012h.009l.044-.012,0,0a3.676,3.676,0,0,0,.639-.2,3.949,3.949,0,0,1-1.182-1.693.4.4,0,0,1-.018-.066l0-.014a.1.1,0,0,1,0-.015l0-.017-.008-.027,0-.02a.043.043,0,0,0,0-.024l0-.012v-.012a.012.012,0,0,1,0-.008.012.012,0,0,1,0-.008l-.008-.036,0-.02,0-.02v-.008l0,0a1.674,1.674,0,0,0-.268-.7.934.934,0,0,1-.052-1.19l.012-.024a.287.287,0,0,0,.04-.091l.016-.028,0-.008a.013.013,0,0,1,0-.012s0,0,0-.008l0,0,0,0a.2.2,0,0,1,.012-.028c.053-.1.04-.167-.04-.224a.6.6,0,0,1-.2-.463c0-.028-.008-.051-.012-.075a5.638,5.638,0,0,1,.059-1.524v-.019l.008-.072.012-.068,0-.02,0-.02a7.956,7.956,0,0,0,.116-1.114c.008-.524-.031-1.068-.06-1.465l-.008-.124,0-.036,0-.08v-.016l0-.064v-.024l-.012-.152,0-.06,0-.06v-.032a.068.068,0,0,1,0-.028.313.313,0,0,0,0-.06c-.009-.076-.013-.143-.017-.215a.917.917,0,0,0-.61-.847,1.008,1.008,0,0,1-.415-.379l-.026-.04c-.014-.02-.027-.041-.042-.064l-.063-.092-.08-.116-.021-.028c-.048-.067-.091-.131-.135-.194l-.021-.029a6.068,6.068,0,0,0-.95-1.213l-.008-.013-.008-.012-.009-.008c-.268-.251-.543-.511-.275-.934a.124.124,0,0,0,.013-.068.08.08,0,0,1,0-.048l.027-.156a1.79,1.79,0,0,1,.447-1.1.98.98,0,0,0,.264-.863c0-.125-.055-.2-.136-.2a.246.246,0,0,0-.147.064.376.376,0,0,1-.18.068.251.251,0,0,1-.092-.024l-.024,0-.023-.008a2.755,2.755,0,0,1-1.218-.867,1.137,1.137,0,0,0-.923-.539.748.748,0,0,1-.447-.167l-.035-.032-.04-.032a.771.771,0,0,0-.483-.248.291.291,0,0,0-.164.032h-.016a.146.146,0,0,1-.063-.02l-.013,0-.012,0-.012,0-.013,0a.106.106,0,0,0-.031-.016,7.9,7.9,0,0,0-1.521-.567,1.268,1.268,0,0,1-.938-1.146,1.382,1.382,0,0,0-.358-.717l-.017-.021-.016-.016-.013-.02a.142.142,0,0,0-.039-.044l0-.008a.013.013,0,0,1,0-.008l-.008-.008s-.008-.008-.008-.012l0-.008-.007-.009a.044.044,0,0,0-.018-.015l0-.008-.012-.012,0-.006a.015.015,0,0,1,0-.01.069.069,0,0,0-.024-.024.953.953,0,0,0,.013.232l0,.008v.032l0,.02v.028l0,.028a.079.079,0,0,1,0,.032l0,.024a.262.262,0,0,1-.14.288l-.007,0a.692.692,0,0,1-.157.034.2.2,0,0,1-.159-.064,2.317,2.317,0,0,0-.22-.216l-.008,0-.048-.044-.017-.015-.008-.008a1.6,1.6,0,0,1-.606-.89,5.639,5.639,0,0,0-.3-.982.014.014,0,0,1,0-.012c0-.008,0-.008,0-.008v-.008a.012.012,0,0,1,0-.008l0-.012c-.008-.02-.017-.044-.024-.068l0-.012-.016-.048,0-.016-.009-.02-.008-.016,0-.008a1.021,1.021,0,0,0-.6-.759.709.709,0,0,1-.092-.1l-.008-.012a.042.042,0,0,0-.013-.016l0,0,0,0a0,0,0,0,0,0,0l-.008-.012a2.063,2.063,0,0,1-.539-1.37l0-.192a3.918,3.918,0,0,1,.348-2.06.962.962,0,0,0,.04-.982c-.1-.185-.185-.37-.288-.591a.717.717,0,0,1,.124-.771c.22-.147.2-.292.08-.523l0,.017a.257.257,0,0,1-.013.031l0,.008a.057.057,0,0,0-.008.024l-.008.02-.012.04-.009.02-.008.02c-.016.044-.031.084-.052.136a.31.31,0,0,1-.271.188.244.244,0,0,1-.207-.124,1.079,1.079,0,0,1-.2-1.038,2.436,2.436,0,0,0,.14-1.45l0-.02-.008-.024,0-.012,0-.012,0-.02,0-.021,0-.006a1.429,1.429,0,0,0-.509-.916.1.1,0,0,1-.031-.024l-.013-.008a.065.065,0,0,0-.03-.028l-.009,0-.044-.024-.013-.008-.012-.008,0,0,0,0a1.582,1.582,0,0,0-.886-.368.9.9,0,0,0-.467.128,1.17,1.17,0,0,1-.4.1l-.01,0h-.059l-.009,0a.553.553,0,0,0-.136.024h-.016l-.016,0h-.009a.373.373,0,0,1-.1.012.146.146,0,0,1-.111-.044.2.2,0,0,0-.147-.088.258.258,0,0,0-.176.1l-.008.009-.013.016-.048.048-.048.048-.063.063-.032.032-.006,0h0l-.006,0-.008.012a.065.065,0,0,0-.024.02l-.016.016-.024.024-.036.036a.056.056,0,0,1-.017.012l0,.008a.021.021,0,0,0-.009.007l-.01.009a.128.128,0,0,1-.014.016l0,0c-.027.024-.052.048-.071.068l-.017.016-.027.032-.013.012,0,0,0,0a.207.207,0,0,1-.032.04l0,0-.012.012-.012.012a1.229,1.229,0,0,1-.4.328c-.076.028-.147.056-.22.084l-.012,0-.008,0-.028.008h-.008l-.024.008-.027.008-.02.007a7.934,7.934,0,0,1-2.276.631.238.238,0,0,0-.056,0h-.024a.961.961,0,0,1-.1,0,.264.264,0,0,1-.3-.2c-.063-.239.128-.327.268-.391h.021c.628-.292,1.243-.608,1.879-.966.2-.115.272-.187.281-.264s-.052-.167-.2-.3c-.055-.051-.111-.1-.163-.156a.985.985,0,0,1-.156-1.5.017.017,0,0,1,.007-.011l0-.009,0,0v-.008l0-.007h.008l0-.008c0-.017.008-.024.016-.028l.012-.024.017-.024,0,0a.4.4,0,0,1,.084-.108c.011-.013.023-.027.036-.04l.007-.007c.01-.011.021-.022.028-.033l.019-.02.014-.016.008-.012.017-.02.012-.016.02-.024.017-.02.016-.016s0,0,0-.008l0,0,0-.007,0,0,.008-.008,0,0,.008-.012a.963.963,0,0,1,.774-.491.368.368,0,0,1,.063,0,.21.21,0,0,0-.211-.1.425.425,0,0,1-.068,0c-.128-.029-.267-.071-.295-.2C15873.184,4139.115,15873.151,4139.065,15873.107,4139.065Zm19.42,34.887-.012.016,0,0a.159.159,0,0,0-.077.085.091.091,0,0,0,.009.071.8.8,0,0,1,.128.244l.008.02,0,.008.008.02,0,0,.012.036,0,.008c.1.262.212.531.56.619a.75.75,0,0,1,.423.228.308.308,0,0,0,.231.12.375.375,0,0,0,.111-.025l.023-.008.009,0,.017-.008,0,0h.008a.027.027,0,0,1,.016,0l.028-.008.016,0,.012,0a21.32,21.32,0,0,0,3.8-2.041,21.7,21.7,0,0,0,7.846-9.65,21.887,21.887,0,0,0,1.562-6.208,24.584,24.584,0,0,0,.023-4v-.024a.994.994,0,0,1-.008-.12,1.2,1.2,0,0,0-.132-.623l0,0a.149.149,0,0,1-.023.02.131.131,0,0,0-.04.04l-.009.012-.023.024-.012.012-.008,0-.036.036-.008,0-.009.008c-.008,0-.008.008-.008.012l-.023.028-.024.024-.016.016,0,0-.008,0-.076.08-.017.016c-.126.123-.253.259-.4.431a.537.537,0,0,1-.4.2.849.849,0,0,1-.264-.064,2.719,2.719,0,0,1-.958-.8l-.048-.064-.048-.064,0-.008,0-.008,0,0,0-.005a3.806,3.806,0,0,0-1.211-1.16,1.015,1.015,0,0,1-.471-1.122,1.979,1.979,0,0,0-.164-1.214c-.071-.171-.123-.275-.287-.275a.341.341,0,0,0-.136.02,1.125,1.125,0,0,1-.252.036.262.262,0,0,1-.2-.072.674.674,0,0,1-.088-.427,10.53,10.53,0,0,0-.095-1.615l0-.024,0-.013,0-.04v-.028l-.012-.08,0-.016v-.012l-.027-.231,0-.044-.012-.084-.009-.072,0-.048v-.02a3.944,3.944,0,0,1-.008-1.258,1.113,1.113,0,0,0-.052-.646l-.032-.084,0,0-.016-.04,0-.008-.017-.04,0-.012a4.518,4.518,0,0,1-.319-1.122.161.161,0,0,0-.044-.1,8.319,8.319,0,0,1-.9-1.06l0-.006,0,0-.012-.016-.028-.036-.008-.008,0-.008c-.039-.055-.082-.11-.128-.164l0-.008a5.859,5.859,0,0,0-.392-.5s0,0,0-.008l0,0,0-.008-.008-.008-.012-.012-.009-.008-.008-.012-.008-.008-.012-.016-.008-.008a.417.417,0,0,1-.132-.423,1.051,1.051,0,0,0-.392,1.229c.021.084.021.144,0,.164a.608.608,0,0,0-.187.5v.063a1.093,1.093,0,0,1-.021.24,4.551,4.551,0,0,1-.339.9l-.012.028c-.028.06-.061.132-.1.211a.506.506,0,0,0-.061.352.933.933,0,0,1-.264.826l-.039.032-.017.012a1.755,1.755,0,0,1-1.142.571h-.04a.206.206,0,0,0-.18.1,1.506,1.506,0,0,1-.886.6l-.028.012-.044.016c-.322.119-.476.225-.527.363s-.008.312.147.591c.124.228.106.4-.052.515-.065.045-.133.092-.2.14l-.016.012-.009.008-.02.012-.024.016-.016.008a2.488,2.488,0,0,1-1.421.615,1.861,1.861,0,0,1-.24-.024l-.048,0h-.008a.157.157,0,0,0-.06-.008.089.089,0,0,0-.032,0h-.048a.114.114,0,0,0-.036,0,.182.182,0,0,0-.136.04.169.169,0,0,0-.032.136c.009.112.032.231.2.231h.02c.176-.012.3-.012.4-.012.049,0,.1,0,.147,0a.7.7,0,0,1,.5.451c.021.233-.16.3-.307.347a.026.026,0,0,1-.017,0l-.008,0a0,0,0,0,0,0,0l-.012,0-.012.008a5.73,5.73,0,0,0-1.218.559.545.545,0,0,1-.252.084.226.226,0,0,1-.208-.12c-.063-.108-.123-.156-.2-.156a.411.411,0,0,0-.208.088l0,0-.023.016a.4.4,0,0,0-.187.26l0,.012,0,.012-.009.02,0,0,0,.008s0,0,0,.008l0,0v.007c0,.012-.012.032-.024.064,0,0,0,0,0,.008l0,0s0,0,0,.008l0,0v.007l0,.008c0,.007,0,.008,0,.012s0,0,0,.008a.015.015,0,0,1,0,.012c-.052.124-.1.251-.275.251h-.028l-.012,0a1.088,1.088,0,0,0-.99.743,2.955,2.955,0,0,1-1.258,1.461.674.674,0,0,0-.367.687v.064a.377.377,0,0,1,0,.064,3.52,3.52,0,0,1-.068,1.038c-.036.13-.084.26-.239.3h-.023l-.009,0h-.056a.293.293,0,0,1-.247-.164c-.032-.048-.064-.1-.1-.14l-.013-.011,0-.009-.016-.02-.008-.012,0-.008,0-.008-.008-.012a.871.871,0,0,1-.239-.551.161.161,0,0,0-.132-.167l-.036-.012-.008,0-.032-.012a.567.567,0,0,0-.107-.028l-.028-.008a1.442,1.442,0,0,0-.395-.092.117.117,0,0,0-.036,0,.266.266,0,0,0-.256.14.313.313,0,0,1-.268.184.482.482,0,0,1-.283-.124.052.052,0,0,0-.02-.016l-.013-.011-.012-.009a.311.311,0,0,0-.212-.1h-.016a1.332,1.332,0,0,0-1.294.95,1.261,1.261,0,0,0,.1.93.118.118,0,0,0,.1.044.575.575,0,0,0,.21-.071l.025-.013.016-.008.028-.012.016,0a1.454,1.454,0,0,1,.248-.1l.023-.012.013,0a.023.023,0,0,1,.016,0,2.479,2.479,0,0,1,.922-.2,1.2,1.2,0,0,1,.675.176,1.171,1.171,0,0,0,.5.131,1.15,1.15,0,0,0,.188-.02h.008l.08-.008h.012a1.2,1.2,0,0,1,.415-.06c.272,0,.381.129.619.5a.308.308,0,0,1-.068.471,1.718,1.718,0,0,1-1.038.411.478.478,0,0,1,.012.558l-.012.025a.057.057,0,0,0-.008.028.632.632,0,0,0,.467.743h.028a1.6,1.6,0,0,0,.2-.044l0,0,.044-.012h.009l.023,0,0,0a1.221,1.221,0,0,1,.168-.016.4.4,0,0,1,.239.076.131.131,0,0,0,.056-.028l.013,0a2.334,2.334,0,0,1,1.515-.519h.05l.009,0h.008a.157.157,0,0,0,.044,0h.048a2.26,2.26,0,0,1,.447.052l.02,0,.044.012.044.012.024.008.052.012h.008a2.982,2.982,0,0,0,.455.072,2.3,2.3,0,0,1,1.648.723,1.058,1.058,0,0,0,.636.271,1.924,1.924,0,0,1,1.712.986l0,.012c0,.005.008.009.008.012a.145.145,0,0,1,.016.036l.012.024.013.028,0,.012a.018.018,0,0,1,.012.02l0,.008,0,.012a.013.013,0,0,1,0,.008l0,0v.008l.021.036.036.08.035.072a.013.013,0,0,1,0,.008l0,.008s0,0,0,.008,0,0,0,.008l.008.012a0,0,0,0,0,0,0v.008l0,.008a.379.379,0,0,0,.228.244l.016,0a.224.224,0,0,0,.068.024h0l0,0,.068.028.063.024.076.028.067.024.021.008.027.008.033.013a3.632,3.632,0,0,0,.638.195,6.763,6.763,0,0,1,1.757.583.9.9,0,0,1,.643.607,1.029,1.029,0,0,1-.191.866,1.6,1.6,0,0,1-.107.14l-.04.052-.017.02s-.008,0-.012.012l0,0,0,0a.041.041,0,0,1-.012.02l-.009.012a.069.069,0,0,0-.016.02l0,0,0,.008a.1.1,0,0,0-.021.024l-.012.012,0,0,0,0,0,0-.008.008-.008.008,0,.008a.235.235,0,0,0-.027.032l-.017.016a.7.7,0,0,0-.219.343c-.041.167-.084.333-.136.519l-.009.02-.02.077v.007l0,.012,0,.016,0,.012-.008.02v.008a5.522,5.522,0,0,0-.244,1.17.653.653,0,0,1-.392.579l-.4.2-.049.024a4.53,4.53,0,0,0-.854.483.429.429,0,0,0-.212.283,4.536,4.536,0,0,1-1.262,2.024.521.521,0,0,1-.344.18.105.105,0,0,1-.048-.012l-.027,0-.024,0-.02,0-.013,0h-.012a.293.293,0,0,0-.1-.024.1.1,0,0,0-.084.032c-.036.024-.052.084-.048.184.02.789.011.791-.436.882h0l0,0-.031.012-.021,0a1.16,1.16,0,0,0-.268.063.351.351,0,0,0-.315.368c0,.115-.028.252-.18.292-.128.028-.119.081-.107.147,0,.028,0,.032,0,.04v.052a.988.988,0,0,1-.3.958.187.187,0,0,0-.1.14c0,.043.04.084.107.12.258.145.247.341.152.591a1.637,1.637,0,0,1-.263.371l-.021.024-.008.008-.023.032-.008,0s0,0,0,.008Zm-2.954-27.541-.072.284a.384.384,0,0,1-.014.063.155.155,0,0,0,.018.16l0,0,.006.01.007.01c.015.027.033.056.052.056s.028-.028.036-.076a2.443,2.443,0,0,0,.008-.335v-.072a.952.952,0,0,1,0-.1Zm-.312-.527a.036.036,0,0,0,.012.008.51.51,0,0,1,.336.307c.008.037.023.056.044.056a.089.089,0,0,0,.052-.024.822.822,0,0,1,.287-.128l.017,0,.012,0a2.1,2.1,0,0,0,.264-.1l.008-.008,0,0c.2-.129.379-.239.415-.4a.645.645,0,0,0-.164-.483.312.312,0,0,1,.021-.443.94.94,0,0,0,.295-.819c0-.281.186-.329.355-.351a1.409,1.409,0,0,1,.359-.04,2.943,2.943,0,0,1,1.39.455l.008,0,.007,0a.041.041,0,0,1,.014.009h.008l.008,0,.006,0a.074.074,0,0,1,.022.013l.016.008.04.02.036.02.027.012h0a.039.039,0,0,1,.02.008l.008,0c.008,0,.01,0,.012.005l.021.008.017.006a.12.12,0,0,0,.039.01c.023,0,.04-.016.048-.044a.524.524,0,0,0,.008-.116v-.008a.171.171,0,0,0,0-.044.131.131,0,0,1,0-.02v-.228l0-.044a3.6,3.6,0,0,1,.036-.719,1.057,1.057,0,0,0-.184-.838.479.479,0,0,0-.392-.251.39.39,0,0,0-.136.024h-.016l0,0h-.009c-.008,0-.016,0-.02,0h-.016l-.011,0-.029.006a.307.307,0,0,1-.191-.068l-.017-.012-.016-.012-.008-.008-.01-.005-.011-.006h0l-.008,0a.022.022,0,0,0-.016-.007l-.021-.016a1.027,1.027,0,0,1-.363-.367.8.8,0,0,0-.216.611.378.378,0,0,1-.083.284.4.4,0,0,1-.268.092h-.061l-.008,0h-.006l-.1,0-.124,0h-.18c-.06,0-.121,0-.18,0a.591.591,0,0,0-.423.14c-.04.036-.088.084-.14.14l-.013.012a1.624,1.624,0,0,1-.407.335c-.547.24-.475.607-.323,1.062a.329.329,0,0,1-.012.3.371.371,0,0,1-.308.128l-.168.008-.151,0h-.144l-.01,0-.011,0-.044,0h-.016l-.08,0h-.016l-.064,0h-.06l-.012,0h-.02c-.074,0-.151.008-.229.015a.236.236,0,0,1-.052,0h-.016c-.076,0-.124,0-.156.083a.721.721,0,0,0,.18.667,5.75,5.75,0,0,0,.982.582l.048.025.024.012.008.008.016.008.032.016.008,0,.12.06a.091.091,0,0,1,.032.017l.008,0Zm1.837-6a.154.154,0,0,1,.107.032l.008,0a1.172,1.172,0,0,1,.663.623c0,.016.008.032.012.056.008.056.018.132.092.132a.126.126,0,0,0,.052-.008c.123-.04.1-.14.069-.237a.313.313,0,0,1,.294-.446.026.026,0,0,1,.017,0,.03.03,0,0,1,.016,0h.008a.443.443,0,0,0,.152-.04.915.915,0,0,1,.228-.083c.218-.059.442-.121.363-.487a.012.012,0,0,1,0-.016l0-.008s0,0,0-.008l0-.008a.048.048,0,0,1,.012-.016l.013-.02,0,0,.008-.016v-.008l0,0h0s0-.007.008-.007l.008-.012.008-.012.009-.016.016-.016c.128-.207.259-.419.551-.443a.543.543,0,0,0,.238-.114l.014-.01.012-.008.007,0,.021-.016.012-.012,0,0c0-.008,0-.008.008-.008l0,0h.008l.013-.008a1.575,1.575,0,0,1,.95-.419.932.932,0,0,1,.466.112.306.306,0,0,0,.089.012h.048a.338.338,0,0,1,.064,0h.027l.008,0,.008,0h.017l.008,0h.032a.1.1,0,0,0,.1-.084.185.185,0,0,0-.06-.224l-.024-.024a.339.339,0,0,0-.08-.076l-.02-.024-.044-.044,0,0,0,0a.007.007,0,0,0-.008,0l-.009-.008-.008-.008-.008-.008,0-.008-.007,0,0,0a.007.007,0,0,0-.008,0l-.01-.011c-.057-.06-.119-.125-.21-.208a.314.314,0,0,1-.017-.5,1.224,1.224,0,0,1,.332-.3l.012-.008.012-.008.044-.032,0,0,.032-.02.04-.032,0,0,.012-.01,0,0,.016-.012.008-.008s.008,0,.008,0l.008-.008.012-.008.021-.016.016-.012.017-.012a.066.066,0,0,1,.017-.012l0,0a.011.011,0,0,1,.008,0,11.122,11.122,0,0,0-1.486-.714l-.011,0-.016,0-.052-.02a20.827,20.827,0,0,0-4.708-1.354l-.008,0h-.008a.305.305,0,0,0-.06,0c-.129,0-.168.072-.192.2a.8.8,0,0,1-.287.543c-.182.1-.185.234-.128.435l.013.032.012.032,0,.008,0,.008c.043.1.081.22-.016.3-.329.232-.255.494-.124.811a.436.436,0,0,1-.016.291l0,.024-.012.048a.532.532,0,0,0,.076.491l.076.084.067.084.02.028.036.044.084.1a.421.421,0,0,1,.056.068l.009.008.009.011a.7.7,0,0,0,.051.057l.016.02.01.013,0,.006.014.017.016.02.017.02.079.1a.437.437,0,0,0,.148-.435v-.024a.635.635,0,0,1,0-.1c.009-.154.033-.319.208-.328l.252-.012.012,0,.107-.008h.021c.071,0,.148,0,.216,0a1.442,1.442,0,0,1,.582.092c.183.063.292.156.315.268s-.051.231-.2.383a2.9,2.9,0,0,1-.275.208l0,0,0,0-.011.008a1.212,1.212,0,0,0-.357.308,2.986,2.986,0,0,0-.247.423l-.008.012-.024.052-.012.028-.028.06-.008.016a4.215,4.215,0,0,1-.383.667h.012c.236,0,.335.008.4.076s.059.228.04.553v.022c.207-.048.282-.21.355-.367l0,0c.023-.048.044-.088.063-.124C15890.877,4140.013,15890.971,4139.884,15891.1,4139.884Zm-3.1.371a.736.736,0,0,1,.559.2c.057.068.1.1.152.1.074,0,.131-.081.172-.151a.367.367,0,0,0-.024-.431.461.461,0,0,1,.044-.619l.016-.024.013-.016a.086.086,0,0,1,.018-.022l.006-.014a.268.268,0,0,1,.048-.056,2.184,2.184,0,0,0,.3-.483l-.1-.008-.04,0-.008,0-.042,0a5.592,5.592,0,0,1-1.895-.384.235.235,0,0,1,0,.048l0,.028v.008a.156.156,0,0,0,0,.048.74.74,0,0,1-.7,1,.844.844,0,0,1-.407-.107,2.206,2.206,0,0,0-.769-.235l-.046-.008a2.647,2.647,0,0,1-.687-.2c.1.109.242.244.411.4l.088.08.008.008a.32.32,0,0,1,.14.259.3.3,0,0,0,.04.244.157.157,0,0,0,.128.048.76.76,0,0,0,.135-.022l.025-.006a.12.12,0,0,1,.056-.008.24.24,0,0,1,.172.1l.02.02.012.008q.066.072.108.072l0,0h.02a.592.592,0,0,0,.12-.092l.02-.012.009-.012a.406.406,0,0,1,.247-.128,1.961,1.961,0,0,1,.2-.008.786.786,0,0,1,.794.431c.037.073.077.108.124.108a.266.266,0,0,0,.14-.06A.63.63,0,0,1,15888,4140.255Zm-5.7-5.6a.354.354,0,0,0-.12.016,21.668,21.668,0,0,0-3.518,1.074c-.087.033-.119.058-.124.092s.036.076.088.12l.009.008.071.056.017.008.012.016c.027.02.051.04.074.06l.014.012,0,0,.008,0a4.19,4.19,0,0,1,.455.4,2.131,2.131,0,0,0,.7.431l.035.02.028.012.024.008.022.011.006,0a.23.23,0,0,0,.035.015.228.228,0,0,1,.056.028.285.285,0,0,0,.108.032.124.124,0,0,0,.092-.052.475.475,0,0,1,.232-.161h0l0,0,.034,0a.157.157,0,0,0,.035-.016l.017-.008.02,0,.012-.008c.175-.075.34-.146.355-.4.013-.2.334-.4.556-.4a.171.171,0,0,1,.044,0c.255.032.251.211.247.383v.08a.613.613,0,0,0,.172.411.167.167,0,0,0,.107.072c.039,0,.071-.037.092-.108a1.5,1.5,0,0,1,1.306-1.034.354.354,0,0,1,.072-.018l.012,0h.024l.027,0,.007,0,.017,0a.917.917,0,0,0,.356-.14,2.643,2.643,0,0,1-1.262-.7l-.009,0-.023-.02-.111-.1-.016-.012-.008-.007-.009-.006a.048.048,0,0,0-.021-.016A.556.556,0,0,0,15882.295,4134.653Zm8.552-9.794c-.523,0-1.05-.02-1.565-.06a.387.387,0,0,1-.291-.144c-.032-.043-.063-.08-.1-.116l-.016-.024s0-.006,0-.007-.013-.008-.013-.013l-.016-.012-.048-.056,0-.008-.1-.124c-.071-.089-.144-.172-.207-.246l-.024-.028-.064-.074-.027-.031-.124-.148-.052-.06a.122.122,0,0,0-.052-.063l-.036-.048-.063-.072a.147.147,0,0,0-.024-.028l-.006-.005-.006-.006,0-.008,0-.008-.029-.034-.03-.034-.021-.024c-.027-.032-.056-.064-.084-.1l-.04-.048-.02-.024a.465.465,0,0,1-.136-.275,11.31,11.31,0,0,1,.922-5.53,9.63,9.63,0,0,1,5.079-4.771,19.865,19.865,0,0,1,6.177-1.585,41.481,41.481,0,0,1,4.443-.236c.052,0,.115,0,.2,0,.1,0,.2,0,.3,0h.028c.06,0,.127,0,.2,0,.22,0,.394,0,.563,0,.334,0,.656-.012,1.015-.036,0,0,0,0,0,0h.02c.087,0,.12.044.156.136a.931.931,0,0,1-.026.623l0,.008v.028l-.008.028,0,.012a19.108,19.108,0,0,1-1.921,4.324,19.926,19.926,0,0,1-4.782,5.686,14.349,14.349,0,0,1-7.97,3.194C15891.682,4124.847,15891.308,4124.859,15890.847,4124.859Z" transform="translate(-15863.947 -4092.281)" fill="#fff" stroke="rgba(0,0,0,0)" stroke-miterlimit="10" stroke-width="1"/>
    </g>
  </g>
</svg>
