<svg xmlns="http://www.w3.org/2000/svg" width="236.189" height="99.933" viewBox="0 0 236.189 99.933">
  <g id="Grupo_13543" data-name="Grupo 13543" transform="translate(-3014.563 -696.396)">
    <g id="text8" transform="translate(3058.438 747.9)" style="isolation: isolate">
      <g id="Grupo_13543-2" data-name="Grupo 13543" transform="translate(0 0)" style="isolation: isolate">
        <path id="Trazado_5139" data-name="Trazado 5139" d="M3217.666,944.4l-1.689-5.891h-8.009l-1.795,5.891h-7.449l9.229-29.894h9.7l9.376,29.894Zm-8.137-12.418h4.836l-2.418-8.672Z" transform="translate(-3198.724 -914.049)" fill="#00a12d"/>
        <path id="Trazado_5140" data-name="Trazado 5140" d="M3361.6,914.509V944.4h-8.52V923.028l-5.53,21.375h-5.825l-5.749-21.375V944.4H3329.1V914.509h11.991l4.336,15.878,4.139-15.878Z" transform="translate(-3298.037 -914.049)" fill="#00a12d"/>
        <path id="Trazado_5141" data-name="Trazado 5141" d="M3487.393,944.4V914.509h15.177q4.73,0,6.9,2.387a7.884,7.884,0,0,1,2.168,5.453,6.9,6.9,0,0,1-1.259,4.041,6.438,6.438,0,0,1-3.756,2.486q5.8,1.4,5.8,6.964a9.39,9.39,0,0,1-2.048,5.946q-2.048,2.617-8.75,2.617Zm8.453-18.44h4.249a2.754,2.754,0,0,0,2.256-.81,2.7,2.7,0,0,0,.657-1.73q0-2.5-3.066-2.5h-4.1Zm0,11.782h4.468a3.225,3.225,0,0,0,2.442-.821,2.628,2.628,0,0,0,.777-1.851,2.822,2.822,0,0,0-.755-1.894,3.573,3.573,0,0,0-2.771-.865h-4.161Z" transform="translate(-3418.62 -914.049)" fill="#00a12d"/>
        <path id="Trazado_5142" data-name="Trazado 5142" d="M3617.544,914.509V944.4h-9.176V914.509Z" transform="translate(-3510.774 -914.049)" fill="#00a12d"/>
        <path id="Trazado_5143" data-name="Trazado 5143" d="M3668.763,944.4V914.509h11.563q7.533,0,11.279,4.468a15.616,15.616,0,0,1,3.745,10.337,15.1,15.1,0,0,1-4.019,10.9A13.8,13.8,0,0,1,3680.9,944.4Zm9.176-6.877h2.387a4.6,4.6,0,0,0,3.844-2.212,10.256,10.256,0,0,0,1.566-6.023,10.913,10.913,0,0,0-1.391-5.629,4.411,4.411,0,0,0-4.019-2.365h-2.387Z" transform="translate(-3556.78 -914.049)" fill="#00a12d"/>
        <path id="Trazado_5144" data-name="Trazado 5144" d="M3819.124,937.264V944.4h-22.492V914.509h22.492v6.9h-13.491v4.336h10.907v6.636h-10.907v4.884Z" transform="translate(-3654.185 -914.049)" fill="#00a12d"/>
        <path id="Trazado_5145" data-name="Trazado 5145" d="M3893.338,934.282l8.52-1.533q1.074,3.614,5.519,3.613,3.461,0,3.46-1.839a1.709,1.709,0,0,0-.8-1.5,8.6,8.6,0,0,0-2.858-.952q-7.864-1.507-10.1-3.939a8.177,8.177,0,0,1-2.233-5.718,8.949,8.949,0,0,1,3.208-7.032q3.209-2.8,9.231-2.8,9.133,0,12.067,7.337l-7.6,2.3q-1.182-3-4.8-3-3,0-3,1.861a1.472,1.472,0,0,0,.679,1.292,8.293,8.293,0,0,0,2.628.875,55.471,55.471,0,0,1,7.622,2.008,8.215,8.215,0,0,1,3.767,2.988,8.354,8.354,0,0,1,1.51,4.986,8.832,8.832,0,0,1-3.679,7.353q-3.68,2.816-9.658,2.816Q3895.9,943.392,3893.338,934.282Z" transform="translate(-3727.852 -912.578)" fill="#00a12d"/>
      </g>
    </g>
    <g id="text12" transform="translate(3014.914 785.453)" style="isolation: isolate">
      <g id="Grupo_13544" data-name="Grupo 13544" style="isolation: isolate">
        <path id="Trazado_5146" data-name="Trazado 5146" d="M3016.037,1080.65l3.175-8.154h1.7l3.173,8.154h-1.744l-.847-2.176h-3.376l-.848,2.176Zm2.505-3.262h2.531l-1.265-3.25Z" transform="translate(-3016.037 -1071.951)" fill="#039"/>
        <path id="Trazado_5147" data-name="Trazado 5147" d="M3055.414,1086.939v-6.05h1.564v1.14a2.815,2.815,0,0,1,.81-.915,2.036,2.036,0,0,1,1.229-.364,1.992,1.992,0,0,1,.766.135,1.534,1.534,0,0,1,.576.424,1.422,1.422,0,0,1,.322.719,3.306,3.306,0,0,1,.916-.981,2.054,2.054,0,0,1,1.131-.3,1.676,1.676,0,0,1,1.2.433,1.846,1.846,0,0,1,.459,1.4v4.358h-1.565v-3.828a1.232,1.232,0,0,0-.217-.877.7.7,0,0,0-.487-.2,1.217,1.217,0,0,0-.728.266,3.061,3.061,0,0,0-.707.8v3.843h-1.564v-3.824a1.262,1.262,0,0,0-.212-.876.709.709,0,0,0-.509-.2,1.2,1.2,0,0,0-.713.263,3.046,3.046,0,0,0-.7.8v3.843Z" transform="translate(-3046.033 -1078.24)" fill="#039"/>
        <path id="Trazado_5148" data-name="Trazado 5148" d="M3102.1,1078.906v-8.7h1.63v3.8a2.318,2.318,0,0,1,.8-.963,2.05,2.05,0,0,1,1.152-.321,1.987,1.987,0,0,1,1.705.827,3.6,3.6,0,0,1,.6,2.171,4.011,4.011,0,0,1-.674,2.374,2.171,2.171,0,0,1-1.879.953,2.492,2.492,0,0,1-.625-.075,2.092,2.092,0,0,1-.541-.223,2.6,2.6,0,0,1-.54-.452l-.3.612Zm1.63-1.58a2.056,2.056,0,0,0,.635.523,1.415,1.415,0,0,0,.6.138,1.027,1.027,0,0,0,.968-.646,3.318,3.318,0,0,0,.318-1.483,2.591,2.591,0,0,0-.3-1.359.959.959,0,0,0-.864-.5,1.209,1.209,0,0,0-.7.25,2.8,2.8,0,0,0-.654.679Z" transform="translate(-3081.596 -1070.207)" fill="#039"/>
        <path id="Trazado_5149" data-name="Trazado 5149" d="M3134.237,1072.7v-1.361h1.631v1.361Zm0,7.069v-6.05h1.631v6.05Z" transform="translate(-3106.077 -1071.07)" fill="#039"/>
        <path id="Trazado_5150" data-name="Trazado 5150" d="M3153.567,1086.735a7.737,7.737,0,0,1-2.19.342,3.807,3.807,0,0,1-1.717-.367,2.505,2.505,0,0,1-1.134-1.146,3.816,3.816,0,0,1-.061-3.261,2.672,2.672,0,0,1,.981-1.135,2.859,2.859,0,0,1,1.585-.416,2.4,2.4,0,0,1,1.845.738,4.09,4.09,0,0,1,.69,2.749h-3.718a2.171,2.171,0,0,0,.275.964,1.6,1.6,0,0,0,.6.559,2.106,2.106,0,0,0,1.01.207,5.327,5.327,0,0,0,1.834-.38Zm-3.746-3.416h2.143a1.99,1.99,0,0,0-.274-1.19.856.856,0,0,0-.71-.358.942.942,0,0,0-.778.394A2.245,2.245,0,0,0,3149.821,1083.319Z" transform="translate(-3116.66 -1078.24)" fill="#039"/>
        <path id="Trazado_5151" data-name="Trazado 5151" d="M3178.9,1086.939v-6.05h1.631v1.14a2.746,2.746,0,0,1,.975-.989,2.257,2.257,0,0,1,1.085-.289,1.787,1.787,0,0,1,1.231.46,1.854,1.854,0,0,1,.515,1.452v4.275h-1.63v-3.873a1.662,1.662,0,0,0-.091-.672.64.64,0,0,0-.248-.267.688.688,0,0,0-.35-.091,1.341,1.341,0,0,0-.7.223,2.831,2.831,0,0,0-.788.873v3.807Z" transform="translate(-3140.102 -1078.24)" fill="#039"/>
        <path id="Trazado_5152" data-name="Trazado 5152" d="M3211.964,1083.489a3.509,3.509,0,0,1-.92.171,2.765,2.765,0,0,1-1.24-.226,1.55,1.55,0,0,1-.661-.614,2.366,2.366,0,0,1-.22-1.143v-3.184h-.678v-1.019h.678v-1.019l1.631-.187v1.206h1.295v1.019h-1.295v2.965a1.252,1.252,0,0,0,.232.883.924.924,0,0,0,.677.228,2.329,2.329,0,0,0,.5-.066Z" transform="translate(-3162.453 -1074.823)" fill="#039"/>
        <path id="Trazado_5153" data-name="Trazado 5153" d="M3233.889,1086.735a7.744,7.744,0,0,1-2.19.342,3.809,3.809,0,0,1-1.717-.367,2.507,2.507,0,0,1-1.133-1.146,3.814,3.814,0,0,1-.06-3.261,2.665,2.665,0,0,1,.98-1.135,2.859,2.859,0,0,1,1.585-.416,2.406,2.406,0,0,1,1.845.738,4.089,4.089,0,0,1,.69,2.749h-3.719a2.177,2.177,0,0,0,.276.964,1.6,1.6,0,0,0,.6.559,2.107,2.107,0,0,0,1.01.207,5.331,5.331,0,0,0,1.835-.38Zm-3.747-3.416h2.143a1.988,1.988,0,0,0-.275-1.19.855.855,0,0,0-.71-.358.942.942,0,0,0-.778.394A2.245,2.245,0,0,0,3230.142,1083.319Z" transform="translate(-3177.845 -1078.24)" fill="#039"/>
        <path id="Trazado_5154" data-name="Trazado 5154" d="M3272.427,1089.556l1.372-2.176-2.242-6.05h1.752l1.5,4.045,1.778-4.045h1.24l-3.735,8.226Z" transform="translate(-3210.681 -1078.68)" fill="#039"/>
        <path id="Trazado_5155" data-name="Trazado 5155" d="M3319.358,1080.65V1072.5h3.509a4.432,4.432,0,0,1,2.2.452,3.233,3.233,0,0,1,1.25,1.331,4.479,4.479,0,0,1,.466,2.124,5.133,5.133,0,0,1-.443,2.176,3.555,3.555,0,0,1-1.292,1.515,4.2,4.2,0,0,1-2.325.557Zm1.7-1.157h1.267a3.035,3.035,0,0,0,1.518-.309,2.08,2.08,0,0,0,.832-1.044,4.241,4.241,0,0,0,.305-1.639,3.734,3.734,0,0,0-.3-1.532,2.281,2.281,0,0,0-.824-1.011,3.4,3.4,0,0,0-1.777-.344h-1.025Z" transform="translate(-3247.095 -1071.951)" fill="#039"/>
        <path id="Trazado_5156" data-name="Trazado 5156" d="M3360.842,1086.735a7.742,7.742,0,0,1-2.19.342,3.805,3.805,0,0,1-1.717-.367,2.505,2.505,0,0,1-1.134-1.146,3.678,3.678,0,0,1-.4-1.694,3.64,3.64,0,0,1,.337-1.567,2.668,2.668,0,0,1,.98-1.135,2.86,2.86,0,0,1,1.585-.416,2.4,2.4,0,0,1,1.845.738,4.088,4.088,0,0,1,.69,2.749h-3.719a2.171,2.171,0,0,0,.275.964,1.6,1.6,0,0,0,.6.559,2.106,2.106,0,0,0,1.01.207,5.331,5.331,0,0,0,1.835-.38Zm-3.746-3.416h2.143a1.992,1.992,0,0,0-.274-1.19.856.856,0,0,0-.71-.358.942.942,0,0,0-.778.394A2.241,2.241,0,0,0,3357.1,1083.319Z" transform="translate(-3274.553 -1078.24)" fill="#039"/>
        <path id="Trazado_5157" data-name="Trazado 5157" d="M3385.508,1086.746v-1.2a5.557,5.557,0,0,0,2.072.507,1.242,1.242,0,0,0,.73-.193.58.58,0,0,0,.272-.49.554.554,0,0,0-.2-.435,2.32,2.32,0,0,0-.622-.336l-.551-.221a3.692,3.692,0,0,1-1.261-.755,1.436,1.436,0,0,1-.408-1.063,1.621,1.621,0,0,1,.614-1.3,2.884,2.884,0,0,1,1.876-.512,8.716,8.716,0,0,1,1.758.215v1.146a5.16,5.16,0,0,0-1.625-.342,1.354,1.354,0,0,0-.76.174.522.522,0,0,0-.088.829,1.639,1.639,0,0,0,.584.325l.474.182a4.049,4.049,0,0,1,1.537.865,1.521,1.521,0,0,1,.358,1.014,1.737,1.737,0,0,1-.658,1.342,2.827,2.827,0,0,1-1.915.576A7.641,7.641,0,0,1,3385.508,1086.746Z" transform="translate(-3297.485 -1078.24)" fill="#039"/>
        <path id="Trazado_5158" data-name="Trazado 5158" d="M3414.866,1086.289a3.319,3.319,0,0,1-.612.49,2.214,2.214,0,0,1-.54.223,2.318,2.318,0,0,1-.595.075,1.7,1.7,0,0,1-1.785-1.741,1.851,1.851,0,0,1,.73-1.49,3.739,3.739,0,0,1,2.366-.6h.436v-.551a.816.816,0,0,0-.309-.749,1.453,1.453,0,0,0-.782-.193,3.928,3.928,0,0,0-1.912.54v-1.124a6.19,6.19,0,0,1,2.2-.419,3.683,3.683,0,0,1,1.2.182,1.856,1.856,0,0,1,.846.565,1.763,1.763,0,0,1,.316,1.143v2.678q0,.491.151.6a.51.51,0,0,0,.3.11,1.412,1.412,0,0,0,.221-.022l.038.915a3.268,3.268,0,0,1-.919.154,1.842,1.842,0,0,1-.78-.152,1.042,1.042,0,0,1-.5-.636Zm0-.876v-1.229h-.386a2.03,2.03,0,0,0-1.19.284.847.847,0,0,0-.392.708.75.75,0,0,0,.237.57.786.786,0,0,0,.557.223,1.346,1.346,0,0,0,.582-.14A2.423,2.423,0,0,0,3414.866,1085.413Z" transform="translate(-3317.158 -1078.24)" fill="#039"/>
        <path id="Trazado_5159" data-name="Trazado 5159" d="M3442.316,1086.939v-6.05h1.631v1.14a2.413,2.413,0,0,1,.8-.931,1.952,1.952,0,0,1,1.129-.347,1.435,1.435,0,0,1,.3.033v1.454a1.86,1.86,0,0,0-.645-.127,1.647,1.647,0,0,0-.881.245,2.235,2.235,0,0,0-.705.741v3.84Z" transform="translate(-3340.759 -1078.24)" fill="#039"/>
        <path id="Trazado_5160" data-name="Trazado 5160" d="M3464.6,1086.939v-6.05h1.631v1.14a2.415,2.415,0,0,1,.8-.931,1.951,1.951,0,0,1,1.129-.347,1.427,1.427,0,0,1,.3.033v1.454a1.859,1.859,0,0,0-.645-.127,1.646,1.646,0,0,0-.882.245,2.233,2.233,0,0,0-.705.741v3.84Z" transform="translate(-3357.736 -1078.24)" fill="#039"/>
        <path id="Trazado_5161" data-name="Trazado 5161" d="M3487.748,1087.077a3.469,3.469,0,0,1-1.683-.383,2.53,2.53,0,0,1-1.072-1.127,3.895,3.895,0,0,1-.006-3.3,2.526,2.526,0,0,1,1.069-1.129,3.881,3.881,0,0,1,3.385,0,2.546,2.546,0,0,1,1.069,1.129,3.883,3.883,0,0,1,0,3.3,2.53,2.53,0,0,1-1.072,1.127A3.483,3.483,0,0,1,3487.748,1087.077Zm0-1.019a1.133,1.133,0,0,0,1.044-.609,3.541,3.541,0,0,0,0-3.066,1.193,1.193,0,0,0-2.083,0,3.532,3.532,0,0,0,0,3.066A1.127,1.127,0,0,0,3487.748,1086.058Z" transform="translate(-3372.987 -1078.24)" fill="#039"/>
        <path id="Trazado_5162" data-name="Trazado 5162" d="M3517.9,1078.906v-8.7h1.631v8.7Z" transform="translate(-3398.332 -1070.207)" fill="#039"/>
        <path id="Trazado_5163" data-name="Trazado 5163" d="M3534.056,1078.906v-8.7h1.631v8.7Z" transform="translate(-3410.642 -1070.207)" fill="#039"/>
        <path id="Trazado_5164" data-name="Trazado 5164" d="M3551.072,1087.077a3.471,3.471,0,0,1-1.683-.383,2.528,2.528,0,0,1-1.071-1.127,3.89,3.89,0,0,1-.005-3.3,2.523,2.523,0,0,1,1.069-1.129,3.881,3.881,0,0,1,3.385,0,2.549,2.549,0,0,1,1.069,1.129,3.883,3.883,0,0,1,0,3.3,2.527,2.527,0,0,1-1.072,1.127A3.481,3.481,0,0,1,3551.072,1087.077Zm0-1.019a1.132,1.132,0,0,0,1.044-.609,3.534,3.534,0,0,0,0-3.066,1.192,1.192,0,0,0-2.083,0,3.537,3.537,0,0,0,0,3.066A1.127,1.127,0,0,0,3551.072,1086.058Z" transform="translate(-3421.224 -1078.24)" fill="#039"/>
        <path id="Trazado_5165" data-name="Trazado 5165" d="M3595.129,1079.927v-1.4a7.18,7.18,0,0,0,1.427.479,5.33,5.33,0,0,0,.868.078,1.542,1.542,0,0,0,1.067-.32,1,1,0,0,0,.352-.767,1.038,1.038,0,0,0-.2-.617,3.3,3.3,0,0,0-.964-.7l-.55-.3a5.16,5.16,0,0,1-1.6-1.213,2.144,2.144,0,0,1,.281-2.867,2.861,2.861,0,0,1,2.023-.656,10.12,10.12,0,0,1,2.22.281v1.306a6.188,6.188,0,0,0-2.008-.469,1.433,1.433,0,0,0-.937.267.809.809,0,0,0-.321.642.845.845,0,0,0,.2.535,3.538,3.538,0,0,0,.958.678l.589.325a5.225,5.225,0,0,1,1.723,1.311,2.319,2.319,0,0,1-.4,2.974,3.494,3.494,0,0,1-2.432.71A11.375,11.375,0,0,1,3595.129,1079.927Z" transform="translate(-3457.153 -1071.299)" fill="#039"/>
        <path id="Trazado_5166" data-name="Trazado 5166" d="M3625.773,1087.077a3.47,3.47,0,0,1-1.683-.383,2.527,2.527,0,0,1-1.072-1.127,3.892,3.892,0,0,1-.006-3.3,2.525,2.525,0,0,1,1.069-1.129,3.881,3.881,0,0,1,3.385,0,2.549,2.549,0,0,1,1.069,1.129,3.881,3.881,0,0,1,0,3.3,2.529,2.529,0,0,1-1.071,1.127A3.483,3.483,0,0,1,3625.773,1087.077Zm0-1.019a1.132,1.132,0,0,0,1.044-.609,3.534,3.534,0,0,0,0-3.066,1.192,1.192,0,0,0-2.083,0,3.534,3.534,0,0,0,0,3.066A1.127,1.127,0,0,0,3625.773,1086.058Z" transform="translate(-3478.129 -1078.24)" fill="#039"/>
        <path id="Trazado_5167" data-name="Trazado 5167" d="M3655.25,1086.746v-1.2a5.555,5.555,0,0,0,2.072.507,1.241,1.241,0,0,0,.73-.193.579.579,0,0,0,.272-.49.554.554,0,0,0-.2-.435,2.328,2.328,0,0,0-.623-.336l-.551-.221a3.692,3.692,0,0,1-1.261-.755,1.435,1.435,0,0,1-.408-1.063,1.619,1.619,0,0,1,.615-1.3,2.883,2.883,0,0,1,1.875-.512,8.718,8.718,0,0,1,1.758.215v1.146a5.16,5.16,0,0,0-1.625-.342,1.354,1.354,0,0,0-.76.174.523.523,0,0,0-.088.829,1.649,1.649,0,0,0,.584.325l.474.182a4.05,4.05,0,0,1,1.538.865,1.523,1.523,0,0,1,.358,1.014,1.737,1.737,0,0,1-.658,1.342,2.826,2.826,0,0,1-1.915.576A7.637,7.637,0,0,1,3655.25,1086.746Z" transform="translate(-3502.963 -1078.24)" fill="#039"/>
        <path id="Trazado_5168" data-name="Trazado 5168" d="M3684.656,1083.489a3.507,3.507,0,0,1-.92.171,2.766,2.766,0,0,1-1.24-.226,1.548,1.548,0,0,1-.661-.614,2.366,2.366,0,0,1-.22-1.143v-3.184h-.678v-1.019h.678v-1.019l1.63-.187v1.206h1.295v1.019h-1.295v2.965a1.25,1.25,0,0,0,.232.883.924.924,0,0,0,.677.228,2.325,2.325,0,0,0,.5-.066Z" transform="translate(-3522.53 -1074.823)" fill="#039"/>
        <path id="Trazado_5169" data-name="Trazado 5169" d="M3706.581,1086.735a7.742,7.742,0,0,1-2.19.342,3.809,3.809,0,0,1-1.717-.367,2.505,2.505,0,0,1-1.134-1.146,3.814,3.814,0,0,1-.06-3.261,2.667,2.667,0,0,1,.98-1.135,2.859,2.859,0,0,1,1.585-.416,2.4,2.4,0,0,1,1.845.738,4.09,4.09,0,0,1,.69,2.749h-3.719a2.17,2.17,0,0,0,.276.964,1.6,1.6,0,0,0,.6.559,2.108,2.108,0,0,0,1.01.207,5.332,5.332,0,0,0,1.835-.38Zm-3.747-3.416h2.144a1.99,1.99,0,0,0-.275-1.19.855.855,0,0,0-.71-.358.942.942,0,0,0-.778.394A2.25,2.25,0,0,0,3702.834,1083.319Z" transform="translate(-3537.922 -1078.24)" fill="#039"/>
        <path id="Trazado_5170" data-name="Trazado 5170" d="M3731.918,1086.939v-6.05h1.631v1.14a2.742,2.742,0,0,1,.975-.989,2.256,2.256,0,0,1,1.085-.289,1.786,1.786,0,0,1,1.231.46,1.855,1.855,0,0,1,.515,1.452v4.275h-1.631v-3.873a1.662,1.662,0,0,0-.091-.672.639.639,0,0,0-.248-.267.687.687,0,0,0-.35-.091,1.341,1.341,0,0,0-.7.223,2.831,2.831,0,0,0-.788.873v3.807Z" transform="translate(-3561.366 -1078.24)" fill="#039"/>
        <path id="Trazado_5171" data-name="Trazado 5171" d="M3763.78,1072.7v-1.361h1.631v1.361Zm0,7.069v-6.05h1.631v6.05Z" transform="translate(-3585.636 -1071.07)" fill="#039"/>
        <path id="Trazado_5172" data-name="Trazado 5172" d="M3779.938,1078.906v-8.7h1.631v3.8a2.32,2.32,0,0,1,.8-.963,2.052,2.052,0,0,1,1.152-.321,1.986,1.986,0,0,1,1.706.827,3.6,3.6,0,0,1,.6,2.171,4.01,4.01,0,0,1-.674,2.374,2.17,2.17,0,0,1-1.879.953,2.489,2.489,0,0,1-.625-.075,2.094,2.094,0,0,1-.541-.223,2.607,2.607,0,0,1-.541-.452l-.3.612Zm1.631-1.58a2.056,2.056,0,0,0,.635.523,1.417,1.417,0,0,0,.6.138,1.028,1.028,0,0,0,.969-.646,3.324,3.324,0,0,0,.317-1.483,2.6,2.6,0,0,0-.3-1.359.96.96,0,0,0-.864-.5,1.207,1.207,0,0,0-.7.25,2.787,2.787,0,0,0-.654.679Z" transform="translate(-3597.945 -1070.207)" fill="#039"/>
        <path id="Trazado_5173" data-name="Trazado 5173" d="M3812.077,1078.906v-8.7h1.63v8.7Z" transform="translate(-3622.427 -1070.207)" fill="#039"/>
        <path id="Trazado_5174" data-name="Trazado 5174" d="M3831.407,1086.735a7.74,7.74,0,0,1-2.19.342,3.8,3.8,0,0,1-1.716-.367,2.5,2.5,0,0,1-1.134-1.146,3.678,3.678,0,0,1-.4-1.694,3.64,3.64,0,0,1,.337-1.567,2.666,2.666,0,0,1,.98-1.135,2.861,2.861,0,0,1,1.585-.416,2.4,2.4,0,0,1,1.845.738,4.087,4.087,0,0,1,.69,2.749h-3.719a2.183,2.183,0,0,0,.276.964,1.6,1.6,0,0,0,.6.559,2.1,2.1,0,0,0,1.01.207,5.33,5.33,0,0,0,1.835-.38Zm-3.746-3.416h2.143a1.986,1.986,0,0,0-.275-1.19.855.855,0,0,0-.71-.358.941.941,0,0,0-.777.394A2.236,2.236,0,0,0,3827.661,1083.319Z" transform="translate(-3633.01 -1078.24)" fill="#039"/>
        <path id="Trazado_5175" data-name="Trazado 5175" d="M3870.654,1079.927v-1.4a7.163,7.163,0,0,0,1.426.479,5.325,5.325,0,0,0,.868.078,1.544,1.544,0,0,0,1.067-.32,1,1,0,0,0,.352-.767,1.04,1.04,0,0,0-.2-.617,3.292,3.292,0,0,0-.965-.7l-.55-.3a5.17,5.17,0,0,1-1.6-1.213,2.146,2.146,0,0,1,.282-2.867,2.86,2.86,0,0,1,2.023-.656,10.124,10.124,0,0,1,2.221.281v1.306a6.188,6.188,0,0,0-2.009-.469,1.434,1.434,0,0,0-.937.267.81.81,0,0,0-.322.642.847.847,0,0,0,.2.535,3.536,3.536,0,0,0,.958.678l.589.325a5.24,5.24,0,0,1,1.724,1.311,2.32,2.32,0,0,1-.4,2.974,3.494,3.494,0,0,1-2.432.71A11.368,11.368,0,0,1,3870.654,1079.927Z" transform="translate(-3667.036 -1071.299)" fill="#039"/>
        <path id="Trazado_5176" data-name="Trazado 5176" d="M3898.312,1101.068V1099.3h1.769v1.769Z" transform="translate(-3688.118 -1092.368)" fill="#039"/>
        <path id="Trazado_5177" data-name="Trazado 5177" d="M3909.152,1080.65l3.175-8.154h1.7l3.173,8.154h-1.743l-.848-2.176h-3.375l-.848,2.176Zm2.505-3.262h2.531l-1.265-3.25Z" transform="translate(-3696.375 -1071.951)" fill="#039"/>
        <path id="Trazado_5178" data-name="Trazado 5178" d="M3946.4,1101.068V1099.3h1.769v1.769Z" transform="translate(-3724.75 -1092.368)" fill="#039"/>
        <path id="Trazado_5179" data-name="Trazado 5179" d="M3965.929,1079.679a5.13,5.13,0,0,1-.932.322,8.916,8.916,0,0,1-.9.144,8.825,8.825,0,0,1-.995.057,4.007,4.007,0,0,1-3.19-1.207,5.029,5.029,0,0,1,0-6.154,4.155,4.155,0,0,1,3.3-1.2,11.369,11.369,0,0,1,2.644.314v1.328q-.634-.22-1.035-.322a7.056,7.056,0,0,0-.763-.152,5.277,5.277,0,0,0-.719-.049,2.314,2.314,0,0,0-2.038.9,3.8,3.8,0,0,0-.634,2.237,3.427,3.427,0,0,0,.719,2.264,2.623,2.623,0,0,0,2.141.865,5.435,5.435,0,0,0,2.408-.6Z" transform="translate(-3734.241 -1071.299)" fill="#039"/>
        <path id="Trazado_5180" data-name="Trazado 5180" d="M3993.358,1101.068V1099.3h1.769v1.769Z" transform="translate(-3760.52 -1092.368)" fill="#039"/>
      </g>
    </g>
    <g id="Grupo_13546" data-name="Grupo 13546" transform="translate(3014.563 696.396)">
      <g id="Grupo_13545" data-name="Grupo 13545" transform="translate(0 0)">
        <path id="Trazado_5181" data-name="Trazado 5181" d="M3059.3,757.486a25.833,25.833,0,0,0-1.31-5.876,21.286,21.286,0,0,0-6.3-9.224,23.813,23.813,0,0,0-11.838-5.445.4.4,0,0,1-.274-.184,17.213,17.213,0,0,1-1.7-3.739,17.682,17.682,0,0,1-.368-8.635,40.372,40.372,0,0,1,2.063-6.921c.934-2.467,2-4.885,2.8-7.4a15.461,15.461,0,0,0,.88-4.907,6.814,6.814,0,0,0-1.9-4.78,14.687,14.687,0,0,0-6.676-3.779l-.777-.2.142.084a3.471,3.471,0,0,1,.3.2c.109.082.259.194.365.264a21.587,21.587,0,0,1,4.445,3.4,8.013,8.013,0,0,1,1.772,3.2,8.155,8.155,0,0,1-.262,4.648,29.35,29.35,0,0,1-2.664,5.588c-.057-.022-.044-.082-.066-.123h0c.01-.131.02-.262.03-.394a10.5,10.5,0,0,0-.7-4.757,12.555,12.555,0,0,0-3.66-4.85,23.927,23.927,0,0,0-6.518-3.814,29.1,29.1,0,0,0-3.243-1.08c-.775-.215-.975-.388-.928-.02.041.331.051.666.07,1a42.776,42.776,0,0,0,.985,7.162,20.7,20.7,0,0,0,2.737,6.894,9,9,0,0,0,3.322,3.119,7.9,7.9,0,0,0,4.837.734c.494-.066.961-.139,1.2-.657l.056.064c-.057.109-.112.22-.172.328a42.732,42.732,0,0,0-2.392,4.966,20.362,20.362,0,0,0-1.444,6.04,16.9,16.9,0,0,0,.947,6.924c.219.617.469,1.222.734,1.835l-.251.063c-.626.149-1.253.292-1.868.479a23.117,23.117,0,0,0-14.77,12.224,22.366,22.366,0,0,0-1.683,15.365,22.112,22.112,0,0,0,19.261,16.89,9.631,9.631,0,0,0,1,.1h.4c-.007,0-.014-.006-.021-.011l1.533-.007a.2.2,0,0,0-.023.018h.745a.115.115,0,0,1,.077-.029,14.957,14.957,0,0,0,3.2-.4,22.364,22.364,0,0,0,7.145-2.917,22.843,22.843,0,0,0,4.994-4.254,23.363,23.363,0,0,0,3.959-6.332,25.886,25.886,0,0,0,1.726-6.6c.078-.547.077-1.1.15-1.644v-.8C3059.36,758.755,3059.3,757.553,3059.3,757.486Z" transform="translate(-3014.563 -696.396)" fill="#00af50"/>
        <path id="Trazado_5182" data-name="Trazado 5182" d="M3114.824,780.653a11.264,11.264,0,0,0-.924,5.531.455.455,0,0,0,.137.275c.405.481.814.961,1.216,1.445a.389.389,0,0,0,.3.143,18.429,18.429,0,0,0,2.743.019,14.225,14.225,0,0,0,7.968-3.191,19.985,19.985,0,0,0,4.782-5.687,19.284,19.284,0,0,0,1.922-4.326,1.053,1.053,0,0,0,.038-.7c-.035-.091-.067-.139-.18-.129-.886.076-1.774.007-2.3.026a43.063,43.063,0,0,0-4.446.238,20.555,20.555,0,0,0-6.176,1.581A9.771,9.771,0,0,0,3114.824,780.653Z" transform="translate(-3090.213 -755.538)" fill="#00af50"/>
      </g>
      <path id="Trazado_5183" data-name="Trazado 5183" d="M3028.266,893.207c-.581-.044-.756.448-1.066.759a1.566,1.566,0,0,0-.163.235.982.982,0,0,0,.153,1.5c.054.054.108.108.165.158.288.254.271.359-.079.557-.615.347-1.24.672-1.882.965-.172.078-.352.166-.286.393.071.243.287.2.479.189a8.91,8.91,0,0,0,2.62-.756c.26-.1.4-.349.593-.529.126-.116.244-.241.364-.362.1-.1.2-.209.346-.041.058.066.164.041.248.026a2.119,2.119,0,0,0,.61-.134c.616-.327,1.071.057,1.514.35a1.578,1.578,0,0,1,.539,1.03,2.385,2.385,0,0,1-.139,1.449,1.088,1.088,0,0,0,.195,1.04.269.269,0,0,0,.48-.062,3.117,3.117,0,0,0,.116-.319c.113.218.146.374-.082.524a.726.726,0,0,0-.123.771c.09.2.184.4.288.592a.963.963,0,0,1-.04.98,4.3,4.3,0,0,0-.344,2.253,2.08,2.08,0,0,0,.541,1.37c.043.05.075.128.129.148.462.172.539.61.684.993a5.753,5.753,0,0,1,.3.983c.1.557.567.814.9,1.178a.277.277,0,0,0,.324.027.253.253,0,0,0,.14-.287,2.289,2.289,0,0,1-.032-.4,2.032,2.032,0,0,1,.545.947,1.256,1.256,0,0,0,.937,1.146,7.875,7.875,0,0,1,1.522.566c.05.026.116.066.159.052.322-.107.514.112.721.281a.758.758,0,0,0,.449.166,1.143,1.143,0,0,1,.922.538,2.8,2.8,0,0,0,1.217.869.281.281,0,0,0,.319-.033c.178-.137.276-.041.284.135a.99.99,0,0,1-.26.867,2.06,2.06,0,0,0-.478,1.255c-.007.037.008.085-.01.113-.271.439.008.692.3.966a12.253,12.253,0,0,1,1.336,1.78,1.06,1.06,0,0,0,.417.376.926.926,0,0,1,.612.844c.052.806.134,1.6.121,2.418a18.2,18.2,0,0,0-.2,2.837c.028.2.029.4.212.537a.157.157,0,0,1,.041.226c-.037.067-.06.141-.1.206a.927.927,0,0,0,.053,1.189,3.135,3.135,0,0,1,.343,1.017,3.7,3.7,0,0,0,1.182,1.692,4.6,4.6,0,0,1-.876.265,21.4,21.4,0,0,1-3.488.554,20.029,20.029,0,0,1-3.341-.016,20.847,20.847,0,0,1-11.623-4.865,20.954,20.954,0,0,1-4.744-5.79,21.727,21.727,0,0,1-2.321-6.455,20.366,20.366,0,0,1-.323-2.662c-.039-.639-.059-1.278-.036-1.916a21.681,21.681,0,0,1,1.761-7.927,22.057,22.057,0,0,1,3.018-5.042,21.687,21.687,0,0,1,3.014-3.084c.123-.1.2-.155.249.067.028.128.165.173.293.2C3028.072,893.113,3028.178,893.068,3028.266,893.207Z" transform="translate(-3018.43 -845.966)" fill="#0067b3"/>
      <path id="Trazado_5184" data-name="Trazado 5184" d="M3103.385,915.489a1.705,1.705,0,0,0,1.037-.412.307.307,0,0,0,.069-.471c-.339-.513-.427-.567-1.035-.441a1.052,1.052,0,0,1-.788-.1,1.872,1.872,0,0,0-1.6.025c-.018.006-.035.016-.053.021-.223.059-.534.313-.642.163a1.251,1.251,0,0,1-.1-.929,1.329,1.329,0,0,1,1.3-.95c.123-.009.189.077.271.139.2.155.4.2.552-.057a.278.278,0,0,1,.289-.136,3.256,3.256,0,0,1,.607.152.163.163,0,0,1,.131.168c-.006.329.236.53.4.773a.3.3,0,0,0,.339.158c.154-.036.2-.163.238-.294a3.891,3.891,0,0,0,.063-1.167.689.689,0,0,1,.369-.688,2.856,2.856,0,0,0,1.257-1.457,1.089,1.089,0,0,1,1.018-.74c.215.006.249-.177.317-.319s.088-.31.244-.406.289-.2.433.048c.1.176.3.139.458.038a6.009,6.009,0,0,1,1.218-.559c.181-.068.381-.115.358-.372a.7.7,0,0,0-.5-.45c-.181-.006-.363,0-.544.007s-.209-.089-.218-.232c-.01-.177.1-.173.225-.17a.753.753,0,0,1,.115,0,2.564,2.564,0,0,0,2-.781c.186-.133.154-.327.051-.515-.3-.541-.211-.735.382-.953a1.584,1.584,0,0,0,.957-.631.207.207,0,0,1,.2-.1,1.824,1.824,0,0,0,1.221-.614.931.931,0,0,0,.264-.828.556.556,0,0,1,.057-.348,5.483,5.483,0,0,0,.448-1.14c.056-.271-.045-.571.207-.8.028-.025.015-.113,0-.166a1.059,1.059,0,0,1,.391-1.229c-.065.225.086.369.208.515a19.629,19.629,0,0,0,1.486,1.806.173.173,0,0,1,.044.1,5.261,5.261,0,0,0,.393,1.31,1.136,1.136,0,0,1,.056.648,4.613,4.613,0,0,0,.031,1.48,13.693,13.693,0,0,1,.153,2.106c-.018.452.1.572.533.464.277-.069.338.046.423.255a1.956,1.956,0,0,1,.164,1.211,1.022,1.022,0,0,0,.471,1.122,4.405,4.405,0,0,1,1.322,1.316,2.6,2.6,0,0,0,.956.8.515.515,0,0,0,.666-.14c.233-.262.484-.508.748-.781a1.642,1.642,0,0,1,.141.767,24.129,24.129,0,0,1-.025,4,21.523,21.523,0,0,1-1.559,6.209,21.81,21.81,0,0,1-3.356,5.563,21.478,21.478,0,0,1-4.49,4.084,20.8,20.8,0,0,1-3.8,2.041c-.171.07-.313.133-.476-.049a.874.874,0,0,0-.423-.229c-.5-.13-.5-.631-.727-.96-.05-.072.052-.134.1-.185a1.311,1.311,0,0,0,.315-.438c.093-.236.112-.443-.152-.588-.137-.075-.135-.171-.008-.263a1,1,0,0,0,.3-.976c-.006-.121-.041-.185.107-.221s.174-.158.18-.292a.351.351,0,0,1,.312-.366c.771-.2.786-.011.76-.959,0-.193.077-.253.236-.191a.415.415,0,0,0,.484-.15,4.4,4.4,0,0,0,1.264-2.024.452.452,0,0,1,.21-.284,9.612,9.612,0,0,1,1.307-.7.658.658,0,0,0,.391-.579,12.957,12.957,0,0,1,.427-1.862c.042-.189.211-.312.327-.463.075-.1.16-.19.228-.293a.9.9,0,0,0-.45-1.473,7.591,7.591,0,0,0-1.757-.582,5.731,5.731,0,0,1-1.083-.359.407.407,0,0,1-.23-.24c-.066-.148-.137-.293-.206-.439a1.926,1.926,0,0,0-1.713-.988.982.982,0,0,1-.632-.271,2.324,2.324,0,0,0-1.65-.723,8.434,8.434,0,0,0-1.21-.163,2.465,2.465,0,0,0-1.558.518c-.019.017-.059.04-.069.033-.232-.162-.454-.016-.684.008-.29.031-.609-.464-.5-.743C3103.455,915.9,3103.563,915.713,3103.385,915.489Z" transform="translate(-3079.822 -850.523)" fill="#0067b3"/>
      <path id="Trazado_5185" data-name="Trazado 5185" d="M3120.1,877.352l-.565-.679a.538.538,0,0,1-.073-.491.655.655,0,0,0,.031-.365c-.124-.3-.212-.569.122-.809.124-.089.024-.258-.014-.377-.058-.185-.058-.319.127-.436a.774.774,0,0,0,.288-.542c.032-.152.078-.217.267-.186a20.76,20.76,0,0,1,4.7,1.353,13.368,13.368,0,0,1,1.566.742,4.718,4.718,0,0,0-.625.521.313.313,0,0,0,.014.5c.155.141.3.294.452.439a.186.186,0,0,1,.06.224c-.043.134-.125.08-.2.074a.6.6,0,0,1-.2-.019,1.285,1.285,0,0,0-1.42.31.653.653,0,0,1-.34.186c-.358.035-.474.344-.646.588a.042.042,0,0,0-.009.026c.109.5-.344.433-.588.572a.544.544,0,0,1-.192.05.311.311,0,0,0-.3.443c.026.1.055.2-.067.237-.156.049-.133-.106-.159-.179a1.235,1.235,0,0,0-.67-.628c-.184-.1-.308.07-.4.226-.111.189-.161.434-.427.494.039-.64.039-.64-.451-.651.31-.392.438-.871.712-1.258.154-.217.443-.338.652-.531.3-.277.276-.5-.112-.65a2.974,2.974,0,0,0-1.189-.063c-.172.006-.2.168-.208.325C3120.239,876.986,3120.309,877.2,3120.1,877.352Z" transform="translate(-3094.411 -831.276)" fill="#0067b3"/>
      <path id="Trazado_5186" data-name="Trazado 5186" d="M3118.654,901.925a1.124,1.124,0,0,0,.467.439.31.31,0,0,0,.293.054.445.445,0,0,1,.529.228,1.08,1.08,0,0,1,.182.836,6.436,6.436,0,0,0-.03,1.056c0,.153,0,.221-.2.116a2.807,2.807,0,0,0-1.913-.5c-.215.047-.349.1-.354.352a.95.95,0,0,1-.3.821.308.308,0,0,0-.02.44c.346.511.124.657-.263.9-.177.111-.406.11-.578.239-.051.037-.078.036-.1-.03-.058-.2-.24-.258-.4-.338a6.508,6.508,0,0,1-1.235-.713.69.69,0,0,1-.182-.667c.05-.106.144-.076.223-.08.342-.019.684-.031,1.026-.047.283-.013.411-.157.319-.431-.149-.444-.229-.821.323-1.064a2.334,2.334,0,0,0,.557-.486.589.589,0,0,1,.423-.138c.21,0,.42-.009.629,0,.272.014.389-.12.382-.376A.788.788,0,0,1,3118.654,901.925Z" transform="translate(-3090.711 -852.959)" fill="#0067b3"/>
      <path id="Trazado_5187" data-name="Trazado 5187" d="M3081.392,875.263a1.088,1.088,0,0,1-.514.172,1.5,1.5,0,0,0-1.307,1.034c-.036.128-.111.146-.2.039a.628.628,0,0,1-.17-.413c0-.2.045-.423-.246-.465-.216-.031-.587.181-.6.391-.016.263-.186.328-.369.409-.12.054-.258.077-.343.194-.059.083-.128.055-.2.021a2.768,2.768,0,0,1-.906-.527,7.879,7.879,0,0,0-.649-.557c-.106-.089-.167-.149.023-.226a22.658,22.658,0,0,1,3.516-1.073.582.582,0,0,1,.507.14A3.049,3.049,0,0,0,3081.392,875.263Z" transform="translate(-3061.201 -831.878)" fill="#0067b3"/>
      <path id="Trazado_5188" data-name="Trazado 5188" d="M3103.916,889.7a5.928,5.928,0,0,0,2.086.4,2.741,2.741,0,0,1-.4.614c-.151.206-.219.4-.04.619a.366.366,0,0,1,.024.431c-.067.108-.165.253-.324.052a.825.825,0,0,0-.919-.11c-.132.094-.2.079-.265-.047-.213-.429-.588-.454-1-.423-.187.014-.262.19-.393.241s-.2-.247-.393-.187c-.243.075-.364.013-.328-.263.015-.117-.07-.193-.147-.264a6.676,6.676,0,0,1-.5-.484c.476.24,1.035.185,1.5.445a.784.784,0,0,0,.885-.059.76.76,0,0,0,.223-.835A.844.844,0,0,1,3103.916,889.7Z" transform="translate(-3080.65 -843.646)" fill="#0067b3"/>
      <path id="Trazado_5189" data-name="Trazado 5189" d="M3121.833,923.878l.07-.287.042,0a3.945,3.945,0,0,1-.005.51c-.017.13-.071.059-.1-.005C3121.843,924.025,3121.881,923.952,3121.833,923.878Z" transform="translate(-3096.277 -869.464)" fill="#007e93"/>
      <path id="Trazado_5190" data-name="Trazado 5190" d="M3059.585,887.738c.012.074-.022.1-.076.088s-.109-.037-.109-.1.05-.077.094-.083C3059.577,887.627,3059.551,887.717,3059.585,887.738Z" transform="translate(-3048.718 -842.076)" fill="#0070a6"/>
      <path id="Trazado_5191" data-name="Trazado 5191" d="M3121.741,924.8a.136.136,0,0,1,0,.221C3121.68,924.945,3121.733,924.871,3121.741,924.8Z" transform="translate(-3096.185 -870.382)" fill="#0067b3"/>
    </g>
  </g>
</svg>
