<svg xmlns="http://www.w3.org/2000/svg" xmlns:xlink="http://www.w3.org/1999/xlink" width="62" height="62" viewBox="0 0 62 62">
  <defs>
    <filter id="Elipse_317" x="0" y="0" width="62" height="62" filterUnits="userSpaceOnUse">
      <feOffset dy="3" input="SourceAlpha"/>
      <feGaussianBlur stdDeviation="3" result="blur"/>
      <feFlood flood-opacity="0.161"/>
      <feComposite operator="in" in2="blur"/>
      <feComposite in="SourceGraphic"/>
    </filter>
  </defs>
  <g id="Grupo_13187" data-name="Grupo 13187" transform="translate(8.675 5.882)">
    <g transform="matrix(1, 0, 0, 1, -8.67, -5.88)" filter="url(#Elipse_317)">
      <circle id="Elipse_317-2" data-name="Elipse 317" cx="22" cy="22" r="22" transform="translate(9 6)" fill="#fff"/>
    </g>
    <path id="Icon_awesome-twitter" data-name="Icon awesome-twitter" d="M23.6,8.7c.017.234.017.467.017.7A15.231,15.231,0,0,1,8.277,24.742,15.232,15.232,0,0,1,0,22.322a11.151,11.151,0,0,0,1.3.067,10.8,10.8,0,0,0,6.692-2.3,5.4,5.4,0,0,1-5.04-3.738,6.8,6.8,0,0,0,1.018.083,5.7,5.7,0,0,0,1.418-.184,5.391,5.391,0,0,1-4.322-5.29V10.89a5.429,5.429,0,0,0,2.436.684A5.4,5.4,0,0,1,1.836,4.365,15.322,15.322,0,0,0,12.95,10.006a6.085,6.085,0,0,1-.134-1.235,5.4,5.4,0,0,1,9.329-3.688,10.612,10.612,0,0,0,3.421-1.3,5.376,5.376,0,0,1-2.37,2.97,10.806,10.806,0,0,0,3.1-.834A11.587,11.587,0,0,1,23.6,8.7Z" transform="translate(9.11 8.199)" fill="#039"/>
  </g>
</svg>
